%TF.GenerationSoftware,KiCad,Pcbnew,8.0.8*%
%TF.CreationDate,2025-03-02T22:10:34+01:00*%
%TF.ProjectId,RFM69HW Breakout,52464d36-3948-4572-9042-7265616b6f75,rev?*%
%TF.SameCoordinates,Original*%
%TF.FileFunction,Drillmap*%
%TF.FilePolarity,Positive*%
%FSLAX45Y45*%
G04 Gerber Fmt 4.5, Leading zero omitted, Abs format (unit mm)*
G04 Created by KiCad (PCBNEW 8.0.8) date 2025-03-02 22:10:34*
%MOMM*%
%LPD*%
G01*
G04 APERTURE LIST*
%ADD10C,0.100000*%
%ADD11C,0.200000*%
G04 APERTURE END LIST*
D10*
X14000000Y-11200000D02*
G75*
G02*
X13800000Y-11000000I0J200000D01*
G01*
X13800000Y-8400000D02*
G75*
G02*
X14000000Y-8200000I200000J0D01*
G01*
X13800000Y-11000000D02*
X13800000Y-9280000D01*
X17600000Y-8200000D02*
G75*
G02*
X17800000Y-8400000I0J-200000D01*
G01*
X13800000Y-8400000D02*
X13800000Y-8420000D01*
X14000000Y-8200000D02*
X17600000Y-8200000D01*
X17600000Y-11200000D02*
X14000000Y-11200000D01*
X17800000Y-8400000D02*
X17800000Y-11000000D01*
X17800000Y-11000000D02*
G75*
G02*
X17600000Y-11200000I-200000J0D01*
G01*
X13800000Y-8420000D02*
X13800000Y-9280000D01*
D11*
X14055777Y-11516484D02*
X14055777Y-11316484D01*
X14055777Y-11316484D02*
X14103396Y-11316484D01*
X14103396Y-11316484D02*
X14131967Y-11326008D01*
X14131967Y-11326008D02*
X14151015Y-11345055D01*
X14151015Y-11345055D02*
X14160539Y-11364103D01*
X14160539Y-11364103D02*
X14170062Y-11402198D01*
X14170062Y-11402198D02*
X14170062Y-11430769D01*
X14170062Y-11430769D02*
X14160539Y-11468865D01*
X14160539Y-11468865D02*
X14151015Y-11487912D01*
X14151015Y-11487912D02*
X14131967Y-11506960D01*
X14131967Y-11506960D02*
X14103396Y-11516484D01*
X14103396Y-11516484D02*
X14055777Y-11516484D01*
X14255777Y-11516484D02*
X14255777Y-11383150D01*
X14255777Y-11421246D02*
X14265301Y-11402198D01*
X14265301Y-11402198D02*
X14274824Y-11392674D01*
X14274824Y-11392674D02*
X14293872Y-11383150D01*
X14293872Y-11383150D02*
X14312920Y-11383150D01*
X14379586Y-11516484D02*
X14379586Y-11383150D01*
X14379586Y-11316484D02*
X14370062Y-11326008D01*
X14370062Y-11326008D02*
X14379586Y-11335531D01*
X14379586Y-11335531D02*
X14389110Y-11326008D01*
X14389110Y-11326008D02*
X14379586Y-11316484D01*
X14379586Y-11316484D02*
X14379586Y-11335531D01*
X14503396Y-11516484D02*
X14484348Y-11506960D01*
X14484348Y-11506960D02*
X14474824Y-11487912D01*
X14474824Y-11487912D02*
X14474824Y-11316484D01*
X14608158Y-11516484D02*
X14589110Y-11506960D01*
X14589110Y-11506960D02*
X14579586Y-11487912D01*
X14579586Y-11487912D02*
X14579586Y-11316484D01*
X14836729Y-11516484D02*
X14836729Y-11316484D01*
X14836729Y-11316484D02*
X14903396Y-11459341D01*
X14903396Y-11459341D02*
X14970062Y-11316484D01*
X14970062Y-11316484D02*
X14970062Y-11516484D01*
X15151015Y-11516484D02*
X15151015Y-11411722D01*
X15151015Y-11411722D02*
X15141491Y-11392674D01*
X15141491Y-11392674D02*
X15122443Y-11383150D01*
X15122443Y-11383150D02*
X15084348Y-11383150D01*
X15084348Y-11383150D02*
X15065301Y-11392674D01*
X15151015Y-11506960D02*
X15131967Y-11516484D01*
X15131967Y-11516484D02*
X15084348Y-11516484D01*
X15084348Y-11516484D02*
X15065301Y-11506960D01*
X15065301Y-11506960D02*
X15055777Y-11487912D01*
X15055777Y-11487912D02*
X15055777Y-11468865D01*
X15055777Y-11468865D02*
X15065301Y-11449817D01*
X15065301Y-11449817D02*
X15084348Y-11440293D01*
X15084348Y-11440293D02*
X15131967Y-11440293D01*
X15131967Y-11440293D02*
X15151015Y-11430769D01*
X15246253Y-11383150D02*
X15246253Y-11583150D01*
X15246253Y-11392674D02*
X15265301Y-11383150D01*
X15265301Y-11383150D02*
X15303396Y-11383150D01*
X15303396Y-11383150D02*
X15322443Y-11392674D01*
X15322443Y-11392674D02*
X15331967Y-11402198D01*
X15331967Y-11402198D02*
X15341491Y-11421246D01*
X15341491Y-11421246D02*
X15341491Y-11478388D01*
X15341491Y-11478388D02*
X15331967Y-11497436D01*
X15331967Y-11497436D02*
X15322443Y-11506960D01*
X15322443Y-11506960D02*
X15303396Y-11516484D01*
X15303396Y-11516484D02*
X15265301Y-11516484D01*
X15265301Y-11516484D02*
X15246253Y-11506960D01*
X15427205Y-11497436D02*
X15436729Y-11506960D01*
X15436729Y-11506960D02*
X15427205Y-11516484D01*
X15427205Y-11516484D02*
X15417682Y-11506960D01*
X15417682Y-11506960D02*
X15427205Y-11497436D01*
X15427205Y-11497436D02*
X15427205Y-11516484D01*
X15427205Y-11392674D02*
X15436729Y-11402198D01*
X15436729Y-11402198D02*
X15427205Y-11411722D01*
X15427205Y-11411722D02*
X15417682Y-11402198D01*
X15417682Y-11402198D02*
X15427205Y-11392674D01*
X15427205Y-11392674D02*
X15427205Y-11411722D01*
M02*
