%TF.GenerationSoftware,KiCad,Pcbnew,8.0.8*%
%TF.CreationDate,2025-03-02T22:10:18+01:00*%
%TF.ProjectId,RFM69HW Breakout,52464d36-3948-4572-9042-7265616b6f75,rev?*%
%TF.SameCoordinates,Original*%
%TF.FileFunction,Soldermask,Top*%
%TF.FilePolarity,Negative*%
%FSLAX46Y46*%
G04 Gerber Fmt 4.6, Leading zero omitted, Abs format (unit mm)*
G04 Created by KiCad (PCBNEW 8.0.8) date 2025-03-02 22:10:18*
%MOMM*%
%LPD*%
G01*
G04 APERTURE LIST*
G04 Aperture macros list*
%AMRoundRect*
0 Rectangle with rounded corners*
0 $1 Rounding radius*
0 $2 $3 $4 $5 $6 $7 $8 $9 X,Y pos of 4 corners*
0 Add a 4 corners polygon primitive as box body*
4,1,4,$2,$3,$4,$5,$6,$7,$8,$9,$2,$3,0*
0 Add four circle primitives for the rounded corners*
1,1,$1+$1,$2,$3*
1,1,$1+$1,$4,$5*
1,1,$1+$1,$6,$7*
1,1,$1+$1,$8,$9*
0 Add four rect primitives between the rounded corners*
20,1,$1+$1,$2,$3,$4,$5,0*
20,1,$1+$1,$4,$5,$6,$7,0*
20,1,$1+$1,$6,$7,$8,$9,0*
20,1,$1+$1,$8,$9,$2,$3,0*%
%AMFreePoly0*
4,1,19,0.500000,-0.750000,0.000000,-0.750000,0.000000,-0.744911,-0.071157,-0.744911,-0.207708,-0.704816,-0.327430,-0.627875,-0.420627,-0.520320,-0.479746,-0.390866,-0.500000,-0.250000,-0.500000,0.250000,-0.479746,0.390866,-0.420627,0.520320,-0.327430,0.627875,-0.207708,0.704816,-0.071157,0.744911,0.000000,0.744911,0.000000,0.750000,0.500000,0.750000,0.500000,-0.750000,0.500000,-0.750000,
$1*%
%AMFreePoly1*
4,1,19,0.000000,0.744911,0.071157,0.744911,0.207708,0.704816,0.327430,0.627875,0.420627,0.520320,0.479746,0.390866,0.500000,0.250000,0.500000,-0.250000,0.479746,-0.390866,0.420627,-0.520320,0.327430,-0.627875,0.207708,-0.704816,0.071157,-0.744911,0.000000,-0.744911,0.000000,-0.750000,-0.500000,-0.750000,-0.500000,0.750000,0.000000,0.750000,0.000000,0.744911,0.000000,0.744911,
$1*%
G04 Aperture macros list end*
%ADD10RoundRect,0.250000X0.337500X0.475000X-0.337500X0.475000X-0.337500X-0.475000X0.337500X-0.475000X0*%
%ADD11R,1.700000X1.700000*%
%ADD12O,1.700000X1.700000*%
%ADD13RoundRect,0.200100X0.949900X-0.949900X0.949900X0.949900X-0.949900X0.949900X-0.949900X-0.949900X0*%
%ADD14C,2.500000*%
%ADD15FreePoly0,0.000000*%
%ADD16FreePoly1,0.000000*%
%ADD17FreePoly0,270.000000*%
%ADD18FreePoly1,270.000000*%
%ADD19RoundRect,0.250000X-0.337500X-0.475000X0.337500X-0.475000X0.337500X0.475000X-0.337500X0.475000X0*%
%ADD20C,2.600000*%
%ADD21C,3.800000*%
%ADD22R,2.500000X1.000000*%
G04 APERTURE END LIST*
D10*
%TO.C,C1*%
X166137500Y-83980800D03*
X164062500Y-83980800D03*
%TD*%
D11*
%TO.C,J1*%
X153924000Y-107061000D03*
D12*
X151384000Y-107061000D03*
X148844000Y-107061000D03*
X146304000Y-107061000D03*
X143764000Y-107061000D03*
X141224000Y-107061000D03*
%TD*%
D13*
%TO.C,AE1*%
X142500000Y-88500000D03*
D14*
X139960000Y-91040000D03*
X145040000Y-91040000D03*
X139960000Y-85960000D03*
X145040000Y-85960000D03*
%TD*%
D15*
%TO.C,JP1*%
X144550000Y-100400000D03*
D16*
X145850000Y-100400000D03*
%TD*%
D17*
%TO.C,JP3*%
X169500000Y-102850000D03*
D18*
X169500000Y-104150000D03*
%TD*%
D17*
%TO.C,JP2*%
X165000000Y-102850000D03*
D18*
X165000000Y-104150000D03*
%TD*%
D19*
%TO.C,C2*%
X168888500Y-83980800D03*
X170963500Y-83980800D03*
%TD*%
D20*
%TO.C,H1*%
X174500000Y-108500000D03*
D21*
X174500000Y-108500000D03*
%TD*%
D11*
%TO.C,J2*%
X175000000Y-104100000D03*
D12*
X175000000Y-101560000D03*
X175000000Y-99020000D03*
X175000000Y-96480000D03*
X175000000Y-93940000D03*
X175000000Y-91400000D03*
X175000000Y-88860000D03*
X175000000Y-86320000D03*
%TD*%
D11*
%TO.C,J3*%
X159004000Y-107044000D03*
D12*
X159004000Y-109584000D03*
X161544000Y-107044000D03*
X161544000Y-109584000D03*
X164084000Y-107044000D03*
X164084000Y-109584000D03*
X166624000Y-107044000D03*
X166624000Y-109584000D03*
%TD*%
D22*
%TO.C,U1*%
X166901200Y-100445200D03*
X166901200Y-98445200D03*
X166901200Y-96445200D03*
X166901200Y-94445200D03*
X166901200Y-92445200D03*
X166901200Y-90445200D03*
X166901200Y-88445200D03*
X166901200Y-86445200D03*
X148701200Y-86445200D03*
X148701200Y-88445200D03*
X148701200Y-90445200D03*
X148701200Y-92445200D03*
X148701200Y-94445200D03*
X148701200Y-96445200D03*
X148701200Y-98445200D03*
X148701200Y-100445200D03*
%TD*%
M02*
