%TF.GenerationSoftware,KiCad,Pcbnew,8.0.8*%
%TF.CreationDate,2025-03-02T22:10:17+01:00*%
%TF.ProjectId,RFM69HW Breakout,52464d36-3948-4572-9042-7265616b6f75,rev?*%
%TF.SameCoordinates,Original*%
%TF.FileFunction,Copper,L2,Bot*%
%TF.FilePolarity,Positive*%
%FSLAX46Y46*%
G04 Gerber Fmt 4.6, Leading zero omitted, Abs format (unit mm)*
G04 Created by KiCad (PCBNEW 8.0.8) date 2025-03-02 22:10:17*
%MOMM*%
%LPD*%
G01*
G04 APERTURE LIST*
G04 Aperture macros list*
%AMRoundRect*
0 Rectangle with rounded corners*
0 $1 Rounding radius*
0 $2 $3 $4 $5 $6 $7 $8 $9 X,Y pos of 4 corners*
0 Add a 4 corners polygon primitive as box body*
4,1,4,$2,$3,$4,$5,$6,$7,$8,$9,$2,$3,0*
0 Add four circle primitives for the rounded corners*
1,1,$1+$1,$2,$3*
1,1,$1+$1,$4,$5*
1,1,$1+$1,$6,$7*
1,1,$1+$1,$8,$9*
0 Add four rect primitives between the rounded corners*
20,1,$1+$1,$2,$3,$4,$5,0*
20,1,$1+$1,$4,$5,$6,$7,0*
20,1,$1+$1,$6,$7,$8,$9,0*
20,1,$1+$1,$8,$9,$2,$3,0*%
G04 Aperture macros list end*
%TA.AperFunction,ComponentPad*%
%ADD10R,1.700000X1.700000*%
%TD*%
%TA.AperFunction,ComponentPad*%
%ADD11O,1.700000X1.700000*%
%TD*%
%TA.AperFunction,ComponentPad*%
%ADD12RoundRect,0.200100X0.949900X-0.949900X0.949900X0.949900X-0.949900X0.949900X-0.949900X-0.949900X0*%
%TD*%
%TA.AperFunction,ComponentPad*%
%ADD13C,2.500000*%
%TD*%
%TA.AperFunction,ComponentPad*%
%ADD14C,2.600000*%
%TD*%
%TA.AperFunction,ConnectorPad*%
%ADD15C,3.800000*%
%TD*%
%TA.AperFunction,SMDPad,CuDef*%
%ADD16RoundRect,0.500000X0.875000X0.500000X-0.875000X0.500000X-0.875000X-0.500000X0.875000X-0.500000X0*%
%TD*%
%TA.AperFunction,SMDPad,CuDef*%
%ADD17RoundRect,0.275000X-0.275000X0.975000X-0.275000X-0.975000X0.275000X-0.975000X0.275000X0.975000X0*%
%TD*%
%TA.AperFunction,SMDPad,CuDef*%
%ADD18C,1.700000*%
%TD*%
%TA.AperFunction,HeatsinkPad*%
%ADD19R,1.524000X1.524000*%
%TD*%
%TA.AperFunction,ViaPad*%
%ADD20C,0.600000*%
%TD*%
%TA.AperFunction,ViaPad*%
%ADD21C,0.700000*%
%TD*%
%TA.AperFunction,ViaPad*%
%ADD22C,0.500000*%
%TD*%
%TA.AperFunction,Conductor*%
%ADD23C,1.000000*%
%TD*%
%TA.AperFunction,Conductor*%
%ADD24C,0.500000*%
%TD*%
%TA.AperFunction,Conductor*%
%ADD25C,0.250000*%
%TD*%
G04 APERTURE END LIST*
D10*
%TO.P,J1,1,Pin_1*%
%TO.N,SCK*%
X153924000Y-107061000D03*
D11*
%TO.P,J1,2,Pin_2*%
%TO.N,MISO*%
X151384000Y-107061000D03*
%TO.P,J1,3,Pin_3*%
%TO.N,MOSI*%
X148844000Y-107061000D03*
%TO.P,J1,4,Pin_4*%
%TO.N,NSS*%
X146304000Y-107061000D03*
%TO.P,J1,5,Pin_5*%
%TO.N,GND*%
X143764000Y-107061000D03*
%TO.P,J1,6,Pin_6*%
%TO.N,+3.3V*%
X141224000Y-107061000D03*
%TD*%
D12*
%TO.P,AE1,1,A*%
%TO.N,Net-(AE1-A)*%
X142500000Y-88500000D03*
D13*
%TO.P,AE1,2,Shield*%
%TO.N,GND*%
X139960000Y-91040000D03*
X145040000Y-91040000D03*
X139960000Y-85960000D03*
X145040000Y-85960000D03*
%TD*%
D14*
%TO.P,H1,1,1*%
%TO.N,GND*%
X174500000Y-108500000D03*
D15*
X174500000Y-108500000D03*
%TD*%
D10*
%TO.P,J2,1,Pin_1*%
%TO.N,GND*%
X175000000Y-104100000D03*
D11*
%TO.P,J2,2,Pin_2*%
%TO.N,RST*%
X175000000Y-101560000D03*
%TO.P,J2,3,Pin_3*%
%TO.N,DIO0*%
X175000000Y-99020000D03*
%TO.P,J2,4,Pin_4*%
%TO.N,DIO1*%
X175000000Y-96480000D03*
%TO.P,J2,5,Pin_5*%
%TO.N,DIO2*%
X175000000Y-93940000D03*
%TO.P,J2,6,Pin_6*%
%TO.N,DIO3*%
X175000000Y-91400000D03*
%TO.P,J2,7,Pin_7*%
%TO.N,DIO4*%
X175000000Y-88860000D03*
%TO.P,J2,8,Pin_8*%
%TO.N,DIO5*%
X175000000Y-86320000D03*
%TD*%
D10*
%TO.P,J3,1,Pin_1*%
%TO.N,D0*%
X159004000Y-107044000D03*
D11*
%TO.P,J3,2,Pin_2*%
%TO.N,D1*%
X159004000Y-109584000D03*
%TO.P,J3,3,Pin_3*%
%TO.N,D2*%
X161544000Y-107044000D03*
%TO.P,J3,4,Pin_4*%
%TO.N,D3*%
X161544000Y-109584000D03*
%TO.P,J3,5,Pin_5*%
%TO.N,D4*%
X164084000Y-107044000D03*
%TO.P,J3,6,Pin_6*%
%TO.N,D5*%
X164084000Y-109584000D03*
%TO.P,J3,7,Pin_7*%
%TO.N,D6*%
X166624000Y-107044000D03*
%TO.P,J3,8,Pin_8*%
%TO.N,+5V*%
X166624000Y-109584000D03*
%TD*%
D16*
%TO.P,U2,1,GPIO0_A0_D0*%
%TO.N,D0*%
X166269600Y-86983500D03*
%TO.P,U2,2,GPIO1_A1_D1*%
%TO.N,D1*%
X166269600Y-89523500D03*
%TO.P,U2,3,GPIO2_A2_D2*%
%TO.N,D2*%
X166269600Y-92063500D03*
%TO.P,U2,4,GPIO21_D3*%
%TO.N,D3*%
X166269600Y-94603500D03*
%TO.P,U2,5,GPIO22_D4_SDA*%
%TO.N,D4*%
X166269600Y-97143500D03*
%TO.P,U2,6,GPIO23_D5_SCL*%
%TO.N,D5*%
X166269600Y-99683500D03*
%TO.P,U2,7,GPIO16_D6_TX*%
%TO.N,D6*%
X166269600Y-102223500D03*
%TO.P,U2,8,GPIO17_D7_RX*%
%TO.N,D7*%
X150104600Y-102223500D03*
%TO.P,U2,9,GPIO19_D8_SCK*%
%TO.N,SCK*%
X150104600Y-99683500D03*
%TO.P,U2,10,GPIO20_D9_MISO*%
%TO.N,MISO*%
X150104600Y-97143500D03*
%TO.P,U2,11,GPIO18_D10_MOSI*%
%TO.N,MOSI*%
X150104600Y-94603500D03*
%TO.P,U2,12,3V3*%
%TO.N,+3.3V*%
X150104600Y-92063500D03*
%TO.P,U2,13,GND*%
%TO.N,GND*%
X150104600Y-89523500D03*
%TO.P,U2,14,5V*%
%TO.N,+5V*%
X150104600Y-86983500D03*
D17*
%TO.P,U2,15,BAT*%
%TO.N,unconnected-(U2-BAT-Pad15)*%
X159258000Y-100135200D03*
%TO.P,U2,16,GND*%
%TO.N,GND*%
X157480000Y-100135200D03*
D18*
%TO.P,U2,17,MTDI*%
%TO.N,unconnected-(U2-MTDI-Pad17)*%
X159488000Y-85962000D03*
%TO.P,U2,18,MTDO*%
%TO.N,unconnected-(U2-MTDO-Pad18)*%
X156948000Y-85962000D03*
%TO.P,U2,19,CHIP_EN*%
%TO.N,unconnected-(U2-CHIP_EN-Pad19)*%
X159488000Y-88502000D03*
%TO.P,U2,20,GND*%
%TO.N,GND*%
X156948000Y-88502000D03*
%TO.P,U2,21,MTMS*%
%TO.N,unconnected-(U2-MTMS-Pad21)*%
X159488000Y-91042000D03*
%TO.P,U2,22,MTCK*%
%TO.N,unconnected-(U2-MTCK-Pad22)*%
X156948000Y-91042000D03*
%TO.P,U2,23,BOOT*%
%TO.N,unconnected-(U2-BOOT-Pad23)*%
X159488000Y-93582000D03*
%TO.P,U2,24,3V3_1*%
%TO.N,unconnected-(U2-3V3_1-Pad24)*%
X157040600Y-93525200D03*
D19*
%TO.P,U2,25,Thermal*%
%TO.N,GND*%
X154686000Y-96360000D03*
%TD*%
D20*
%TO.N,GND*%
X150100000Y-108400000D03*
D21*
X147400000Y-84400000D03*
X157200000Y-105400000D03*
X159700000Y-102700000D03*
X139800000Y-93600000D03*
X153600000Y-92600000D03*
X149300000Y-84400000D03*
X154000000Y-91600000D03*
X143000000Y-83600000D03*
X139800000Y-108800000D03*
X139800000Y-83600000D03*
X154600000Y-88400000D03*
D22*
X154266080Y-95957415D03*
D21*
X150400000Y-83400000D03*
X139800000Y-95200000D03*
X146200000Y-93600000D03*
X161400000Y-85600000D03*
D20*
X145000000Y-108400000D03*
D21*
X155100000Y-93600000D03*
X153200000Y-87200000D03*
X149300000Y-83400000D03*
X154600000Y-90600000D03*
X155600000Y-92600000D03*
D22*
X154266080Y-96757415D03*
D21*
X162400000Y-86600000D03*
X139800000Y-101900000D03*
X143000000Y-93600000D03*
X171000000Y-85900000D03*
X155000000Y-91600000D03*
X171200000Y-109500000D03*
X139800000Y-96800000D03*
X141400000Y-93600000D03*
X153600000Y-88400000D03*
X154200000Y-86000000D03*
X172100000Y-85900000D03*
X139800000Y-110500000D03*
X142494000Y-86000000D03*
X172100000Y-86900000D03*
X171200000Y-108500000D03*
X152600000Y-90600000D03*
X156900000Y-95600000D03*
X141400000Y-83600000D03*
X148400000Y-85000000D03*
X155100000Y-94600000D03*
X158400000Y-95600000D03*
X171200000Y-107500000D03*
X158600000Y-103200000D03*
D22*
X155066080Y-96757415D03*
D21*
X157500000Y-103200000D03*
X158600000Y-104300000D03*
X158400000Y-96900000D03*
X161400000Y-87600000D03*
X144600000Y-83600000D03*
X155200000Y-87232000D03*
X142494000Y-91200000D03*
X139800000Y-100200000D03*
X146200000Y-83600000D03*
X152600000Y-88400000D03*
X157000000Y-110500000D03*
X153000000Y-91600000D03*
X162400000Y-85600000D03*
X153200000Y-86000000D03*
X154600000Y-92600000D03*
X150400000Y-84400000D03*
X159700000Y-103800000D03*
X154200000Y-87200000D03*
X155900000Y-110500000D03*
X157500000Y-104300000D03*
D22*
X155066080Y-95957415D03*
D21*
X171200000Y-110500000D03*
X156900000Y-96900000D03*
X139800000Y-105100000D03*
X144600000Y-93600000D03*
X155200000Y-86010000D03*
X153600000Y-90600000D03*
X161400000Y-86600000D03*
X154100000Y-93600000D03*
D20*
X147600000Y-108400000D03*
D21*
X154100000Y-94600000D03*
X139800000Y-98500000D03*
X139800000Y-103500000D03*
%TO.N,+3.3V*%
X155000000Y-99000000D03*
%TO.N,MOSI*%
X146558000Y-96122000D03*
%TO.N,MISO*%
X145400000Y-95000000D03*
%TO.N,SCK*%
X153416000Y-100948000D03*
%TO.N,D7*%
X147600000Y-102200000D03*
%TD*%
D23*
%TO.N,GND*%
X155926500Y-89523500D02*
X156948000Y-88502000D01*
X150104600Y-89523500D02*
X155926500Y-89523500D01*
D24*
%TO.N,+3.3V*%
X155000000Y-99000000D02*
X154600000Y-99000000D01*
X155000000Y-99000000D02*
X155100000Y-99100000D01*
X154600000Y-99000000D02*
X152700000Y-97100000D01*
X142600000Y-109600000D02*
X141224000Y-108224000D01*
X154485000Y-109600000D02*
X142600000Y-109600000D01*
X141224000Y-108224000D02*
X141224000Y-107061000D01*
X155800000Y-108285000D02*
X154485000Y-109600000D01*
X152700000Y-93400000D02*
X151363500Y-92063500D01*
X152700000Y-97100000D02*
X152700000Y-93400000D01*
X155100000Y-99100000D02*
X155100000Y-102500000D01*
X155100000Y-102500000D02*
X155800000Y-103200000D01*
X155800000Y-103200000D02*
X155800000Y-108285000D01*
D23*
X151363500Y-92063500D02*
X150104600Y-92063500D01*
D25*
%TO.N,D0*%
X165816500Y-86983500D02*
X161200000Y-91600000D01*
X159004000Y-106596000D02*
X159004000Y-107044000D01*
X161200000Y-104400000D02*
X159004000Y-106596000D01*
X161200000Y-91600000D02*
X161200000Y-104400000D01*
X166269600Y-86983500D02*
X165816500Y-86983500D01*
%TO.N,D2*%
X166269600Y-92063500D02*
X165636500Y-92063500D01*
X165636500Y-92063500D02*
X162400000Y-95300000D01*
X162400000Y-105600000D02*
X161544000Y-106456000D01*
X162400000Y-95300000D02*
X162400000Y-105600000D01*
X161544000Y-106456000D02*
X161544000Y-107044000D01*
%TO.N,D4*%
X166269600Y-97143500D02*
X164894600Y-97143500D01*
X164894600Y-97143500D02*
X163600000Y-98438100D01*
X163600000Y-106560000D02*
X164084000Y-107044000D01*
X163600000Y-98438100D02*
X163600000Y-106560000D01*
%TO.N,D5*%
X165300000Y-104600000D02*
X165300000Y-108368000D01*
X165111100Y-100088900D02*
X164200000Y-101000000D01*
X164200000Y-103500000D02*
X165300000Y-104600000D01*
X165300000Y-100088900D02*
X165111100Y-100088900D01*
X165300000Y-108368000D02*
X164084000Y-109584000D01*
X164200000Y-101000000D02*
X164200000Y-103500000D01*
%TO.N,D6*%
X166400000Y-106820000D02*
X166624000Y-107044000D01*
X166269600Y-102223500D02*
X166400000Y-102353900D01*
D24*
X166400000Y-102353900D02*
X166400000Y-106820000D01*
D25*
%TO.N,D1*%
X161800000Y-93500000D02*
X161800000Y-104855000D01*
X161800000Y-104855000D02*
X160274000Y-106381000D01*
X160274000Y-108314000D02*
X159004000Y-109584000D01*
X165776500Y-89523500D02*
X161800000Y-93500000D01*
X166269600Y-89523500D02*
X165776500Y-89523500D01*
X160274000Y-106381000D02*
X160274000Y-108314000D01*
%TO.N,D3*%
X162800000Y-108328000D02*
X161544000Y-109584000D01*
X163000000Y-97000000D02*
X163000000Y-105900000D01*
X163000000Y-105900000D02*
X162800000Y-106100000D01*
X166269600Y-94603500D02*
X165396500Y-94603500D01*
X165396500Y-94603500D02*
X163000000Y-97000000D01*
X162800000Y-106100000D02*
X162800000Y-108328000D01*
D24*
%TO.N,MOSI*%
X148076500Y-94603500D02*
X150104600Y-94603500D01*
X146558000Y-96122000D02*
X148076500Y-94603500D01*
%TO.N,MISO*%
X145400000Y-95000000D02*
X145288000Y-95112000D01*
X145834000Y-97176000D02*
X150072100Y-97176000D01*
X150072100Y-97176000D02*
X150104600Y-97143500D01*
X145288000Y-95112000D02*
X145288000Y-96630000D01*
X145288000Y-96630000D02*
X145834000Y-97176000D01*
%TO.N,SCK*%
X153416000Y-100948000D02*
X152548000Y-100948000D01*
X151283500Y-99683500D02*
X150104600Y-99683500D01*
X152548000Y-100948000D02*
X151283500Y-99683500D01*
%TO.N,+5V*%
X166624000Y-109376000D02*
X166624000Y-109584000D01*
X166694000Y-84000000D02*
X171500000Y-88806000D01*
X153088100Y-84000000D02*
X166694000Y-84000000D01*
X150104600Y-86983500D02*
X153088100Y-84000000D01*
X171500000Y-104500000D02*
X166624000Y-109376000D01*
X171500000Y-88806000D02*
X171500000Y-104500000D01*
%TO.N,D7*%
X147600000Y-102200000D02*
X147623500Y-102223500D01*
X147623500Y-102223500D02*
X150104600Y-102223500D01*
%TD*%
%TA.AperFunction,Conductor*%
%TO.N,+3.3V*%
G36*
X155338334Y-98999966D02*
G01*
X155346597Y-99003417D01*
X155350000Y-99011666D01*
X155350000Y-99668409D01*
X155346573Y-99676682D01*
X155338300Y-99680109D01*
X154858562Y-99680109D01*
X154850289Y-99676682D01*
X154847410Y-99671949D01*
X154679883Y-99144150D01*
X154680647Y-99135227D01*
X154686526Y-99129814D01*
X154997826Y-98999907D01*
X155002357Y-98999006D01*
X155338334Y-98999966D01*
G37*
%TD.AperFunction*%
%TD*%
%TA.AperFunction,Conductor*%
%TO.N,D0*%
G36*
X159924648Y-105510567D02*
G01*
X160091264Y-105677183D01*
X160094691Y-105685456D01*
X160094564Y-105687173D01*
X160023209Y-106168206D01*
X160019910Y-106174762D01*
X160013534Y-106181138D01*
X159970683Y-106255357D01*
X159970284Y-106256848D01*
X159970283Y-106256847D01*
X159970283Y-106256851D01*
X159948500Y-106338144D01*
X159948500Y-106670995D01*
X159948373Y-106672712D01*
X159856003Y-107295412D01*
X159851400Y-107303093D01*
X159842713Y-107305268D01*
X159840960Y-107304869D01*
X159007934Y-107046148D01*
X159001050Y-107040422D01*
X158563587Y-106204501D01*
X158562788Y-106195584D01*
X158568529Y-106188712D01*
X158568588Y-106188681D01*
X159911090Y-105508402D01*
X159920015Y-105507721D01*
X159924648Y-105510567D01*
G37*
%TD.AperFunction*%
%TD*%
%TA.AperFunction,Conductor*%
%TO.N,D2*%
G36*
X162281990Y-105554845D02*
G01*
X162448318Y-105721173D01*
X162451745Y-105729446D01*
X162451734Y-105729960D01*
X162394491Y-107032823D01*
X162390704Y-107040937D01*
X162382812Y-107044009D01*
X161548153Y-107044702D01*
X161539877Y-107041282D01*
X161539860Y-107041265D01*
X160952990Y-106453013D01*
X160949573Y-106444736D01*
X160953010Y-106436467D01*
X160954741Y-106435043D01*
X162267195Y-105553405D01*
X162275971Y-105551637D01*
X162281990Y-105554845D01*
G37*
%TD.AperFunction*%
%TD*%
%TA.AperFunction,Conductor*%
%TO.N,D6*%
G36*
X166651480Y-105391983D02*
G01*
X166653368Y-105394456D01*
X167402723Y-106707202D01*
X167403848Y-106716086D01*
X167398362Y-106723163D01*
X167397051Y-106723807D01*
X166628489Y-107043134D01*
X166619534Y-107043143D01*
X166619511Y-107043134D01*
X165847866Y-106722526D01*
X165841541Y-106716187D01*
X165840963Y-106709057D01*
X166147886Y-105397590D01*
X166153108Y-105390315D01*
X166159278Y-105388556D01*
X166643207Y-105388556D01*
X166651480Y-105391983D01*
G37*
%TD.AperFunction*%
%TD*%
%TA.AperFunction,Conductor*%
%TO.N,MISO*%
G36*
X145402174Y-94999907D02*
G01*
X145713260Y-95129725D01*
X145719574Y-95136073D01*
X145719827Y-95144297D01*
X145540701Y-95669797D01*
X145534788Y-95676522D01*
X145529627Y-95677722D01*
X145049909Y-95677722D01*
X145041636Y-95674295D01*
X145038209Y-95666022D01*
X145038211Y-95665815D01*
X145049797Y-95011460D01*
X145053370Y-95003249D01*
X145061461Y-94999967D01*
X145397641Y-94999006D01*
X145402174Y-94999907D01*
G37*
%TD.AperFunction*%
%TD*%
%TA.AperFunction,Conductor*%
%TO.N,+5V*%
G36*
X167530841Y-108128052D02*
G01*
X167873090Y-108470301D01*
X167876517Y-108478574D01*
X167875938Y-108482210D01*
X167413220Y-109897286D01*
X167407391Y-109904085D01*
X167398463Y-109904771D01*
X167397633Y-109904464D01*
X166627785Y-109586562D01*
X166621447Y-109580238D01*
X166302706Y-108808357D01*
X166302715Y-108799404D01*
X166307863Y-108793653D01*
X167516913Y-108126082D01*
X167525812Y-108125084D01*
X167530841Y-108128052D01*
G37*
%TD.AperFunction*%
%TD*%
%TA.AperFunction,Conductor*%
%TO.N,D3*%
G36*
X162659690Y-108296460D02*
G01*
X162662897Y-108298734D01*
X162829265Y-108465102D01*
X162832692Y-108473375D01*
X162832031Y-108477251D01*
X162333388Y-109897629D01*
X162327415Y-109904300D01*
X162318473Y-109904792D01*
X162317883Y-109904567D01*
X161547785Y-109586562D01*
X161541447Y-109580238D01*
X161223432Y-108810115D01*
X161223441Y-108801161D01*
X161229780Y-108794836D01*
X161230345Y-108794620D01*
X162650748Y-108295968D01*
X162659690Y-108296460D01*
G37*
%TD.AperFunction*%
%TD*%
%TA.AperFunction,Conductor*%
%TO.N,+3.3V*%
G36*
X154570075Y-98611577D02*
G01*
X154989362Y-98649049D01*
X154997298Y-98653199D01*
X155000021Y-98660679D01*
X155000702Y-98998349D01*
X154999800Y-99002879D01*
X154871070Y-99311353D01*
X154864721Y-99317668D01*
X154855766Y-99317645D01*
X154854652Y-99317109D01*
X154224782Y-98972142D01*
X154219172Y-98965162D01*
X154220140Y-98956260D01*
X154222126Y-98953610D01*
X154560778Y-98614958D01*
X154569050Y-98611532D01*
X154570075Y-98611577D01*
G37*
%TD.AperFunction*%
%TD*%
%TA.AperFunction,Conductor*%
%TO.N,D1*%
G36*
X160119690Y-108296460D02*
G01*
X160122897Y-108298734D01*
X160289265Y-108465102D01*
X160292692Y-108473375D01*
X160292031Y-108477251D01*
X159793388Y-109897629D01*
X159787415Y-109904300D01*
X159778473Y-109904792D01*
X159777883Y-109904567D01*
X159007785Y-109586562D01*
X159001447Y-109580238D01*
X158683432Y-108810115D01*
X158683441Y-108801161D01*
X158689780Y-108794836D01*
X158690345Y-108794620D01*
X160110748Y-108295968D01*
X160119690Y-108296460D01*
G37*
%TD.AperFunction*%
%TD*%
%TA.AperFunction,Conductor*%
%TO.N,GND*%
G36*
X144014000Y-108391633D02*
G01*
X144227483Y-108334433D01*
X144227492Y-108334429D01*
X144441578Y-108234600D01*
X144635082Y-108099105D01*
X144802105Y-107932082D01*
X144932119Y-107746405D01*
X144986696Y-107702781D01*
X145056195Y-107695588D01*
X145118549Y-107727110D01*
X145135269Y-107746405D01*
X145265505Y-107932401D01*
X145432599Y-108099495D01*
X145511076Y-108154445D01*
X145626165Y-108235032D01*
X145626167Y-108235033D01*
X145626170Y-108235035D01*
X145840337Y-108334903D01*
X145840343Y-108334904D01*
X145840344Y-108334905D01*
X145895285Y-108349626D01*
X146068592Y-108396063D01*
X146245034Y-108411500D01*
X146303999Y-108416659D01*
X146304000Y-108416659D01*
X146304001Y-108416659D01*
X146362966Y-108411500D01*
X146539408Y-108396063D01*
X146767663Y-108334903D01*
X146981830Y-108235035D01*
X147175401Y-108099495D01*
X147342495Y-107932401D01*
X147472425Y-107746842D01*
X147527002Y-107703217D01*
X147596500Y-107696023D01*
X147658855Y-107727546D01*
X147675575Y-107746842D01*
X147805500Y-107932395D01*
X147805505Y-107932401D01*
X147972599Y-108099495D01*
X148051076Y-108154445D01*
X148166165Y-108235032D01*
X148166167Y-108235033D01*
X148166170Y-108235035D01*
X148380337Y-108334903D01*
X148380343Y-108334904D01*
X148380344Y-108334905D01*
X148435285Y-108349626D01*
X148608592Y-108396063D01*
X148785034Y-108411500D01*
X148843999Y-108416659D01*
X148844000Y-108416659D01*
X148844001Y-108416659D01*
X148902966Y-108411500D01*
X149079408Y-108396063D01*
X149307663Y-108334903D01*
X149521830Y-108235035D01*
X149715401Y-108099495D01*
X149882495Y-107932401D01*
X150012425Y-107746842D01*
X150067002Y-107703217D01*
X150136500Y-107696023D01*
X150198855Y-107727546D01*
X150215575Y-107746842D01*
X150345500Y-107932395D01*
X150345505Y-107932401D01*
X150512599Y-108099495D01*
X150591076Y-108154445D01*
X150706165Y-108235032D01*
X150706167Y-108235033D01*
X150706170Y-108235035D01*
X150920337Y-108334903D01*
X150920343Y-108334904D01*
X150920344Y-108334905D01*
X150975285Y-108349626D01*
X151148592Y-108396063D01*
X151325034Y-108411500D01*
X151383999Y-108416659D01*
X151384000Y-108416659D01*
X151384001Y-108416659D01*
X151442966Y-108411500D01*
X151619408Y-108396063D01*
X151847663Y-108334903D01*
X152061830Y-108235035D01*
X152255401Y-108099495D01*
X152377329Y-107977566D01*
X152438648Y-107944084D01*
X152508340Y-107949068D01*
X152564274Y-107990939D01*
X152581189Y-108021917D01*
X152630202Y-108153328D01*
X152630206Y-108153335D01*
X152716452Y-108268544D01*
X152716455Y-108268547D01*
X152831664Y-108354793D01*
X152831671Y-108354797D01*
X152966517Y-108405091D01*
X152966516Y-108405091D01*
X152973444Y-108405835D01*
X153026127Y-108411500D01*
X154312770Y-108411499D01*
X154379809Y-108431184D01*
X154425564Y-108483987D01*
X154435508Y-108553146D01*
X154406483Y-108616702D01*
X154400451Y-108623180D01*
X154210451Y-108813181D01*
X154149128Y-108846666D01*
X154122770Y-108849500D01*
X142962230Y-108849500D01*
X142895191Y-108829815D01*
X142874549Y-108813181D01*
X142215813Y-108154445D01*
X142182328Y-108093122D01*
X142187312Y-108023430D01*
X142215813Y-107979083D01*
X142236024Y-107958872D01*
X142262495Y-107932401D01*
X142392730Y-107746405D01*
X142447307Y-107702781D01*
X142516805Y-107695587D01*
X142579160Y-107727110D01*
X142595879Y-107746405D01*
X142725890Y-107932078D01*
X142892917Y-108099105D01*
X143086421Y-108234600D01*
X143300507Y-108334429D01*
X143300516Y-108334433D01*
X143514000Y-108391634D01*
X143514000Y-107494012D01*
X143571007Y-107526925D01*
X143698174Y-107561000D01*
X143829826Y-107561000D01*
X143956993Y-107526925D01*
X144014000Y-107494012D01*
X144014000Y-108391633D01*
G37*
%TD.AperFunction*%
%TA.AperFunction,Conductor*%
G36*
X166398809Y-84770185D02*
G01*
X166419451Y-84786819D01*
X166903951Y-85271319D01*
X166937436Y-85332642D01*
X166932452Y-85402334D01*
X166890580Y-85458267D01*
X166825116Y-85482684D01*
X166816270Y-85483000D01*
X165336571Y-85483000D01*
X165336565Y-85483000D01*
X165336564Y-85483001D01*
X165324916Y-85484036D01*
X165217184Y-85493613D01*
X165021554Y-85549589D01*
X164931372Y-85596696D01*
X164841193Y-85643802D01*
X164841191Y-85643803D01*
X164841190Y-85643804D01*
X164683490Y-85772390D01*
X164554904Y-85930090D01*
X164554902Y-85930093D01*
X164539280Y-85960000D01*
X164460689Y-86110454D01*
X164404714Y-86306083D01*
X164404713Y-86306086D01*
X164394100Y-86425466D01*
X164394100Y-87469947D01*
X164374415Y-87536986D01*
X164357781Y-87557628D01*
X161034084Y-90881324D01*
X160972761Y-90914809D01*
X160903069Y-90909825D01*
X160847136Y-90867953D01*
X160825624Y-90811634D01*
X160824002Y-90811921D01*
X160823063Y-90806596D01*
X160823063Y-90806592D01*
X160761903Y-90578337D01*
X160662035Y-90364171D01*
X160660169Y-90361505D01*
X160526494Y-90170597D01*
X160359402Y-90003506D01*
X160359396Y-90003501D01*
X160173842Y-89873575D01*
X160130217Y-89818998D01*
X160123023Y-89749500D01*
X160154546Y-89687145D01*
X160173842Y-89670425D01*
X160288913Y-89589851D01*
X160359401Y-89540495D01*
X160526495Y-89373401D01*
X160662035Y-89179830D01*
X160761903Y-88965663D01*
X160823063Y-88737408D01*
X160843659Y-88502000D01*
X160823063Y-88266592D01*
X160761903Y-88038337D01*
X160662035Y-87824171D01*
X160660169Y-87821505D01*
X160526494Y-87630597D01*
X160359402Y-87463506D01*
X160359396Y-87463501D01*
X160173842Y-87333575D01*
X160130217Y-87278998D01*
X160123023Y-87209500D01*
X160154546Y-87147145D01*
X160173842Y-87130425D01*
X160317796Y-87029627D01*
X160359401Y-87000495D01*
X160526495Y-86833401D01*
X160662035Y-86639830D01*
X160761903Y-86425663D01*
X160823063Y-86197408D01*
X160843659Y-85962000D01*
X160823063Y-85726592D01*
X160761903Y-85498337D01*
X160662035Y-85284171D01*
X160660168Y-85281505D01*
X160526496Y-85090600D01*
X160481990Y-85046094D01*
X160398075Y-84962179D01*
X160364592Y-84900859D01*
X160369576Y-84831167D01*
X160411447Y-84775233D01*
X160476911Y-84750816D01*
X160485758Y-84750500D01*
X166331770Y-84750500D01*
X166398809Y-84770185D01*
G37*
%TD.AperFunction*%
%TA.AperFunction,Conductor*%
G36*
X176004418Y-82500816D02*
G01*
X176204561Y-82515130D01*
X176222063Y-82517647D01*
X176413797Y-82559355D01*
X176430755Y-82564334D01*
X176614609Y-82632909D01*
X176630701Y-82640259D01*
X176802904Y-82734288D01*
X176817784Y-82743849D01*
X176974867Y-82861441D01*
X176988237Y-82873027D01*
X177126972Y-83011762D01*
X177138558Y-83025132D01*
X177256146Y-83182210D01*
X177265711Y-83197095D01*
X177359740Y-83369298D01*
X177367090Y-83385390D01*
X177435662Y-83569236D01*
X177440646Y-83586212D01*
X177482351Y-83777931D01*
X177484869Y-83795442D01*
X177499184Y-83995580D01*
X177499500Y-84004427D01*
X177499500Y-109995572D01*
X177499184Y-110004419D01*
X177484869Y-110204557D01*
X177482351Y-110222068D01*
X177440646Y-110413787D01*
X177435662Y-110430763D01*
X177367090Y-110614609D01*
X177359740Y-110630701D01*
X177265711Y-110802904D01*
X177256146Y-110817789D01*
X177138558Y-110974867D01*
X177126972Y-110988237D01*
X176988237Y-111126972D01*
X176974867Y-111138558D01*
X176817789Y-111256146D01*
X176802904Y-111265711D01*
X176630701Y-111359740D01*
X176614609Y-111367090D01*
X176430763Y-111435662D01*
X176413787Y-111440646D01*
X176222068Y-111482351D01*
X176204557Y-111484869D01*
X176023779Y-111497799D01*
X176004417Y-111499184D01*
X175995572Y-111499500D01*
X140004428Y-111499500D01*
X139995582Y-111499184D01*
X139973622Y-111497613D01*
X139795442Y-111484869D01*
X139777931Y-111482351D01*
X139586212Y-111440646D01*
X139569236Y-111435662D01*
X139385390Y-111367090D01*
X139369298Y-111359740D01*
X139197095Y-111265711D01*
X139182210Y-111256146D01*
X139025132Y-111138558D01*
X139011762Y-111126972D01*
X138873027Y-110988237D01*
X138861441Y-110974867D01*
X138743849Y-110817784D01*
X138734288Y-110802904D01*
X138640259Y-110630701D01*
X138632909Y-110614609D01*
X138601499Y-110530397D01*
X138564334Y-110430755D01*
X138559355Y-110413797D01*
X138517647Y-110222063D01*
X138515130Y-110204556D01*
X138513585Y-110182957D01*
X138500816Y-110004418D01*
X138500500Y-109995572D01*
X138500500Y-107060999D01*
X139868341Y-107060999D01*
X139868341Y-107061000D01*
X139888936Y-107296403D01*
X139888938Y-107296413D01*
X139950094Y-107524655D01*
X139950096Y-107524659D01*
X139950097Y-107524663D01*
X140029801Y-107695588D01*
X140049965Y-107738830D01*
X140049967Y-107738834D01*
X140158281Y-107893521D01*
X140185504Y-107932400D01*
X140185506Y-107932402D01*
X140352595Y-108099492D01*
X140352598Y-108099494D01*
X140352599Y-108099495D01*
X140420623Y-108147125D01*
X140464248Y-108201701D01*
X140473500Y-108248700D01*
X140473500Y-108297918D01*
X140473500Y-108297920D01*
X140473499Y-108297920D01*
X140502340Y-108442907D01*
X140502343Y-108442917D01*
X140558914Y-108579492D01*
X140558915Y-108579494D01*
X140558916Y-108579495D01*
X140588105Y-108623180D01*
X140591812Y-108628727D01*
X140591813Y-108628730D01*
X140641046Y-108702414D01*
X140641052Y-108702421D01*
X142121584Y-110182952D01*
X142121590Y-110182957D01*
X142153919Y-110204557D01*
X142179693Y-110221778D01*
X142179695Y-110221779D01*
X142179698Y-110221782D01*
X142179699Y-110221782D01*
X142244505Y-110265084D01*
X142244507Y-110265085D01*
X142244511Y-110265087D01*
X142381082Y-110321656D01*
X142381087Y-110321658D01*
X142381091Y-110321658D01*
X142381092Y-110321659D01*
X142526079Y-110350500D01*
X142526082Y-110350500D01*
X154558920Y-110350500D01*
X154656462Y-110331096D01*
X154703913Y-110321658D01*
X154840495Y-110265084D01*
X154905301Y-110221782D01*
X154963416Y-110182952D01*
X156382952Y-108763416D01*
X156454389Y-108656501D01*
X156465084Y-108640495D01*
X156521658Y-108503913D01*
X156540346Y-108409965D01*
X156550500Y-108358920D01*
X156550500Y-103126079D01*
X156521659Y-102981092D01*
X156521658Y-102981091D01*
X156521658Y-102981087D01*
X156521656Y-102981082D01*
X156465087Y-102844511D01*
X156465080Y-102844498D01*
X156382952Y-102721585D01*
X156346096Y-102684729D01*
X156278416Y-102617049D01*
X155886819Y-102225451D01*
X155853334Y-102164128D01*
X155850500Y-102137770D01*
X155850500Y-100831648D01*
X156430000Y-100831648D01*
X157126447Y-100135200D01*
X157126447Y-100135199D01*
X156430000Y-99438751D01*
X156430000Y-100831648D01*
X155850500Y-100831648D01*
X155850500Y-99712054D01*
X155851762Y-99694408D01*
X155854326Y-99676573D01*
X155855500Y-99668409D01*
X155855500Y-99011666D01*
X155855358Y-99008981D01*
X155855185Y-99002438D01*
X155855185Y-99000010D01*
X155855184Y-99000005D01*
X155855185Y-99000000D01*
X155854910Y-98997393D01*
X155854408Y-98991025D01*
X155852681Y-98958351D01*
X155851677Y-98954395D01*
X155848548Y-98936861D01*
X155836497Y-98822197D01*
X155832813Y-98810860D01*
X156509211Y-98810860D01*
X157569094Y-99870743D01*
X157602579Y-99932066D01*
X157597595Y-100001758D01*
X157569095Y-100046105D01*
X157480000Y-100135200D01*
X157569094Y-100224294D01*
X157602579Y-100285617D01*
X157597595Y-100355309D01*
X157569094Y-100399656D01*
X156509212Y-101459538D01*
X156595246Y-101596462D01*
X156718737Y-101719953D01*
X156866613Y-101812869D01*
X157031460Y-101870551D01*
X157161469Y-101885199D01*
X157161473Y-101885200D01*
X157798527Y-101885200D01*
X157798530Y-101885199D01*
X157928539Y-101870551D01*
X158093386Y-101812869D01*
X158241262Y-101719953D01*
X158280964Y-101680251D01*
X158342287Y-101646765D01*
X158411978Y-101651749D01*
X158456327Y-101680250D01*
X158496424Y-101720347D01*
X158644394Y-101813322D01*
X158809343Y-101871041D01*
X158809349Y-101871041D01*
X158809351Y-101871042D01*
X158850750Y-101875706D01*
X158939442Y-101885699D01*
X158939445Y-101885700D01*
X158939448Y-101885700D01*
X159576555Y-101885700D01*
X159576556Y-101885699D01*
X159706657Y-101871041D01*
X159871606Y-101813322D01*
X160019576Y-101720347D01*
X160143147Y-101596776D01*
X160236122Y-101448806D01*
X160293841Y-101283857D01*
X160308500Y-101153752D01*
X160308500Y-99116648D01*
X160296043Y-99006083D01*
X160293842Y-98986551D01*
X160293841Y-98986549D01*
X160293841Y-98986543D01*
X160236122Y-98821594D01*
X160143147Y-98673624D01*
X160019576Y-98550053D01*
X159871606Y-98457078D01*
X159871605Y-98457077D01*
X159871604Y-98457077D01*
X159706658Y-98399359D01*
X159706648Y-98399357D01*
X159576558Y-98384700D01*
X159576552Y-98384700D01*
X158939448Y-98384700D01*
X158939441Y-98384700D01*
X158809351Y-98399357D01*
X158809341Y-98399359D01*
X158644395Y-98457077D01*
X158496423Y-98550053D01*
X158456326Y-98590150D01*
X158395003Y-98623635D01*
X158325311Y-98618649D01*
X158280965Y-98590149D01*
X158241262Y-98550446D01*
X158093386Y-98457530D01*
X157928539Y-98399848D01*
X157798530Y-98385200D01*
X157161469Y-98385200D01*
X157031460Y-98399848D01*
X156866613Y-98457530D01*
X156718737Y-98550446D01*
X156595245Y-98673938D01*
X156509211Y-98810860D01*
X155832813Y-98810860D01*
X155788325Y-98673938D01*
X155781252Y-98652170D01*
X155781249Y-98652164D01*
X155691859Y-98497335D01*
X155628948Y-98427465D01*
X155572235Y-98364478D01*
X155572232Y-98364476D01*
X155572231Y-98364475D01*
X155572230Y-98364474D01*
X155427593Y-98259388D01*
X155264267Y-98186671D01*
X155264265Y-98186670D01*
X155136594Y-98159533D01*
X155089391Y-98149500D01*
X155089390Y-98149500D01*
X155065504Y-98149500D01*
X155037003Y-98146180D01*
X155034360Y-98145556D01*
X155034356Y-98145555D01*
X154829424Y-98127240D01*
X154764403Y-98101666D01*
X154752781Y-98091413D01*
X154447365Y-97785997D01*
X154413880Y-97724674D01*
X154418864Y-97654982D01*
X154436000Y-97628318D01*
X154436000Y-97622000D01*
X154936000Y-97622000D01*
X155495828Y-97622000D01*
X155495844Y-97621999D01*
X155555372Y-97615598D01*
X155555379Y-97615596D01*
X155690086Y-97565354D01*
X155690093Y-97565350D01*
X155805187Y-97479190D01*
X155805190Y-97479187D01*
X155891350Y-97364093D01*
X155891354Y-97364086D01*
X155941596Y-97229379D01*
X155941598Y-97229372D01*
X155947999Y-97169844D01*
X155948000Y-97169827D01*
X155948000Y-96610000D01*
X154936000Y-96610000D01*
X154936000Y-97622000D01*
X154436000Y-97622000D01*
X154436000Y-96110000D01*
X154936000Y-96110000D01*
X155948000Y-96110000D01*
X155948000Y-95550172D01*
X155947999Y-95550155D01*
X155941598Y-95490627D01*
X155941596Y-95490620D01*
X155891354Y-95355913D01*
X155891350Y-95355906D01*
X155805190Y-95240812D01*
X155805187Y-95240809D01*
X155690093Y-95154649D01*
X155690086Y-95154645D01*
X155555379Y-95104403D01*
X155555372Y-95104401D01*
X155495844Y-95098000D01*
X154936000Y-95098000D01*
X154936000Y-96110000D01*
X154436000Y-96110000D01*
X154436000Y-95098000D01*
X153876155Y-95098000D01*
X153816627Y-95104401D01*
X153816620Y-95104403D01*
X153681913Y-95154645D01*
X153681911Y-95154646D01*
X153648810Y-95179426D01*
X153583345Y-95203842D01*
X153515073Y-95188990D01*
X153465667Y-95139584D01*
X153450500Y-95080158D01*
X153450500Y-93326079D01*
X153421659Y-93181092D01*
X153421658Y-93181091D01*
X153421658Y-93181087D01*
X153375064Y-93068599D01*
X153365087Y-93044511D01*
X153365080Y-93044498D01*
X153282952Y-92921585D01*
X153262868Y-92901501D01*
X153178416Y-92817049D01*
X152798353Y-92436986D01*
X152399489Y-92038121D01*
X152366004Y-91976798D01*
X152364668Y-91968315D01*
X152325552Y-91771670D01*
X152325551Y-91771669D01*
X152325551Y-91771665D01*
X152304082Y-91719834D01*
X152250135Y-91589592D01*
X152250128Y-91589579D01*
X152140639Y-91425718D01*
X152140636Y-91425714D01*
X152001285Y-91286363D01*
X152001281Y-91286360D01*
X151964505Y-91261787D01*
X151919700Y-91208175D01*
X151914180Y-91192797D01*
X151913509Y-91190452D01*
X151913509Y-91190451D01*
X151819298Y-91010093D01*
X151706261Y-90871464D01*
X151679152Y-90807068D01*
X151691161Y-90738238D01*
X151706262Y-90714741D01*
X151818878Y-90576630D01*
X151913042Y-90396361D01*
X151968990Y-90200828D01*
X151968991Y-90200825D01*
X151979599Y-90081500D01*
X151979600Y-90081498D01*
X151979600Y-88965502D01*
X151979599Y-88965499D01*
X151968991Y-88846174D01*
X151968990Y-88846171D01*
X151913042Y-88650638D01*
X151835399Y-88501998D01*
X155592843Y-88501998D01*
X155592843Y-88502001D01*
X155613430Y-88737315D01*
X155613432Y-88737326D01*
X155674566Y-88965483D01*
X155674570Y-88965492D01*
X155774398Y-89179576D01*
X155833073Y-89263372D01*
X156594446Y-88502000D01*
X156594446Y-88501999D01*
X155833073Y-87740626D01*
X155833073Y-87740627D01*
X155774400Y-87824421D01*
X155774399Y-87824423D01*
X155674570Y-88038507D01*
X155674566Y-88038516D01*
X155613432Y-88266673D01*
X155613430Y-88266684D01*
X155592843Y-88501998D01*
X151835399Y-88501998D01*
X151818878Y-88470370D01*
X151706261Y-88332257D01*
X151679152Y-88267861D01*
X151691161Y-88199031D01*
X151706258Y-88175539D01*
X151819298Y-88036907D01*
X151913509Y-87856549D01*
X151969486Y-87660918D01*
X151980100Y-87541537D01*
X151980099Y-86425464D01*
X151969486Y-86306082D01*
X151961511Y-86278211D01*
X151961994Y-86208345D01*
X151993044Y-86156422D01*
X153362648Y-84786819D01*
X153423971Y-84753334D01*
X153450329Y-84750500D01*
X155950241Y-84750500D01*
X156017280Y-84770185D01*
X156063035Y-84822989D01*
X156072979Y-84892147D01*
X156043954Y-84955703D01*
X156037922Y-84962181D01*
X155909505Y-85090597D01*
X155773965Y-85284169D01*
X155773964Y-85284171D01*
X155674098Y-85498335D01*
X155674094Y-85498344D01*
X155612938Y-85726586D01*
X155612936Y-85726596D01*
X155592341Y-85961999D01*
X155592341Y-85962000D01*
X155612936Y-86197403D01*
X155612938Y-86197413D01*
X155674094Y-86425655D01*
X155674096Y-86425659D01*
X155674097Y-86425663D01*
X155678000Y-86434032D01*
X155773965Y-86639830D01*
X155773967Y-86639834D01*
X155831099Y-86721426D01*
X155909505Y-86833401D01*
X156076599Y-87000495D01*
X156147684Y-87050269D01*
X156262595Y-87130731D01*
X156306219Y-87185308D01*
X156313412Y-87254807D01*
X156281890Y-87317161D01*
X156262594Y-87333881D01*
X156186627Y-87387073D01*
X156186626Y-87387073D01*
X156948000Y-88148446D01*
X156948001Y-88148446D01*
X157709372Y-87387073D01*
X157709372Y-87387072D01*
X157633405Y-87333879D01*
X157589780Y-87279302D01*
X157582588Y-87209804D01*
X157614110Y-87147449D01*
X157633406Y-87130730D01*
X157777796Y-87029627D01*
X157819401Y-87000495D01*
X157986495Y-86833401D01*
X158116425Y-86647842D01*
X158171002Y-86604217D01*
X158240500Y-86597023D01*
X158302855Y-86628546D01*
X158319575Y-86647842D01*
X158449501Y-86833396D01*
X158449506Y-86833402D01*
X158616597Y-87000493D01*
X158616603Y-87000498D01*
X158802158Y-87130425D01*
X158845783Y-87185002D01*
X158852977Y-87254500D01*
X158821454Y-87316855D01*
X158802158Y-87333575D01*
X158616597Y-87463505D01*
X158449508Y-87630594D01*
X158319269Y-87816595D01*
X158264692Y-87860219D01*
X158195193Y-87867412D01*
X158132839Y-87835890D01*
X158116119Y-87816595D01*
X158062925Y-87740626D01*
X157301554Y-88501999D01*
X157301554Y-88502000D01*
X158062925Y-89263371D01*
X158116120Y-89187404D01*
X158170697Y-89143780D01*
X158240196Y-89136588D01*
X158302550Y-89168111D01*
X158319268Y-89187404D01*
X158449505Y-89373401D01*
X158449506Y-89373402D01*
X158616597Y-89540493D01*
X158616603Y-89540498D01*
X158802158Y-89670425D01*
X158845783Y-89725002D01*
X158852977Y-89794500D01*
X158821454Y-89856855D01*
X158802158Y-89873575D01*
X158616597Y-90003505D01*
X158449505Y-90170597D01*
X158319575Y-90356158D01*
X158264998Y-90399783D01*
X158195500Y-90406977D01*
X158133145Y-90375454D01*
X158116425Y-90356158D01*
X157986494Y-90170597D01*
X157819402Y-90003506D01*
X157819401Y-90003505D01*
X157633405Y-89873269D01*
X157589781Y-89818692D01*
X157582588Y-89749193D01*
X157614110Y-89686839D01*
X157633404Y-89670120D01*
X157709371Y-89616925D01*
X156948000Y-88855554D01*
X156186627Y-89616925D01*
X156262595Y-89670119D01*
X156306219Y-89724696D01*
X156313412Y-89794195D01*
X156281890Y-89856549D01*
X156262595Y-89873269D01*
X156076594Y-90003508D01*
X155909505Y-90170597D01*
X155773965Y-90364169D01*
X155773964Y-90364171D01*
X155697291Y-90528597D01*
X155674894Y-90576629D01*
X155674098Y-90578335D01*
X155674094Y-90578344D01*
X155612938Y-90806586D01*
X155612936Y-90806596D01*
X155592341Y-91041999D01*
X155592341Y-91042000D01*
X155612936Y-91277403D01*
X155612938Y-91277413D01*
X155674094Y-91505655D01*
X155674096Y-91505659D01*
X155674097Y-91505663D01*
X155678000Y-91514032D01*
X155773965Y-91719830D01*
X155773967Y-91719834D01*
X155823441Y-91790489D01*
X155909501Y-91913396D01*
X155909506Y-91913402D01*
X156076597Y-92080493D01*
X156076603Y-92080498D01*
X156267898Y-92214444D01*
X156311523Y-92269021D01*
X156318717Y-92338519D01*
X156287194Y-92400874D01*
X156267899Y-92417593D01*
X156169198Y-92486704D01*
X156002105Y-92653797D01*
X155866565Y-92847369D01*
X155866564Y-92847371D01*
X155766698Y-93061535D01*
X155766694Y-93061544D01*
X155705538Y-93289786D01*
X155705536Y-93289796D01*
X155684941Y-93525199D01*
X155684941Y-93525200D01*
X155705536Y-93760603D01*
X155705538Y-93760613D01*
X155766694Y-93988855D01*
X155766696Y-93988859D01*
X155766697Y-93988863D01*
X155848765Y-94164857D01*
X155866565Y-94203030D01*
X155866567Y-94203034D01*
X155974881Y-94357721D01*
X156002105Y-94396601D01*
X156169199Y-94563695D01*
X156250315Y-94620493D01*
X156362765Y-94699232D01*
X156362767Y-94699233D01*
X156362770Y-94699235D01*
X156576937Y-94799103D01*
X156805192Y-94860263D01*
X156993518Y-94876739D01*
X157040599Y-94880859D01*
X157040600Y-94880859D01*
X157040601Y-94880859D01*
X157079834Y-94877426D01*
X157276008Y-94860263D01*
X157504263Y-94799103D01*
X157718430Y-94699235D01*
X157912001Y-94563695D01*
X158079095Y-94396601D01*
X158142840Y-94305563D01*
X158197414Y-94261940D01*
X158266912Y-94254746D01*
X158329267Y-94286268D01*
X158345988Y-94305564D01*
X158378559Y-94352080D01*
X158449505Y-94453401D01*
X158616599Y-94620495D01*
X158661836Y-94652170D01*
X158810165Y-94756032D01*
X158810167Y-94756033D01*
X158810170Y-94756035D01*
X159024337Y-94855903D01*
X159252592Y-94917063D01*
X159440918Y-94933539D01*
X159487999Y-94937659D01*
X159488000Y-94937659D01*
X159488001Y-94937659D01*
X159527234Y-94934226D01*
X159723408Y-94917063D01*
X159951663Y-94855903D01*
X160165830Y-94756035D01*
X160359401Y-94620495D01*
X160362819Y-94617077D01*
X160424142Y-94583592D01*
X160493834Y-94588576D01*
X160549767Y-94630448D01*
X160574184Y-94695912D01*
X160574500Y-94704758D01*
X160574500Y-104089547D01*
X160554815Y-104156586D01*
X160538181Y-104177228D01*
X159646558Y-105068850D01*
X159614926Y-105091779D01*
X158453880Y-105680110D01*
X158397831Y-105693500D01*
X158106130Y-105693500D01*
X158106123Y-105693501D01*
X158046516Y-105699908D01*
X157911671Y-105750202D01*
X157911664Y-105750206D01*
X157796455Y-105836452D01*
X157796452Y-105836455D01*
X157710206Y-105951664D01*
X157710202Y-105951671D01*
X157659908Y-106086517D01*
X157653501Y-106146116D01*
X157653500Y-106146135D01*
X157653500Y-107941870D01*
X157653501Y-107941876D01*
X157659908Y-108001483D01*
X157710202Y-108136328D01*
X157710206Y-108136335D01*
X157796452Y-108251544D01*
X157796455Y-108251547D01*
X157911664Y-108337793D01*
X157911671Y-108337797D01*
X158043081Y-108386810D01*
X158099015Y-108428681D01*
X158123432Y-108494145D01*
X158108580Y-108562418D01*
X158087430Y-108590673D01*
X157965503Y-108712600D01*
X157829965Y-108906169D01*
X157829964Y-108906171D01*
X157730098Y-109120335D01*
X157730094Y-109120344D01*
X157668938Y-109348586D01*
X157668936Y-109348596D01*
X157648341Y-109583999D01*
X157648341Y-109584000D01*
X157668936Y-109819403D01*
X157668938Y-109819413D01*
X157730094Y-110047655D01*
X157730095Y-110047657D01*
X157730097Y-110047663D01*
X157793186Y-110182957D01*
X157829965Y-110261830D01*
X157829967Y-110261834D01*
X157892052Y-110350500D01*
X157965505Y-110455401D01*
X158132599Y-110622495D01*
X158229384Y-110690265D01*
X158326165Y-110758032D01*
X158326167Y-110758033D01*
X158326170Y-110758035D01*
X158540337Y-110857903D01*
X158768592Y-110919063D01*
X158956918Y-110935539D01*
X159003999Y-110939659D01*
X159004000Y-110939659D01*
X159004001Y-110939659D01*
X159043234Y-110936226D01*
X159239408Y-110919063D01*
X159467663Y-110857903D01*
X159681830Y-110758035D01*
X159875401Y-110622495D01*
X160042495Y-110455401D01*
X160172425Y-110269842D01*
X160227002Y-110226217D01*
X160296500Y-110219023D01*
X160358855Y-110250546D01*
X160375575Y-110269842D01*
X160505500Y-110455395D01*
X160505505Y-110455401D01*
X160672599Y-110622495D01*
X160769384Y-110690265D01*
X160866165Y-110758032D01*
X160866167Y-110758033D01*
X160866170Y-110758035D01*
X161080337Y-110857903D01*
X161308592Y-110919063D01*
X161496918Y-110935539D01*
X161543999Y-110939659D01*
X161544000Y-110939659D01*
X161544001Y-110939659D01*
X161583234Y-110936226D01*
X161779408Y-110919063D01*
X162007663Y-110857903D01*
X162221830Y-110758035D01*
X162415401Y-110622495D01*
X162582495Y-110455401D01*
X162712425Y-110269842D01*
X162767002Y-110226217D01*
X162836500Y-110219023D01*
X162898855Y-110250546D01*
X162915575Y-110269842D01*
X163045500Y-110455395D01*
X163045505Y-110455401D01*
X163212599Y-110622495D01*
X163309384Y-110690265D01*
X163406165Y-110758032D01*
X163406167Y-110758033D01*
X163406170Y-110758035D01*
X163620337Y-110857903D01*
X163848592Y-110919063D01*
X164036918Y-110935539D01*
X164083999Y-110939659D01*
X164084000Y-110939659D01*
X164084001Y-110939659D01*
X164123234Y-110936226D01*
X164319408Y-110919063D01*
X164547663Y-110857903D01*
X164761830Y-110758035D01*
X164955401Y-110622495D01*
X165122495Y-110455401D01*
X165252425Y-110269842D01*
X165307002Y-110226217D01*
X165376500Y-110219023D01*
X165438855Y-110250546D01*
X165455575Y-110269842D01*
X165585500Y-110455395D01*
X165585505Y-110455401D01*
X165752599Y-110622495D01*
X165849384Y-110690265D01*
X165946165Y-110758032D01*
X165946167Y-110758033D01*
X165946170Y-110758035D01*
X166160337Y-110857903D01*
X166388592Y-110919063D01*
X166576918Y-110935539D01*
X166623999Y-110939659D01*
X166624000Y-110939659D01*
X166624001Y-110939659D01*
X166663234Y-110936226D01*
X166859408Y-110919063D01*
X167087663Y-110857903D01*
X167301830Y-110758035D01*
X167495401Y-110622495D01*
X167662495Y-110455401D01*
X167798035Y-110261830D01*
X167897903Y-110047663D01*
X167906183Y-110016760D01*
X167908099Y-110010313D01*
X168315294Y-108765033D01*
X168345470Y-108715895D01*
X168561371Y-108499994D01*
X172095255Y-108499994D01*
X172095255Y-108500005D01*
X172114215Y-108801383D01*
X172114216Y-108801390D01*
X172170805Y-109098040D01*
X172264125Y-109385247D01*
X172264127Y-109385252D01*
X172392704Y-109658491D01*
X172392707Y-109658497D01*
X172554516Y-109913469D01*
X172635311Y-110011133D01*
X173563708Y-109082736D01*
X173660967Y-109216602D01*
X173783398Y-109339033D01*
X173917262Y-109436290D01*
X172986564Y-110366987D01*
X172986565Y-110366989D01*
X173211461Y-110530385D01*
X173211479Y-110530397D01*
X173476109Y-110675878D01*
X173476117Y-110675882D01*
X173756889Y-110787047D01*
X173756892Y-110787048D01*
X174049399Y-110862150D01*
X174348995Y-110899999D01*
X174349007Y-110900000D01*
X174650993Y-110900000D01*
X174651004Y-110899999D01*
X174950600Y-110862150D01*
X175243107Y-110787048D01*
X175243110Y-110787047D01*
X175523882Y-110675882D01*
X175523890Y-110675878D01*
X175788520Y-110530397D01*
X175788530Y-110530390D01*
X176013433Y-110366987D01*
X176013434Y-110366987D01*
X175082737Y-109436290D01*
X175216602Y-109339033D01*
X175339033Y-109216602D01*
X175436290Y-109082737D01*
X176364687Y-110011134D01*
X176445486Y-109913464D01*
X176607292Y-109658497D01*
X176607295Y-109658491D01*
X176735872Y-109385252D01*
X176735874Y-109385247D01*
X176829194Y-109098040D01*
X176885783Y-108801390D01*
X176885784Y-108801383D01*
X176904745Y-108500005D01*
X176904745Y-108499994D01*
X176885784Y-108198616D01*
X176885783Y-108198609D01*
X176829194Y-107901959D01*
X176735874Y-107614752D01*
X176735872Y-107614747D01*
X176607295Y-107341508D01*
X176607292Y-107341502D01*
X176445483Y-107086530D01*
X176364686Y-106988864D01*
X175436289Y-107917261D01*
X175339033Y-107783398D01*
X175216602Y-107660967D01*
X175082736Y-107563709D01*
X176013434Y-106633011D01*
X176013433Y-106633009D01*
X175788538Y-106469614D01*
X175788520Y-106469602D01*
X175523890Y-106324121D01*
X175523882Y-106324117D01*
X175243110Y-106212952D01*
X175243107Y-106212951D01*
X174950600Y-106137849D01*
X174651004Y-106100000D01*
X174348995Y-106100000D01*
X174049399Y-106137849D01*
X173756892Y-106212951D01*
X173756889Y-106212952D01*
X173476117Y-106324117D01*
X173476109Y-106324121D01*
X173211476Y-106469604D01*
X173211471Y-106469607D01*
X172986565Y-106633010D01*
X172986564Y-106633011D01*
X173917262Y-107563709D01*
X173783398Y-107660967D01*
X173660967Y-107783398D01*
X173563709Y-107917262D01*
X172635311Y-106988864D01*
X172554520Y-107086525D01*
X172554518Y-107086528D01*
X172392707Y-107341502D01*
X172392704Y-107341508D01*
X172264127Y-107614747D01*
X172264125Y-107614752D01*
X172170805Y-107901959D01*
X172114216Y-108198609D01*
X172114215Y-108198616D01*
X172095255Y-108499994D01*
X168561371Y-108499994D01*
X172082951Y-104978416D01*
X172165084Y-104855495D01*
X172221658Y-104718913D01*
X172250500Y-104573918D01*
X172250500Y-104426083D01*
X172250500Y-88732082D01*
X172250500Y-88732079D01*
X172221659Y-88587092D01*
X172221658Y-88587091D01*
X172221658Y-88587087D01*
X172221656Y-88587082D01*
X172165087Y-88450511D01*
X172165080Y-88450498D01*
X172082952Y-88327585D01*
X172064128Y-88308761D01*
X171978416Y-88223049D01*
X170784994Y-87029627D01*
X170075366Y-86319999D01*
X173644341Y-86319999D01*
X173644341Y-86320000D01*
X173664936Y-86555403D01*
X173664938Y-86555413D01*
X173726094Y-86783655D01*
X173726096Y-86783659D01*
X173726097Y-86783663D01*
X173783391Y-86906530D01*
X173825965Y-86997830D01*
X173825967Y-86997834D01*
X173862683Y-87050269D01*
X173957024Y-87185002D01*
X173961501Y-87191395D01*
X173961506Y-87191402D01*
X174128597Y-87358493D01*
X174128603Y-87358498D01*
X174314158Y-87488425D01*
X174357783Y-87543002D01*
X174364977Y-87612500D01*
X174333454Y-87674855D01*
X174314158Y-87691575D01*
X174128597Y-87821505D01*
X173961505Y-87988597D01*
X173825965Y-88182169D01*
X173825964Y-88182171D01*
X173726098Y-88396335D01*
X173726094Y-88396344D01*
X173664938Y-88624586D01*
X173664936Y-88624596D01*
X173644341Y-88859999D01*
X173644341Y-88860000D01*
X173664936Y-89095403D01*
X173664938Y-89095413D01*
X173726094Y-89323655D01*
X173726096Y-89323659D01*
X173726097Y-89323663D01*
X173811370Y-89506530D01*
X173825965Y-89537830D01*
X173825967Y-89537834D01*
X173918809Y-89670425D01*
X173957024Y-89725002D01*
X173961501Y-89731395D01*
X173961506Y-89731402D01*
X174128597Y-89898493D01*
X174128603Y-89898498D01*
X174314158Y-90028425D01*
X174357783Y-90083002D01*
X174364977Y-90152500D01*
X174333454Y-90214855D01*
X174314158Y-90231575D01*
X174128597Y-90361505D01*
X173961505Y-90528597D01*
X173825965Y-90722169D01*
X173825964Y-90722171D01*
X173726098Y-90936335D01*
X173726094Y-90936344D01*
X173664938Y-91164586D01*
X173664936Y-91164596D01*
X173644341Y-91399999D01*
X173644341Y-91400000D01*
X173664936Y-91635403D01*
X173664938Y-91635413D01*
X173726094Y-91863655D01*
X173726096Y-91863659D01*
X173726097Y-91863663D01*
X173807448Y-92038121D01*
X173825965Y-92077830D01*
X173825967Y-92077834D01*
X173887930Y-92166325D01*
X173957024Y-92265002D01*
X173961501Y-92271395D01*
X173961506Y-92271402D01*
X174128597Y-92438493D01*
X174128603Y-92438498D01*
X174314158Y-92568425D01*
X174357783Y-92623002D01*
X174364977Y-92692500D01*
X174333454Y-92754855D01*
X174314158Y-92771575D01*
X174128597Y-92901505D01*
X173961505Y-93068597D01*
X173825965Y-93262169D01*
X173825964Y-93262171D01*
X173726098Y-93476335D01*
X173726094Y-93476344D01*
X173664938Y-93704586D01*
X173664936Y-93704596D01*
X173644341Y-93939999D01*
X173644341Y-93940000D01*
X173664936Y-94175403D01*
X173664938Y-94175413D01*
X173726094Y-94403655D01*
X173726096Y-94403659D01*
X173726097Y-94403663D01*
X173800721Y-94563695D01*
X173825965Y-94617830D01*
X173825967Y-94617834D01*
X173922737Y-94756035D01*
X173952892Y-94799101D01*
X173961501Y-94811395D01*
X173961506Y-94811402D01*
X174128597Y-94978493D01*
X174128603Y-94978498D01*
X174314158Y-95108425D01*
X174357783Y-95163002D01*
X174364977Y-95232500D01*
X174333454Y-95294855D01*
X174314158Y-95311575D01*
X174128597Y-95441505D01*
X173961505Y-95608597D01*
X173825965Y-95802169D01*
X173825964Y-95802171D01*
X173726098Y-96016335D01*
X173726094Y-96016344D01*
X173664938Y-96244586D01*
X173664936Y-96244596D01*
X173644341Y-96479999D01*
X173644341Y-96480000D01*
X173664936Y-96715403D01*
X173664938Y-96715413D01*
X173726094Y-96943655D01*
X173726096Y-96943659D01*
X173726097Y-96943663D01*
X173802922Y-97108414D01*
X173825965Y-97157830D01*
X173825967Y-97157834D01*
X173961501Y-97351395D01*
X173961506Y-97351402D01*
X174128597Y-97518493D01*
X174128603Y-97518498D01*
X174314158Y-97648425D01*
X174357783Y-97703002D01*
X174364977Y-97772500D01*
X174333454Y-97834855D01*
X174314158Y-97851575D01*
X174128597Y-97981505D01*
X173961505Y-98148597D01*
X173825965Y-98342169D01*
X173825964Y-98342171D01*
X173726098Y-98556335D01*
X173726094Y-98556344D01*
X173664938Y-98784586D01*
X173664936Y-98784596D01*
X173644341Y-99019999D01*
X173644341Y-99020000D01*
X173664936Y-99255403D01*
X173664938Y-99255413D01*
X173726094Y-99483655D01*
X173726096Y-99483659D01*
X173726097Y-99483663D01*
X173794138Y-99629577D01*
X173825965Y-99697830D01*
X173825967Y-99697834D01*
X173961501Y-99891395D01*
X173961506Y-99891402D01*
X174128597Y-100058493D01*
X174128603Y-100058498D01*
X174314158Y-100188425D01*
X174357783Y-100243002D01*
X174364977Y-100312500D01*
X174333454Y-100374855D01*
X174314158Y-100391575D01*
X174128597Y-100521505D01*
X173961505Y-100688597D01*
X173825965Y-100882169D01*
X173825964Y-100882171D01*
X173726098Y-101096335D01*
X173726094Y-101096344D01*
X173664938Y-101324586D01*
X173664936Y-101324596D01*
X173644341Y-101559999D01*
X173644341Y-101560000D01*
X173664936Y-101795403D01*
X173664938Y-101795413D01*
X173726094Y-102023655D01*
X173726096Y-102023659D01*
X173726097Y-102023663D01*
X173779306Y-102137770D01*
X173825965Y-102237830D01*
X173825967Y-102237834D01*
X173923975Y-102377803D01*
X173961501Y-102431396D01*
X173961506Y-102431402D01*
X174083818Y-102553714D01*
X174117303Y-102615037D01*
X174112319Y-102684729D01*
X174070447Y-102740662D01*
X174039471Y-102757577D01*
X173907912Y-102806646D01*
X173907906Y-102806649D01*
X173792812Y-102892809D01*
X173792809Y-102892812D01*
X173706649Y-103007906D01*
X173706645Y-103007913D01*
X173656403Y-103142620D01*
X173656401Y-103142627D01*
X173650000Y-103202155D01*
X173650000Y-103850000D01*
X174566988Y-103850000D01*
X174534075Y-103907007D01*
X174500000Y-104034174D01*
X174500000Y-104165826D01*
X174534075Y-104292993D01*
X174566988Y-104350000D01*
X173650000Y-104350000D01*
X173650000Y-104997844D01*
X173656401Y-105057372D01*
X173656403Y-105057379D01*
X173706645Y-105192086D01*
X173706649Y-105192093D01*
X173792809Y-105307187D01*
X173792812Y-105307190D01*
X173907906Y-105393350D01*
X173907913Y-105393354D01*
X174042620Y-105443596D01*
X174042627Y-105443598D01*
X174102155Y-105449999D01*
X174102172Y-105450000D01*
X174750000Y-105450000D01*
X174750000Y-104533012D01*
X174807007Y-104565925D01*
X174934174Y-104600000D01*
X175065826Y-104600000D01*
X175192993Y-104565925D01*
X175250000Y-104533012D01*
X175250000Y-105450000D01*
X175897828Y-105450000D01*
X175897844Y-105449999D01*
X175957372Y-105443598D01*
X175957379Y-105443596D01*
X176092086Y-105393354D01*
X176092093Y-105393350D01*
X176207187Y-105307190D01*
X176207190Y-105307187D01*
X176293350Y-105192093D01*
X176293354Y-105192086D01*
X176343596Y-105057379D01*
X176343598Y-105057372D01*
X176349999Y-104997844D01*
X176350000Y-104997827D01*
X176350000Y-104350000D01*
X175433012Y-104350000D01*
X175465925Y-104292993D01*
X175500000Y-104165826D01*
X175500000Y-104034174D01*
X175465925Y-103907007D01*
X175433012Y-103850000D01*
X176350000Y-103850000D01*
X176350000Y-103202172D01*
X176349999Y-103202155D01*
X176343598Y-103142627D01*
X176343596Y-103142620D01*
X176293354Y-103007913D01*
X176293350Y-103007906D01*
X176207190Y-102892812D01*
X176207187Y-102892809D01*
X176092093Y-102806649D01*
X176092088Y-102806646D01*
X175960528Y-102757577D01*
X175904595Y-102715705D01*
X175880178Y-102650241D01*
X175895030Y-102581968D01*
X175916175Y-102553720D01*
X176038495Y-102431401D01*
X176174035Y-102237830D01*
X176273903Y-102023663D01*
X176335063Y-101795408D01*
X176355659Y-101560000D01*
X176354441Y-101546084D01*
X176349964Y-101494904D01*
X176335063Y-101324592D01*
X176273903Y-101096337D01*
X176174035Y-100882171D01*
X176169112Y-100875139D01*
X176038494Y-100688597D01*
X175871402Y-100521506D01*
X175871396Y-100521501D01*
X175685842Y-100391575D01*
X175642217Y-100336998D01*
X175635023Y-100267500D01*
X175666546Y-100205145D01*
X175685842Y-100188425D01*
X175803361Y-100106137D01*
X175871401Y-100058495D01*
X176038495Y-99891401D01*
X176174035Y-99697830D01*
X176273903Y-99483663D01*
X176335063Y-99255408D01*
X176355659Y-99020000D01*
X176354441Y-99006084D01*
X176350265Y-98958351D01*
X176335063Y-98784592D01*
X176273903Y-98556337D01*
X176174035Y-98342171D01*
X176169112Y-98335139D01*
X176038494Y-98148597D01*
X175871402Y-97981506D01*
X175871396Y-97981501D01*
X175685842Y-97851575D01*
X175642217Y-97796998D01*
X175635023Y-97727500D01*
X175666546Y-97665145D01*
X175685842Y-97648425D01*
X175724783Y-97621158D01*
X175871401Y-97518495D01*
X176038495Y-97351401D01*
X176174035Y-97157830D01*
X176273903Y-96943663D01*
X176335063Y-96715408D01*
X176355659Y-96480000D01*
X176354441Y-96466084D01*
X176350769Y-96424113D01*
X176335063Y-96244592D01*
X176273903Y-96016337D01*
X176174035Y-95802171D01*
X176169112Y-95795139D01*
X176038494Y-95608597D01*
X175871402Y-95441506D01*
X175871396Y-95441501D01*
X175685842Y-95311575D01*
X175642217Y-95256998D01*
X175635023Y-95187500D01*
X175666546Y-95125145D01*
X175685842Y-95108425D01*
X175766516Y-95051936D01*
X175871401Y-94978495D01*
X176038495Y-94811401D01*
X176174035Y-94617830D01*
X176273903Y-94403663D01*
X176335063Y-94175408D01*
X176355659Y-93940000D01*
X176354441Y-93926084D01*
X176337326Y-93730456D01*
X176335063Y-93704592D01*
X176273903Y-93476337D01*
X176174035Y-93262171D01*
X176169112Y-93255139D01*
X176038494Y-93068597D01*
X175871402Y-92901506D01*
X175871396Y-92901501D01*
X175685842Y-92771575D01*
X175642217Y-92716998D01*
X175635023Y-92647500D01*
X175666546Y-92585145D01*
X175685842Y-92568425D01*
X175746030Y-92526281D01*
X175871401Y-92438495D01*
X176038495Y-92271401D01*
X176174035Y-92077830D01*
X176273903Y-91863663D01*
X176335063Y-91635408D01*
X176355659Y-91400000D01*
X176354441Y-91386084D01*
X176351539Y-91352918D01*
X176335063Y-91164592D01*
X176273903Y-90936337D01*
X176174035Y-90722171D01*
X176169112Y-90715139D01*
X176038494Y-90528597D01*
X175871402Y-90361506D01*
X175871396Y-90361501D01*
X175685842Y-90231575D01*
X175642217Y-90176998D01*
X175635023Y-90107500D01*
X175666546Y-90045145D01*
X175685842Y-90028425D01*
X175856328Y-89909049D01*
X175871401Y-89898495D01*
X176038495Y-89731401D01*
X176174035Y-89537830D01*
X176273903Y-89323663D01*
X176335063Y-89095408D01*
X176355659Y-88860000D01*
X176354441Y-88846084D01*
X176344467Y-88732079D01*
X176335063Y-88624592D01*
X176273903Y-88396337D01*
X176174035Y-88182171D01*
X176169389Y-88175535D01*
X176038494Y-87988597D01*
X175871402Y-87821506D01*
X175871396Y-87821501D01*
X175685842Y-87691575D01*
X175642217Y-87636998D01*
X175635023Y-87567500D01*
X175666546Y-87505145D01*
X175685842Y-87488425D01*
X175830587Y-87387073D01*
X175871401Y-87358495D01*
X176038495Y-87191401D01*
X176174035Y-86997830D01*
X176273903Y-86783663D01*
X176335063Y-86555408D01*
X176355659Y-86320000D01*
X176354441Y-86306084D01*
X176351539Y-86272918D01*
X176335063Y-86084592D01*
X176273903Y-85856337D01*
X176174035Y-85642171D01*
X176149021Y-85606446D01*
X176038494Y-85448597D01*
X175871402Y-85281506D01*
X175871395Y-85281501D01*
X175863764Y-85276158D01*
X175764626Y-85206740D01*
X175677834Y-85145967D01*
X175677830Y-85145965D01*
X175600703Y-85110000D01*
X175463663Y-85046097D01*
X175463659Y-85046096D01*
X175463655Y-85046094D01*
X175235413Y-84984938D01*
X175235403Y-84984936D01*
X175000001Y-84964341D01*
X174999999Y-84964341D01*
X174764596Y-84984936D01*
X174764586Y-84984938D01*
X174536344Y-85046094D01*
X174536335Y-85046098D01*
X174322171Y-85145964D01*
X174322169Y-85145965D01*
X174128597Y-85281505D01*
X173961505Y-85448597D01*
X173825965Y-85642169D01*
X173825964Y-85642171D01*
X173726098Y-85856335D01*
X173726094Y-85856344D01*
X173664938Y-86084586D01*
X173664936Y-86084596D01*
X173644341Y-86319999D01*
X170075366Y-86319999D01*
X167172421Y-83417052D01*
X167172414Y-83417046D01*
X167098729Y-83367812D01*
X167098729Y-83367813D01*
X167049491Y-83334913D01*
X166912917Y-83278343D01*
X166912907Y-83278340D01*
X166767920Y-83249500D01*
X166767918Y-83249500D01*
X153162017Y-83249500D01*
X153014182Y-83249500D01*
X153014180Y-83249500D01*
X152869192Y-83278340D01*
X152869182Y-83278343D01*
X152732611Y-83334912D01*
X152732598Y-83334919D01*
X152609684Y-83417048D01*
X152609680Y-83417051D01*
X150580050Y-85446681D01*
X150518727Y-85480166D01*
X150492369Y-85483000D01*
X149171571Y-85483000D01*
X149171565Y-85483000D01*
X149171564Y-85483001D01*
X149159916Y-85484036D01*
X149052184Y-85493613D01*
X148856554Y-85549589D01*
X148766372Y-85596696D01*
X148676193Y-85643802D01*
X148676191Y-85643803D01*
X148676190Y-85643804D01*
X148518490Y-85772390D01*
X148389904Y-85930090D01*
X148389902Y-85930093D01*
X148374280Y-85960000D01*
X148295689Y-86110454D01*
X148239714Y-86306083D01*
X148239713Y-86306086D01*
X148229100Y-86425466D01*
X148229100Y-87541528D01*
X148229100Y-87541533D01*
X148229101Y-87541536D01*
X148231171Y-87564830D01*
X148239713Y-87660915D01*
X148295689Y-87856545D01*
X148295690Y-87856548D01*
X148295691Y-87856549D01*
X148389902Y-88036907D01*
X148391068Y-88038337D01*
X148502938Y-88175535D01*
X148530047Y-88239932D01*
X148518038Y-88308761D01*
X148502938Y-88332257D01*
X148390321Y-88470370D01*
X148296157Y-88650638D01*
X148240209Y-88846171D01*
X148240208Y-88846174D01*
X148229600Y-88965499D01*
X148229600Y-90081500D01*
X148240208Y-90200825D01*
X148240209Y-90200828D01*
X148296157Y-90396361D01*
X148390321Y-90576629D01*
X148502938Y-90714742D01*
X148530047Y-90779138D01*
X148518038Y-90847968D01*
X148502938Y-90871463D01*
X148389905Y-91010087D01*
X148295689Y-91190454D01*
X148239714Y-91386083D01*
X148239713Y-91386086D01*
X148229100Y-91505466D01*
X148229100Y-92621528D01*
X148229101Y-92621534D01*
X148239713Y-92740915D01*
X148295689Y-92936545D01*
X148295690Y-92936548D01*
X148295691Y-92936549D01*
X148389902Y-93116907D01*
X148389904Y-93116909D01*
X148502615Y-93255139D01*
X148529724Y-93319536D01*
X148517715Y-93388365D01*
X148502615Y-93411861D01*
X148389904Y-93550090D01*
X148295688Y-93730456D01*
X148286344Y-93763113D01*
X148248976Y-93822151D01*
X148185622Y-93851613D01*
X148167129Y-93853000D01*
X148002580Y-93853000D01*
X147857592Y-93881840D01*
X147857582Y-93881843D01*
X147721011Y-93938412D01*
X147720998Y-93938419D01*
X147598084Y-94020548D01*
X147598080Y-94020551D01*
X146578671Y-95039959D01*
X146565390Y-95051478D01*
X146450203Y-95137868D01*
X146384761Y-95162344D01*
X146316474Y-95147554D01*
X146267024Y-95098193D01*
X146252111Y-95029933D01*
X146252483Y-95025703D01*
X146255185Y-95000002D01*
X146252925Y-94978498D01*
X146236497Y-94822197D01*
X146196543Y-94699232D01*
X146181252Y-94652170D01*
X146181249Y-94652164D01*
X146091859Y-94497335D01*
X146045003Y-94445296D01*
X145972235Y-94364478D01*
X145972232Y-94364476D01*
X145972231Y-94364475D01*
X145972230Y-94364474D01*
X145827593Y-94259388D01*
X145664267Y-94186671D01*
X145664265Y-94186670D01*
X145536594Y-94159533D01*
X145489391Y-94149500D01*
X145310609Y-94149500D01*
X145279954Y-94156015D01*
X145135733Y-94186670D01*
X145135728Y-94186672D01*
X144972408Y-94259387D01*
X144827768Y-94364475D01*
X144708140Y-94497336D01*
X144618750Y-94652164D01*
X144618747Y-94652170D01*
X144563504Y-94822192D01*
X144563504Y-94822193D01*
X144563503Y-94822197D01*
X144553532Y-94917061D01*
X144545235Y-94995998D01*
X144544325Y-95002825D01*
X144543867Y-95005658D01*
X144543074Y-95010056D01*
X144537500Y-95038081D01*
X144537500Y-95389732D01*
X144537481Y-95391927D01*
X144532790Y-95656864D01*
X144532732Y-95661127D01*
X144535606Y-95720062D01*
X144536119Y-95723466D01*
X144537500Y-95741923D01*
X144537500Y-96703918D01*
X144537500Y-96703920D01*
X144537499Y-96703920D01*
X144566340Y-96848907D01*
X144566343Y-96848917D01*
X144622912Y-96985488D01*
X144622920Y-96985502D01*
X144650034Y-97026080D01*
X144650035Y-97026083D01*
X144705046Y-97108414D01*
X144705052Y-97108421D01*
X145355581Y-97758949D01*
X145355584Y-97758951D01*
X145355585Y-97758952D01*
X145370623Y-97769000D01*
X145478505Y-97841084D01*
X145478506Y-97841084D01*
X145478507Y-97841085D01*
X145535079Y-97864518D01*
X145535080Y-97864518D01*
X145615088Y-97897659D01*
X145731241Y-97920763D01*
X145750468Y-97924587D01*
X145760081Y-97926500D01*
X145760082Y-97926500D01*
X145760083Y-97926500D01*
X145907918Y-97926500D01*
X148176429Y-97926500D01*
X148243468Y-97946185D01*
X148289223Y-97998989D01*
X148295645Y-98016389D01*
X148295689Y-98016545D01*
X148389902Y-98196907D01*
X148502615Y-98335139D01*
X148529724Y-98399536D01*
X148517715Y-98468365D01*
X148502615Y-98491861D01*
X148395168Y-98623635D01*
X148389902Y-98630093D01*
X148354854Y-98697190D01*
X148295689Y-98810454D01*
X148253371Y-98958354D01*
X148241452Y-99000010D01*
X148239714Y-99006083D01*
X148239713Y-99006086D01*
X148232207Y-99090516D01*
X148229885Y-99116641D01*
X148229100Y-99125466D01*
X148229100Y-100241528D01*
X148229101Y-100241534D01*
X148239713Y-100360915D01*
X148295689Y-100556545D01*
X148295690Y-100556548D01*
X148295691Y-100556549D01*
X148389902Y-100736907D01*
X148451038Y-100811885D01*
X148502615Y-100875139D01*
X148529724Y-100939536D01*
X148517715Y-101008365D01*
X148502615Y-101031861D01*
X148389904Y-101170090D01*
X148295685Y-101350462D01*
X148293356Y-101356294D01*
X148291404Y-101355514D01*
X148259190Y-101406374D01*
X148195826Y-101435816D01*
X148155688Y-101435286D01*
X147776300Y-101367901D01*
X147772212Y-101367103D01*
X147759697Y-101364443D01*
X147689395Y-101349500D01*
X147689391Y-101349500D01*
X147670494Y-101349500D01*
X147659485Y-101349010D01*
X147656588Y-101348751D01*
X147656569Y-101348751D01*
X147559414Y-101349496D01*
X147558463Y-101349500D01*
X147510609Y-101349500D01*
X147482315Y-101355514D01*
X147335733Y-101386670D01*
X147335728Y-101386672D01*
X147172408Y-101459387D01*
X147027768Y-101564475D01*
X146908140Y-101697336D01*
X146818750Y-101852164D01*
X146818747Y-101852170D01*
X146763504Y-102022192D01*
X146763503Y-102022194D01*
X146744815Y-102200000D01*
X146763503Y-102377805D01*
X146763504Y-102377807D01*
X146818747Y-102547829D01*
X146818750Y-102547835D01*
X146908141Y-102702665D01*
X146925176Y-102721584D01*
X147027764Y-102835521D01*
X147027767Y-102835523D01*
X147027770Y-102835526D01*
X147172407Y-102940612D01*
X147335733Y-103013329D01*
X147510609Y-103050500D01*
X147649782Y-103050500D01*
X147653900Y-103050568D01*
X147654416Y-103050585D01*
X147668224Y-103051044D01*
X147668237Y-103051042D01*
X147672650Y-103050875D01*
X147672651Y-103050901D01*
X147679971Y-103050500D01*
X147689388Y-103050500D01*
X147689391Y-103050500D01*
X147700755Y-103048084D01*
X147712938Y-103046124D01*
X148159923Y-102996946D01*
X148228711Y-103009181D01*
X148279967Y-103056664D01*
X148292697Y-103086088D01*
X148295689Y-103096544D01*
X148295690Y-103096545D01*
X148295691Y-103096549D01*
X148389902Y-103276907D01*
X148389904Y-103276909D01*
X148518490Y-103434609D01*
X148567472Y-103474548D01*
X148676193Y-103563198D01*
X148856551Y-103657409D01*
X149052182Y-103713386D01*
X149171563Y-103724000D01*
X151037636Y-103723999D01*
X151157018Y-103713386D01*
X151352649Y-103657409D01*
X151533007Y-103563198D01*
X151690709Y-103434609D01*
X151819298Y-103276907D01*
X151913509Y-103096549D01*
X151969486Y-102900918D01*
X151980100Y-102781537D01*
X151980099Y-101703145D01*
X151999783Y-101636107D01*
X152052587Y-101590352D01*
X152121746Y-101580408D01*
X152172988Y-101600043D01*
X152192505Y-101613084D01*
X152192508Y-101613085D01*
X152192509Y-101613086D01*
X152329082Y-101669656D01*
X152329087Y-101669658D01*
X152329091Y-101669658D01*
X152329092Y-101669659D01*
X152474079Y-101698500D01*
X152474082Y-101698500D01*
X152474083Y-101698500D01*
X152621917Y-101698500D01*
X152636262Y-101698500D01*
X152653798Y-101699746D01*
X152654553Y-101699853D01*
X152654557Y-101699855D01*
X153284628Y-101789863D01*
X153292837Y-101791321D01*
X153326609Y-101798500D01*
X153342960Y-101798500D01*
X153356233Y-101799212D01*
X153366005Y-101800265D01*
X153367627Y-101800383D01*
X153367640Y-101800382D01*
X153367644Y-101800383D01*
X153462929Y-101798875D01*
X153468632Y-101798500D01*
X153505389Y-101798500D01*
X153505391Y-101798500D01*
X153680267Y-101761329D01*
X153843593Y-101688612D01*
X153988230Y-101583526D01*
X153991038Y-101580408D01*
X154035568Y-101530952D01*
X154107859Y-101450665D01*
X154118112Y-101432905D01*
X154168678Y-101384690D01*
X154237284Y-101371465D01*
X154302150Y-101397432D01*
X154342679Y-101454345D01*
X154349500Y-101494904D01*
X154349500Y-102573918D01*
X154349500Y-102573920D01*
X154349499Y-102573920D01*
X154378340Y-102718907D01*
X154378343Y-102718917D01*
X154434913Y-102855490D01*
X154434914Y-102855492D01*
X154463676Y-102898537D01*
X154463677Y-102898539D01*
X154517045Y-102978414D01*
X154517049Y-102978418D01*
X155013181Y-103474548D01*
X155046666Y-103535871D01*
X155049500Y-103562229D01*
X155049500Y-105600981D01*
X155029815Y-105668020D01*
X154977011Y-105713775D01*
X154907853Y-105723719D01*
X154882179Y-105717167D01*
X154881491Y-105716910D01*
X154881483Y-105716908D01*
X154821883Y-105710501D01*
X154821881Y-105710500D01*
X154821873Y-105710500D01*
X154821864Y-105710500D01*
X153026129Y-105710500D01*
X153026123Y-105710501D01*
X152966516Y-105716908D01*
X152831671Y-105767202D01*
X152831664Y-105767206D01*
X152716455Y-105853452D01*
X152716452Y-105853455D01*
X152630206Y-105968664D01*
X152630203Y-105968669D01*
X152581189Y-106100083D01*
X152539317Y-106156016D01*
X152473853Y-106180433D01*
X152405580Y-106165581D01*
X152377326Y-106144430D01*
X152255402Y-106022506D01*
X152255395Y-106022501D01*
X152061834Y-105886967D01*
X152061830Y-105886965D01*
X152061828Y-105886964D01*
X151847663Y-105787097D01*
X151847659Y-105787096D01*
X151847655Y-105787094D01*
X151619413Y-105725938D01*
X151619403Y-105725936D01*
X151384001Y-105705341D01*
X151383999Y-105705341D01*
X151148596Y-105725936D01*
X151148586Y-105725938D01*
X150920344Y-105787094D01*
X150920335Y-105787098D01*
X150706171Y-105886964D01*
X150706169Y-105886965D01*
X150512597Y-106022505D01*
X150345505Y-106189597D01*
X150215575Y-106375158D01*
X150160998Y-106418783D01*
X150091500Y-106425977D01*
X150029145Y-106394454D01*
X150012425Y-106375158D01*
X149882494Y-106189597D01*
X149715402Y-106022506D01*
X149715395Y-106022501D01*
X149521834Y-105886967D01*
X149521830Y-105886965D01*
X149521828Y-105886964D01*
X149307663Y-105787097D01*
X149307659Y-105787096D01*
X149307655Y-105787094D01*
X149079413Y-105725938D01*
X149079403Y-105725936D01*
X148844001Y-105705341D01*
X148843999Y-105705341D01*
X148608596Y-105725936D01*
X148608586Y-105725938D01*
X148380344Y-105787094D01*
X148380335Y-105787098D01*
X148166171Y-105886964D01*
X148166169Y-105886965D01*
X147972597Y-106022505D01*
X147805505Y-106189597D01*
X147675575Y-106375158D01*
X147620998Y-106418783D01*
X147551500Y-106425977D01*
X147489145Y-106394454D01*
X147472425Y-106375158D01*
X147342494Y-106189597D01*
X147175402Y-106022506D01*
X147175395Y-106022501D01*
X146981834Y-105886967D01*
X146981830Y-105886965D01*
X146981828Y-105886964D01*
X146767663Y-105787097D01*
X146767659Y-105787096D01*
X146767655Y-105787094D01*
X146539413Y-105725938D01*
X146539403Y-105725936D01*
X146304001Y-105705341D01*
X146303999Y-105705341D01*
X146068596Y-105725936D01*
X146068586Y-105725938D01*
X145840344Y-105787094D01*
X145840335Y-105787098D01*
X145626171Y-105886964D01*
X145626169Y-105886965D01*
X145432597Y-106022505D01*
X145265508Y-106189594D01*
X145135269Y-106375595D01*
X145080692Y-106419219D01*
X145011193Y-106426412D01*
X144948839Y-106394890D01*
X144932119Y-106375594D01*
X144802113Y-106189926D01*
X144802108Y-106189920D01*
X144635082Y-106022894D01*
X144441578Y-105887399D01*
X144227492Y-105787570D01*
X144227486Y-105787567D01*
X144014000Y-105730364D01*
X144014000Y-106627988D01*
X143956993Y-106595075D01*
X143829826Y-106561000D01*
X143698174Y-106561000D01*
X143571007Y-106595075D01*
X143514000Y-106627988D01*
X143514000Y-105730364D01*
X143513999Y-105730364D01*
X143300513Y-105787567D01*
X143300507Y-105787570D01*
X143086422Y-105887399D01*
X143086420Y-105887400D01*
X142892926Y-106022886D01*
X142892920Y-106022891D01*
X142725891Y-106189920D01*
X142725890Y-106189922D01*
X142595880Y-106375595D01*
X142541303Y-106419219D01*
X142471804Y-106426412D01*
X142409450Y-106394890D01*
X142392730Y-106375594D01*
X142262494Y-106189597D01*
X142095402Y-106022506D01*
X142095395Y-106022501D01*
X141901834Y-105886967D01*
X141901830Y-105886965D01*
X141901828Y-105886964D01*
X141687663Y-105787097D01*
X141687659Y-105787096D01*
X141687655Y-105787094D01*
X141459413Y-105725938D01*
X141459403Y-105725936D01*
X141224001Y-105705341D01*
X141223999Y-105705341D01*
X140988596Y-105725936D01*
X140988586Y-105725938D01*
X140760344Y-105787094D01*
X140760335Y-105787098D01*
X140546171Y-105886964D01*
X140546169Y-105886965D01*
X140352597Y-106022505D01*
X140185505Y-106189597D01*
X140049965Y-106383169D01*
X140049964Y-106383171D01*
X139950098Y-106597335D01*
X139950094Y-106597344D01*
X139888938Y-106825586D01*
X139888936Y-106825596D01*
X139868341Y-107060999D01*
X138500500Y-107060999D01*
X138500500Y-92197308D01*
X138520185Y-92130269D01*
X138536819Y-92109627D01*
X139205884Y-91440561D01*
X139206740Y-91442626D01*
X139299762Y-91581844D01*
X139418156Y-91700238D01*
X139557374Y-91793260D01*
X139559437Y-91794114D01*
X138910830Y-92442720D01*
X139082546Y-92559793D01*
X139082550Y-92559795D01*
X139318854Y-92673594D01*
X139318858Y-92673595D01*
X139569494Y-92750907D01*
X139569500Y-92750909D01*
X139828848Y-92789999D01*
X139828857Y-92790000D01*
X140091143Y-92790000D01*
X140091151Y-92789999D01*
X140350499Y-92750909D01*
X140350505Y-92750907D01*
X140601143Y-92673595D01*
X140837445Y-92559798D01*
X140837447Y-92559797D01*
X141009168Y-92442720D01*
X140360562Y-91794114D01*
X140362626Y-91793260D01*
X140501844Y-91700238D01*
X140620238Y-91581844D01*
X140713260Y-91442626D01*
X140714115Y-91440561D01*
X141362125Y-92088572D01*
X141409971Y-92028573D01*
X141541116Y-91801426D01*
X141636941Y-91557270D01*
X141695306Y-91301550D01*
X141695307Y-91301545D01*
X141714907Y-91040004D01*
X141714907Y-91039995D01*
X141695307Y-90778454D01*
X141695306Y-90778449D01*
X141636941Y-90522729D01*
X141557298Y-90319802D01*
X141551129Y-90250205D01*
X141583567Y-90188322D01*
X141644312Y-90153799D01*
X141672726Y-90150500D01*
X143327274Y-90150500D01*
X143394313Y-90170185D01*
X143440068Y-90222989D01*
X143450012Y-90292147D01*
X143442702Y-90319802D01*
X143363058Y-90522729D01*
X143304693Y-90778449D01*
X143304692Y-90778454D01*
X143285093Y-91039995D01*
X143285093Y-91040004D01*
X143304692Y-91301545D01*
X143304693Y-91301550D01*
X143363058Y-91557270D01*
X143458883Y-91801426D01*
X143458882Y-91801426D01*
X143590029Y-92028576D01*
X143637873Y-92088572D01*
X144285884Y-91440560D01*
X144286740Y-91442626D01*
X144379762Y-91581844D01*
X144498156Y-91700238D01*
X144637374Y-91793260D01*
X144639437Y-91794114D01*
X143990830Y-92442720D01*
X144162546Y-92559793D01*
X144162550Y-92559795D01*
X144398854Y-92673594D01*
X144398858Y-92673595D01*
X144649494Y-92750907D01*
X144649500Y-92750909D01*
X144908848Y-92789999D01*
X144908857Y-92790000D01*
X145171143Y-92790000D01*
X145171151Y-92789999D01*
X145430499Y-92750909D01*
X145430505Y-92750907D01*
X145681143Y-92673595D01*
X145917445Y-92559798D01*
X145917447Y-92559797D01*
X146089168Y-92442720D01*
X145440562Y-91794114D01*
X145442626Y-91793260D01*
X145581844Y-91700238D01*
X145700238Y-91581844D01*
X145793260Y-91442626D01*
X145794114Y-91440561D01*
X146442125Y-92088572D01*
X146489971Y-92028573D01*
X146621116Y-91801426D01*
X146716941Y-91557270D01*
X146775306Y-91301550D01*
X146775307Y-91301545D01*
X146794907Y-91040004D01*
X146794907Y-91039995D01*
X146775307Y-90778454D01*
X146775306Y-90778449D01*
X146716941Y-90522729D01*
X146621116Y-90278573D01*
X146621117Y-90278573D01*
X146489972Y-90051426D01*
X146442124Y-89991427D01*
X145794114Y-90639437D01*
X145793260Y-90637374D01*
X145700238Y-90498156D01*
X145581844Y-90379762D01*
X145442626Y-90286740D01*
X145440561Y-90285884D01*
X146089168Y-89637278D01*
X145917454Y-89520206D01*
X145917445Y-89520201D01*
X145681142Y-89406404D01*
X145681144Y-89406404D01*
X145430505Y-89329092D01*
X145430499Y-89329090D01*
X145171151Y-89290000D01*
X144908848Y-89290000D01*
X144649500Y-89329090D01*
X144649494Y-89329092D01*
X144398858Y-89406404D01*
X144398854Y-89406405D01*
X144328302Y-89440382D01*
X144259360Y-89451734D01*
X144195226Y-89424012D01*
X144156260Y-89366017D01*
X144150500Y-89328662D01*
X144150500Y-87671338D01*
X144170185Y-87604299D01*
X144222989Y-87558544D01*
X144292147Y-87548600D01*
X144328302Y-87559618D01*
X144398854Y-87593594D01*
X144398858Y-87593595D01*
X144649494Y-87670907D01*
X144649500Y-87670909D01*
X144908848Y-87709999D01*
X144908857Y-87710000D01*
X145171143Y-87710000D01*
X145171151Y-87709999D01*
X145430499Y-87670909D01*
X145430505Y-87670907D01*
X145681143Y-87593595D01*
X145917445Y-87479798D01*
X145917447Y-87479797D01*
X146089168Y-87362720D01*
X145440561Y-86714114D01*
X145442626Y-86713260D01*
X145581844Y-86620238D01*
X145700238Y-86501844D01*
X145793260Y-86362626D01*
X145794114Y-86360561D01*
X146442125Y-87008572D01*
X146489971Y-86948573D01*
X146621116Y-86721426D01*
X146716941Y-86477270D01*
X146775306Y-86221550D01*
X146775307Y-86221545D01*
X146794907Y-85960004D01*
X146794907Y-85959995D01*
X146775307Y-85698454D01*
X146775306Y-85698449D01*
X146716941Y-85442729D01*
X146621116Y-85198573D01*
X146621117Y-85198573D01*
X146489972Y-84971426D01*
X146442124Y-84911427D01*
X145794114Y-85559437D01*
X145793260Y-85557374D01*
X145700238Y-85418156D01*
X145581844Y-85299762D01*
X145442626Y-85206740D01*
X145440561Y-85205884D01*
X146089168Y-84557278D01*
X145917454Y-84440206D01*
X145917445Y-84440201D01*
X145681142Y-84326404D01*
X145681144Y-84326404D01*
X145430505Y-84249092D01*
X145430499Y-84249090D01*
X145171151Y-84210000D01*
X144908848Y-84210000D01*
X144649500Y-84249090D01*
X144649494Y-84249092D01*
X144398858Y-84326404D01*
X144398854Y-84326405D01*
X144162547Y-84440205D01*
X144162539Y-84440210D01*
X143990830Y-84557277D01*
X144639438Y-85205884D01*
X144637374Y-85206740D01*
X144498156Y-85299762D01*
X144379762Y-85418156D01*
X144286740Y-85557374D01*
X144285884Y-85559438D01*
X143637874Y-84911427D01*
X143590028Y-84971425D01*
X143458883Y-85198573D01*
X143363058Y-85442729D01*
X143304693Y-85698449D01*
X143304692Y-85698454D01*
X143285093Y-85959995D01*
X143285093Y-85960004D01*
X143304692Y-86221545D01*
X143304693Y-86221550D01*
X143363058Y-86477270D01*
X143442702Y-86680198D01*
X143448871Y-86749795D01*
X143416433Y-86811678D01*
X143355688Y-86846201D01*
X143327274Y-86849500D01*
X141672726Y-86849500D01*
X141605687Y-86829815D01*
X141559932Y-86777011D01*
X141549988Y-86707853D01*
X141557298Y-86680198D01*
X141636941Y-86477270D01*
X141695306Y-86221550D01*
X141695307Y-86221545D01*
X141714907Y-85960004D01*
X141714907Y-85959995D01*
X141695307Y-85698454D01*
X141695306Y-85698449D01*
X141636941Y-85442729D01*
X141541116Y-85198573D01*
X141541117Y-85198573D01*
X141409972Y-84971426D01*
X141362124Y-84911427D01*
X140714114Y-85559437D01*
X140713260Y-85557374D01*
X140620238Y-85418156D01*
X140501844Y-85299762D01*
X140362626Y-85206740D01*
X140360561Y-85205884D01*
X141009168Y-84557278D01*
X140837454Y-84440206D01*
X140837445Y-84440201D01*
X140601142Y-84326404D01*
X140601144Y-84326404D01*
X140350505Y-84249092D01*
X140350499Y-84249090D01*
X140091151Y-84210000D01*
X139828848Y-84210000D01*
X139569500Y-84249090D01*
X139569494Y-84249092D01*
X139318858Y-84326404D01*
X139318854Y-84326405D01*
X139082547Y-84440205D01*
X139082539Y-84440210D01*
X138910830Y-84557277D01*
X139559438Y-85205884D01*
X139557374Y-85206740D01*
X139418156Y-85299762D01*
X139299762Y-85418156D01*
X139206740Y-85557374D01*
X139205885Y-85559438D01*
X138536819Y-84890372D01*
X138503334Y-84829049D01*
X138500500Y-84802691D01*
X138500500Y-84004427D01*
X138500816Y-83995581D01*
X138515130Y-83795443D01*
X138515131Y-83795442D01*
X138515130Y-83795436D01*
X138517646Y-83777938D01*
X138559356Y-83586199D01*
X138564333Y-83569248D01*
X138632911Y-83385385D01*
X138640259Y-83369298D01*
X138659033Y-83334916D01*
X138734291Y-83197089D01*
X138743845Y-83182221D01*
X138861448Y-83025123D01*
X138873020Y-83011769D01*
X139011769Y-82873020D01*
X139025123Y-82861448D01*
X139182221Y-82743845D01*
X139197089Y-82734291D01*
X139369298Y-82640258D01*
X139385385Y-82632911D01*
X139569248Y-82564333D01*
X139586199Y-82559356D01*
X139777938Y-82517646D01*
X139795436Y-82515130D01*
X139995582Y-82500816D01*
X140004428Y-82500500D01*
X140065892Y-82500500D01*
X175934108Y-82500500D01*
X175995572Y-82500500D01*
X176004418Y-82500816D01*
G37*
%TD.AperFunction*%
%TA.AperFunction,Conductor*%
G36*
X139206740Y-86362626D02*
G01*
X139299762Y-86501844D01*
X139418156Y-86620238D01*
X139557374Y-86713260D01*
X139559437Y-86714114D01*
X138910830Y-87362720D01*
X139082546Y-87479793D01*
X139082550Y-87479795D01*
X139318854Y-87593594D01*
X139318858Y-87593595D01*
X139569494Y-87670907D01*
X139569500Y-87670909D01*
X139828848Y-87709999D01*
X139828857Y-87710000D01*
X140091143Y-87710000D01*
X140091151Y-87709999D01*
X140350499Y-87670909D01*
X140350505Y-87670907D01*
X140601140Y-87593596D01*
X140671698Y-87559617D01*
X140740639Y-87548265D01*
X140804774Y-87575987D01*
X140843740Y-87633982D01*
X140849500Y-87671337D01*
X140849500Y-89328662D01*
X140829815Y-89395701D01*
X140777011Y-89441456D01*
X140707853Y-89451400D01*
X140671699Y-89440382D01*
X140601142Y-89406404D01*
X140601144Y-89406404D01*
X140350505Y-89329092D01*
X140350499Y-89329090D01*
X140091151Y-89290000D01*
X139828848Y-89290000D01*
X139569500Y-89329090D01*
X139569494Y-89329092D01*
X139318858Y-89406404D01*
X139318854Y-89406405D01*
X139082547Y-89520205D01*
X139082539Y-89520210D01*
X138910830Y-89637277D01*
X139559438Y-90285884D01*
X139557374Y-90286740D01*
X139418156Y-90379762D01*
X139299762Y-90498156D01*
X139206740Y-90637374D01*
X139205885Y-90639438D01*
X138536819Y-89970372D01*
X138503334Y-89909049D01*
X138500500Y-89882691D01*
X138500500Y-87117308D01*
X138520185Y-87050269D01*
X138536819Y-87029627D01*
X139205884Y-86360561D01*
X139206740Y-86362626D01*
G37*
%TD.AperFunction*%
%TD*%
%TA.AperFunction,Conductor*%
%TO.N,D5*%
G36*
X165199690Y-108296460D02*
G01*
X165202897Y-108298734D01*
X165369265Y-108465102D01*
X165372692Y-108473375D01*
X165372031Y-108477251D01*
X164873388Y-109897629D01*
X164867415Y-109904300D01*
X164858473Y-109904792D01*
X164857883Y-109904567D01*
X164087785Y-109586562D01*
X164081447Y-109580238D01*
X163763432Y-108810115D01*
X163763441Y-108801161D01*
X163769780Y-108794836D01*
X163770345Y-108794620D01*
X165190748Y-108295968D01*
X165199690Y-108296460D01*
G37*
%TD.AperFunction*%
%TD*%
%TA.AperFunction,Conductor*%
%TO.N,MOSI*%
G36*
X146883372Y-95457424D02*
G01*
X147222575Y-95796627D01*
X147226002Y-95804900D01*
X147223662Y-95811920D01*
X146813557Y-96358726D01*
X146805852Y-96363288D01*
X146797177Y-96361066D01*
X146795953Y-96360007D01*
X146557293Y-96122707D01*
X146319995Y-95884049D01*
X146316593Y-95875769D01*
X146320044Y-95867505D01*
X146321264Y-95866449D01*
X146868080Y-95456336D01*
X146876754Y-95454115D01*
X146883372Y-95457424D01*
G37*
%TD.AperFunction*%
%TD*%
%TA.AperFunction,Conductor*%
%TO.N,D4*%
G36*
X163728402Y-105518044D02*
G01*
X164676494Y-106434695D01*
X164680059Y-106442909D01*
X164676772Y-106451239D01*
X164676641Y-106451372D01*
X164087434Y-107041560D01*
X164079164Y-107044994D01*
X164079140Y-107044994D01*
X163247671Y-107044016D01*
X163239402Y-107040579D01*
X163235985Y-107032302D01*
X163236128Y-107030495D01*
X163327395Y-106451372D01*
X163473443Y-105524633D01*
X163478116Y-105516995D01*
X163485000Y-105514755D01*
X163720269Y-105514755D01*
X163728402Y-105518044D01*
G37*
%TD.AperFunction*%
%TD*%
%TA.AperFunction,Conductor*%
%TO.N,D7*%
G36*
X147613701Y-101852433D02*
G01*
X148285672Y-101971785D01*
X148293218Y-101976606D01*
X148295326Y-101983305D01*
X148295326Y-102463016D01*
X148291899Y-102471289D01*
X148284906Y-102474646D01*
X147612942Y-102548576D01*
X147604343Y-102546074D01*
X147600032Y-102538226D01*
X147599962Y-102536993D01*
X147599000Y-102200000D01*
X147599960Y-101863920D01*
X147603411Y-101855657D01*
X147611693Y-101852254D01*
X147613701Y-101852433D01*
G37*
%TD.AperFunction*%
%TD*%
%TA.AperFunction,Conductor*%
%TO.N,SCK*%
G36*
X153411358Y-100602124D02*
G01*
X153415920Y-100609829D01*
X153416038Y-100611451D01*
X153417000Y-100948000D01*
X153417000Y-100948066D01*
X153416038Y-101284548D01*
X153412587Y-101292812D01*
X153404305Y-101296215D01*
X153402683Y-101296097D01*
X152726045Y-101199435D01*
X152718340Y-101194873D01*
X152716000Y-101187853D01*
X152716000Y-100708147D01*
X152719427Y-100699874D01*
X152726045Y-100696565D01*
X153402684Y-100599902D01*
X153411358Y-100602124D01*
G37*
%TD.AperFunction*%
%TD*%
M02*
