M48
; DRILL file {KiCad 8.0.8} date 2025-03-02T22:10:33+0100
; FORMAT={-:-/ absolute / inch / decimal}
; #@! TF.CreationDate,2025-03-02T22:10:33+01:00
; #@! TF.GenerationSoftware,Kicad,Pcbnew,8.0.8
; #@! TF.FileFunction,Plated,1,2,PTH
FMAT,2
INCH
; #@! TA.AperFunction,Plated,PTH,ViaDrill
T1C0.0079
; #@! TA.AperFunction,Plated,PTH,ViaDrill
T2C0.0098
; #@! TA.AperFunction,Plated,PTH,ViaDrill
T3C0.0118
; #@! TA.AperFunction,Plated,PTH,ComponentDrill
T4C0.0394
; #@! TA.AperFunction,Plated,PTH,ComponentDrill
T5C0.0591
; #@! TA.AperFunction,Plated,PTH,ComponentDrill
T6C0.0669
; #@! TA.AperFunction,Plated,PTH,ComponentDrill
T7C0.0866
%
G90
G05
T1
X6.0735Y-3.7779
X6.0735Y-3.8093
X6.105Y-3.7779
X6.105Y-3.8093
T2
X5.7087Y-4.2677
X5.811Y-4.2677
X5.9094Y-4.2677
T3
X5.5039Y-3.2913
X5.5039Y-3.685
X5.5039Y-3.748
X5.5039Y-3.811
X5.5039Y-3.878
X5.5039Y-3.9449
X5.5039Y-4.0118
X5.5039Y-4.0748
X5.5039Y-4.1378
X5.5039Y-4.2835
X5.5039Y-4.3504
X5.5669Y-3.2913
X5.5669Y-3.685
X5.61Y-3.3858
X5.61Y-3.5906
X5.6299Y-3.2913
X5.6299Y-3.685
X5.6929Y-3.2913
X5.6929Y-3.685
X5.7244Y-3.7402
X5.7559Y-3.2913
X5.7559Y-3.685
X5.77Y-3.7843
X5.8031Y-3.3228
X5.811Y-4.0236
X5.8425Y-3.3465
X5.878Y-3.2835
X5.878Y-3.3228
X5.9213Y-3.2835
X5.9213Y-3.3228
X6.0079Y-3.4803
X6.0079Y-3.5669
X6.0236Y-3.6063
X6.0315Y-3.3858
X6.0315Y-3.4331
X6.04Y-3.9743
X6.0472Y-3.4803
X6.0472Y-3.5669
X6.0472Y-3.6457
X6.063Y-3.6063
X6.0669Y-3.685
X6.0669Y-3.7244
X6.0709Y-3.3858
X6.0709Y-3.4331
X6.0866Y-3.4803
X6.0866Y-3.5669
X6.0866Y-3.6457
X6.1024Y-3.6063
X6.1024Y-3.8976
X6.1063Y-3.685
X6.1063Y-3.7244
X6.1102Y-3.3862
X6.1102Y-3.4343
X6.126Y-3.6457
X6.1378Y-4.3504
X6.1772Y-3.7638
X6.1772Y-3.815
X6.1811Y-4.3504
X6.189Y-4.1496
X6.2008Y-4.063
X6.2008Y-4.1063
X6.2362Y-3.7638
X6.2362Y-3.815
X6.2441Y-4.063
X6.2441Y-4.1063
X6.2874Y-4.0433
X6.2874Y-4.0866
X6.3543Y-3.3701
X6.3543Y-3.4094
X6.3543Y-3.4488
X6.3937Y-3.3701
X6.3937Y-3.4094
X6.7323Y-3.3819
X6.7402Y-4.2323
X6.7402Y-4.2717
X6.7402Y-4.311
X6.7402Y-4.3504
X6.7756Y-3.3819
X6.7756Y-3.4213
T4
X5.56Y-4.215
X5.66Y-4.215
X5.76Y-4.215
X5.86Y-4.215
X5.96Y-4.215
X6.06Y-4.215
X6.26Y-4.2143
X6.26Y-4.3143
X6.36Y-4.2143
X6.36Y-4.3143
X6.46Y-4.2143
X6.46Y-4.3143
X6.56Y-4.2143
X6.56Y-4.3143
X6.8898Y-3.3984
X6.8898Y-3.4984
X6.8898Y-3.5984
X6.8898Y-3.6984
X6.8898Y-3.7984
X6.8898Y-3.8984
X6.8898Y-3.9984
X6.8898Y-4.0984
T5
X5.6102Y-3.4843
T6
X5.5102Y-3.3843
X5.5102Y-3.5843
X5.7102Y-3.3843
X5.7102Y-3.5843
T7
X6.8701Y-4.2717
M30
