%TF.GenerationSoftware,KiCad,Pcbnew,8.0.8*%
%TF.CreationDate,2025-03-02T22:10:34+01:00*%
%TF.ProjectId,RFM69HW Breakout,52464d36-3948-4572-9042-7265616b6f75,rev?*%
%TF.SameCoordinates,Original*%
%TF.FileFunction,Drillmap*%
%TF.FilePolarity,Positive*%
%FSLAX45Y45*%
G04 Gerber Fmt 4.5, Leading zero omitted, Abs format (unit mm)*
G04 Created by KiCad (PCBNEW 8.0.8) date 2025-03-02 22:10:34*
%MOMM*%
%LPD*%
G01*
G04 APERTURE LIST*
%ADD10C,0.100000*%
%ADD11C,0.200000*%
%ADD12C,0.150000*%
%ADD13C,0.170000*%
%ADD14C,0.220000*%
G04 APERTURE END LIST*
D10*
X14000000Y-11200000D02*
G75*
G02*
X13800000Y-11000000I0J200000D01*
G01*
X13800000Y-8400000D02*
G75*
G02*
X14000000Y-8200000I200000J0D01*
G01*
X13800000Y-11000000D02*
X13800000Y-9280000D01*
X17600000Y-8200000D02*
G75*
G02*
X17800000Y-8400000I0J-200000D01*
G01*
X13800000Y-8400000D02*
X13800000Y-8420000D01*
X14000000Y-8200000D02*
X17600000Y-8200000D01*
X17600000Y-11200000D02*
X14000000Y-11200000D01*
X17800000Y-8400000D02*
X17800000Y-11000000D01*
X17800000Y-11000000D02*
G75*
G02*
X17600000Y-11200000I-200000J0D01*
G01*
X13800000Y-8420000D02*
X13800000Y-9280000D01*
D11*
D10*
X15416608Y-9585742D02*
X15436608Y-9605742D01*
X15436608Y-9585742D02*
X15416608Y-9605742D01*
X15416608Y-9665742D02*
X15436608Y-9685742D01*
X15436608Y-9665742D02*
X15416608Y-9685742D01*
X15496608Y-9585742D02*
X15516608Y-9605742D01*
X15516608Y-9585742D02*
X15496608Y-9605742D01*
X15496608Y-9665742D02*
X15516608Y-9685742D01*
X15516608Y-9665742D02*
X15496608Y-9685742D01*
X14512500Y-10840000D02*
G75*
G02*
X14487500Y-10840000I-12500J0D01*
G01*
X14487500Y-10840000D02*
G75*
G02*
X14512500Y-10840000I12500J0D01*
G01*
X14772500Y-10840000D02*
G75*
G02*
X14747500Y-10840000I-12500J0D01*
G01*
X14747500Y-10840000D02*
G75*
G02*
X14772500Y-10840000I12500J0D01*
G01*
X15022500Y-10840000D02*
G75*
G02*
X14997500Y-10840000I-12500J0D01*
G01*
X14997500Y-10840000D02*
G75*
G02*
X15022500Y-10840000I12500J0D01*
G01*
X13980000Y-8345000D02*
X13980000Y-8375000D01*
X13965000Y-8360000D02*
X13995000Y-8360000D01*
X13980000Y-9345000D02*
X13980000Y-9375000D01*
X13965000Y-9360000D02*
X13995000Y-9360000D01*
X13980000Y-9505000D02*
X13980000Y-9535000D01*
X13965000Y-9520000D02*
X13995000Y-9520000D01*
X13980000Y-9665000D02*
X13980000Y-9695000D01*
X13965000Y-9680000D02*
X13995000Y-9680000D01*
X13980000Y-9835000D02*
X13980000Y-9865000D01*
X13965000Y-9850000D02*
X13995000Y-9850000D01*
X13980000Y-10005000D02*
X13980000Y-10035000D01*
X13965000Y-10020000D02*
X13995000Y-10020000D01*
X13980000Y-10175000D02*
X13980000Y-10205000D01*
X13965000Y-10190000D02*
X13995000Y-10190000D01*
X13980000Y-10335000D02*
X13980000Y-10365000D01*
X13965000Y-10350000D02*
X13995000Y-10350000D01*
X13980000Y-10495000D02*
X13980000Y-10525000D01*
X13965000Y-10510000D02*
X13995000Y-10510000D01*
X13980000Y-10865000D02*
X13980000Y-10895000D01*
X13965000Y-10880000D02*
X13995000Y-10880000D01*
X13980000Y-11035000D02*
X13980000Y-11065000D01*
X13965000Y-11050000D02*
X13995000Y-11050000D01*
X14140000Y-8345000D02*
X14140000Y-8375000D01*
X14125000Y-8360000D02*
X14155000Y-8360000D01*
X14140000Y-9345000D02*
X14140000Y-9375000D01*
X14125000Y-9360000D02*
X14155000Y-9360000D01*
X14249400Y-8585000D02*
X14249400Y-8615000D01*
X14234400Y-8600000D02*
X14264400Y-8600000D01*
X14249400Y-9105000D02*
X14249400Y-9135000D01*
X14234400Y-9120000D02*
X14264400Y-9120000D01*
X14300000Y-8345000D02*
X14300000Y-8375000D01*
X14285000Y-8360000D02*
X14315000Y-8360000D01*
X14300000Y-9345000D02*
X14300000Y-9375000D01*
X14285000Y-9360000D02*
X14315000Y-9360000D01*
X14460000Y-8345000D02*
X14460000Y-8375000D01*
X14445000Y-8360000D02*
X14475000Y-8360000D01*
X14460000Y-9345000D02*
X14460000Y-9375000D01*
X14445000Y-9360000D02*
X14475000Y-9360000D01*
X14540000Y-9485000D02*
X14540000Y-9515000D01*
X14525000Y-9500000D02*
X14555000Y-9500000D01*
X14620000Y-8345000D02*
X14620000Y-8375000D01*
X14605000Y-8360000D02*
X14635000Y-8360000D01*
X14620000Y-9345000D02*
X14620000Y-9375000D01*
X14605000Y-9360000D02*
X14635000Y-9360000D01*
X14655800Y-9597200D02*
X14655800Y-9627200D01*
X14640800Y-9612200D02*
X14670800Y-9612200D01*
X14740000Y-8425000D02*
X14740000Y-8455000D01*
X14725000Y-8440000D02*
X14755000Y-8440000D01*
X14760000Y-10205000D02*
X14760000Y-10235000D01*
X14745000Y-10220000D02*
X14775000Y-10220000D01*
X14840000Y-8485000D02*
X14840000Y-8515000D01*
X14825000Y-8500000D02*
X14855000Y-8500000D01*
X14930000Y-8325000D02*
X14930000Y-8355000D01*
X14915000Y-8340000D02*
X14945000Y-8340000D01*
X14930000Y-8425000D02*
X14930000Y-8455000D01*
X14915000Y-8440000D02*
X14945000Y-8440000D01*
X15040000Y-8325000D02*
X15040000Y-8355000D01*
X15025000Y-8340000D02*
X15055000Y-8340000D01*
X15040000Y-8425000D02*
X15040000Y-8455000D01*
X15025000Y-8440000D02*
X15055000Y-8440000D01*
X15260000Y-8825000D02*
X15260000Y-8855000D01*
X15245000Y-8840000D02*
X15275000Y-8840000D01*
X15260000Y-9045000D02*
X15260000Y-9075000D01*
X15245000Y-9060000D02*
X15275000Y-9060000D01*
X15300000Y-9145000D02*
X15300000Y-9175000D01*
X15285000Y-9160000D02*
X15315000Y-9160000D01*
X15320000Y-8585000D02*
X15320000Y-8615000D01*
X15305000Y-8600000D02*
X15335000Y-8600000D01*
X15320000Y-8705000D02*
X15320000Y-8735000D01*
X15305000Y-8720000D02*
X15335000Y-8720000D01*
X15341600Y-10079800D02*
X15341600Y-10109800D01*
X15326600Y-10094800D02*
X15356600Y-10094800D01*
X15360000Y-8825000D02*
X15360000Y-8855000D01*
X15345000Y-8840000D02*
X15375000Y-8840000D01*
X15360000Y-9045000D02*
X15360000Y-9075000D01*
X15345000Y-9060000D02*
X15375000Y-9060000D01*
X15360000Y-9245000D02*
X15360000Y-9275000D01*
X15345000Y-9260000D02*
X15375000Y-9260000D01*
X15400000Y-9145000D02*
X15400000Y-9175000D01*
X15385000Y-9160000D02*
X15415000Y-9160000D01*
X15410000Y-9345000D02*
X15410000Y-9375000D01*
X15395000Y-9360000D02*
X15425000Y-9360000D01*
X15410000Y-9445000D02*
X15410000Y-9475000D01*
X15395000Y-9460000D02*
X15425000Y-9460000D01*
X15420000Y-8585000D02*
X15420000Y-8615000D01*
X15405000Y-8600000D02*
X15435000Y-8600000D01*
X15420000Y-8705000D02*
X15420000Y-8735000D01*
X15405000Y-8720000D02*
X15435000Y-8720000D01*
X15460000Y-8825000D02*
X15460000Y-8855000D01*
X15445000Y-8840000D02*
X15475000Y-8840000D01*
X15460000Y-9045000D02*
X15460000Y-9075000D01*
X15445000Y-9060000D02*
X15475000Y-9060000D01*
X15460000Y-9245000D02*
X15460000Y-9275000D01*
X15445000Y-9260000D02*
X15475000Y-9260000D01*
X15500000Y-9145000D02*
X15500000Y-9175000D01*
X15485000Y-9160000D02*
X15515000Y-9160000D01*
X15500000Y-9885000D02*
X15500000Y-9915000D01*
X15485000Y-9900000D02*
X15515000Y-9900000D01*
X15510000Y-9345000D02*
X15510000Y-9375000D01*
X15495000Y-9360000D02*
X15525000Y-9360000D01*
X15510000Y-9445000D02*
X15510000Y-9475000D01*
X15495000Y-9460000D02*
X15525000Y-9460000D01*
X15520000Y-8586000D02*
X15520000Y-8616000D01*
X15505000Y-8601000D02*
X15535000Y-8601000D01*
X15520000Y-8708200D02*
X15520000Y-8738200D01*
X15505000Y-8723200D02*
X15535000Y-8723200D01*
X15560000Y-9245000D02*
X15560000Y-9275000D01*
X15545000Y-9260000D02*
X15575000Y-9260000D01*
X15590000Y-11035000D02*
X15590000Y-11065000D01*
X15575000Y-11050000D02*
X15605000Y-11050000D01*
X15690000Y-9545000D02*
X15690000Y-9575000D01*
X15675000Y-9560000D02*
X15705000Y-9560000D01*
X15690000Y-9675000D02*
X15690000Y-9705000D01*
X15675000Y-9690000D02*
X15705000Y-9690000D01*
X15700000Y-11035000D02*
X15700000Y-11065000D01*
X15685000Y-11050000D02*
X15715000Y-11050000D01*
X15720000Y-10525000D02*
X15720000Y-10555000D01*
X15705000Y-10540000D02*
X15735000Y-10540000D01*
X15750000Y-10305000D02*
X15750000Y-10335000D01*
X15735000Y-10320000D02*
X15765000Y-10320000D01*
X15750000Y-10415000D02*
X15750000Y-10445000D01*
X15735000Y-10430000D02*
X15765000Y-10430000D01*
X15840000Y-9545000D02*
X15840000Y-9575000D01*
X15825000Y-9560000D02*
X15855000Y-9560000D01*
X15840000Y-9675000D02*
X15840000Y-9705000D01*
X15825000Y-9690000D02*
X15855000Y-9690000D01*
X15860000Y-10305000D02*
X15860000Y-10335000D01*
X15845000Y-10320000D02*
X15875000Y-10320000D01*
X15860000Y-10415000D02*
X15860000Y-10445000D01*
X15845000Y-10430000D02*
X15875000Y-10430000D01*
X15970000Y-10255000D02*
X15970000Y-10285000D01*
X15955000Y-10270000D02*
X15985000Y-10270000D01*
X15970000Y-10365000D02*
X15970000Y-10395000D01*
X15955000Y-10380000D02*
X15985000Y-10380000D01*
X16140000Y-8545000D02*
X16140000Y-8575000D01*
X16125000Y-8560000D02*
X16155000Y-8560000D01*
X16140000Y-8645000D02*
X16140000Y-8675000D01*
X16125000Y-8660000D02*
X16155000Y-8660000D01*
X16140000Y-8745000D02*
X16140000Y-8775000D01*
X16125000Y-8760000D02*
X16155000Y-8760000D01*
X16240000Y-8545000D02*
X16240000Y-8575000D01*
X16225000Y-8560000D02*
X16255000Y-8560000D01*
X16240000Y-8645000D02*
X16240000Y-8675000D01*
X16225000Y-8660000D02*
X16255000Y-8660000D01*
X17100000Y-8575000D02*
X17100000Y-8605000D01*
X17085000Y-8590000D02*
X17115000Y-8590000D01*
X17120000Y-10735000D02*
X17120000Y-10765000D01*
X17105000Y-10750000D02*
X17135000Y-10750000D01*
X17120000Y-10835000D02*
X17120000Y-10865000D01*
X17105000Y-10850000D02*
X17135000Y-10850000D01*
X17120000Y-10935000D02*
X17120000Y-10965000D01*
X17105000Y-10950000D02*
X17135000Y-10950000D01*
X17120000Y-11035000D02*
X17120000Y-11065000D01*
X17105000Y-11050000D02*
X17135000Y-11050000D01*
X17210000Y-8575000D02*
X17210000Y-8605000D01*
X17195000Y-8590000D02*
X17225000Y-8590000D01*
X17210000Y-8675000D02*
X17210000Y-8705000D01*
X17195000Y-8690000D02*
X17225000Y-8690000D01*
X14157756Y-10741456D02*
X14157756Y-10670744D01*
X14087044Y-10670744D01*
X14087044Y-10741456D01*
X14157756Y-10741456D01*
X14411756Y-10741456D02*
X14411756Y-10670744D01*
X14341044Y-10670744D01*
X14341044Y-10741456D01*
X14411756Y-10741456D01*
X14665756Y-10741456D02*
X14665756Y-10670744D01*
X14595044Y-10670744D01*
X14595044Y-10741456D01*
X14665756Y-10741456D01*
X14919756Y-10741456D02*
X14919756Y-10670744D01*
X14849044Y-10670744D01*
X14849044Y-10741456D01*
X14919756Y-10741456D01*
X15173756Y-10741456D02*
X15173756Y-10670744D01*
X15103044Y-10670744D01*
X15103044Y-10741456D01*
X15173756Y-10741456D01*
X15427756Y-10741456D02*
X15427756Y-10670744D01*
X15357044Y-10670744D01*
X15357044Y-10741456D01*
X15427756Y-10741456D01*
X15935756Y-10739756D02*
X15935756Y-10669044D01*
X15865044Y-10669044D01*
X15865044Y-10739756D01*
X15935756Y-10739756D01*
X15935756Y-10993756D02*
X15935756Y-10923044D01*
X15865044Y-10923044D01*
X15865044Y-10993756D01*
X15935756Y-10993756D01*
X16189756Y-10739756D02*
X16189756Y-10669044D01*
X16119044Y-10669044D01*
X16119044Y-10739756D01*
X16189756Y-10739756D01*
X16189756Y-10993756D02*
X16189756Y-10923044D01*
X16119044Y-10923044D01*
X16119044Y-10993756D01*
X16189756Y-10993756D01*
X16443756Y-10739756D02*
X16443756Y-10669044D01*
X16373044Y-10669044D01*
X16373044Y-10739756D01*
X16443756Y-10739756D01*
X16443756Y-10993756D02*
X16443756Y-10923044D01*
X16373044Y-10923044D01*
X16373044Y-10993756D01*
X16443756Y-10993756D01*
X16697756Y-10739756D02*
X16697756Y-10669044D01*
X16627044Y-10669044D01*
X16627044Y-10739756D01*
X16697756Y-10739756D01*
X16697756Y-10993756D02*
X16697756Y-10923044D01*
X16627044Y-10923044D01*
X16627044Y-10993756D01*
X16697756Y-10993756D01*
X17535356Y-8667356D02*
X17535356Y-8596644D01*
X17464644Y-8596644D01*
X17464644Y-8667356D01*
X17535356Y-8667356D01*
X17535356Y-8921356D02*
X17535356Y-8850644D01*
X17464644Y-8850644D01*
X17464644Y-8921356D01*
X17535356Y-8921356D01*
X17535356Y-9175356D02*
X17535356Y-9104644D01*
X17464644Y-9104644D01*
X17464644Y-9175356D01*
X17535356Y-9175356D01*
X17535356Y-9429356D02*
X17535356Y-9358644D01*
X17464644Y-9358644D01*
X17464644Y-9429356D01*
X17535356Y-9429356D01*
X17535356Y-9683356D02*
X17535356Y-9612644D01*
X17464644Y-9612644D01*
X17464644Y-9683356D01*
X17535356Y-9683356D01*
X17535356Y-9937356D02*
X17535356Y-9866644D01*
X17464644Y-9866644D01*
X17464644Y-9937356D01*
X17535356Y-9937356D01*
X17535356Y-10191356D02*
X17535356Y-10120644D01*
X17464644Y-10120644D01*
X17464644Y-10191356D01*
X17535356Y-10191356D01*
X17535356Y-10445356D02*
X17535356Y-10374644D01*
X17464644Y-10374644D01*
X17464644Y-10445356D01*
X17535356Y-10445356D01*
D12*
X14250000Y-8925000D02*
X14325000Y-8850000D01*
X14250000Y-8775000D01*
X14175000Y-8850000D01*
X14250000Y-8925000D01*
D13*
X13911000Y-8511000D02*
X14081000Y-8681000D01*
X14081000Y-8511000D02*
X13911000Y-8681000D01*
X14081000Y-8596000D02*
G75*
G02*
X13911000Y-8596000I-85000J0D01*
G01*
X13911000Y-8596000D02*
G75*
G02*
X14081000Y-8596000I85000J0D01*
G01*
X13911000Y-9019000D02*
X14081000Y-9189000D01*
X14081000Y-9019000D02*
X13911000Y-9189000D01*
X14081000Y-9104000D02*
G75*
G02*
X13911000Y-9104000I-85000J0D01*
G01*
X13911000Y-9104000D02*
G75*
G02*
X14081000Y-9104000I85000J0D01*
G01*
X14419000Y-8511000D02*
X14589000Y-8681000D01*
X14589000Y-8511000D02*
X14419000Y-8681000D01*
X14589000Y-8596000D02*
G75*
G02*
X14419000Y-8596000I-85000J0D01*
G01*
X14419000Y-8596000D02*
G75*
G02*
X14589000Y-8596000I85000J0D01*
G01*
X14419000Y-9019000D02*
X14589000Y-9189000D01*
X14589000Y-9019000D02*
X14419000Y-9189000D01*
X14589000Y-9104000D02*
G75*
G02*
X14419000Y-9104000I-85000J0D01*
G01*
X14419000Y-9104000D02*
G75*
G02*
X14589000Y-9104000I85000J0D01*
G01*
D14*
X17340000Y-10740000D02*
X17560000Y-10960000D01*
X17560000Y-10740000D02*
X17340000Y-10960000D01*
X17450000Y-10740000D02*
X17450000Y-10960000D01*
X17340000Y-10850000D02*
X17560000Y-10850000D01*
D11*
X14055777Y-11516484D02*
X14055777Y-11316484D01*
X14055777Y-11316484D02*
X14103396Y-11316484D01*
X14103396Y-11316484D02*
X14131967Y-11326008D01*
X14131967Y-11326008D02*
X14151015Y-11345055D01*
X14151015Y-11345055D02*
X14160539Y-11364103D01*
X14160539Y-11364103D02*
X14170062Y-11402198D01*
X14170062Y-11402198D02*
X14170062Y-11430769D01*
X14170062Y-11430769D02*
X14160539Y-11468865D01*
X14160539Y-11468865D02*
X14151015Y-11487912D01*
X14151015Y-11487912D02*
X14131967Y-11506960D01*
X14131967Y-11506960D02*
X14103396Y-11516484D01*
X14103396Y-11516484D02*
X14055777Y-11516484D01*
X14255777Y-11516484D02*
X14255777Y-11383150D01*
X14255777Y-11421246D02*
X14265301Y-11402198D01*
X14265301Y-11402198D02*
X14274824Y-11392674D01*
X14274824Y-11392674D02*
X14293872Y-11383150D01*
X14293872Y-11383150D02*
X14312920Y-11383150D01*
X14379586Y-11516484D02*
X14379586Y-11383150D01*
X14379586Y-11316484D02*
X14370062Y-11326008D01*
X14370062Y-11326008D02*
X14379586Y-11335531D01*
X14379586Y-11335531D02*
X14389110Y-11326008D01*
X14389110Y-11326008D02*
X14379586Y-11316484D01*
X14379586Y-11316484D02*
X14379586Y-11335531D01*
X14503396Y-11516484D02*
X14484348Y-11506960D01*
X14484348Y-11506960D02*
X14474824Y-11487912D01*
X14474824Y-11487912D02*
X14474824Y-11316484D01*
X14608158Y-11516484D02*
X14589110Y-11506960D01*
X14589110Y-11506960D02*
X14579586Y-11487912D01*
X14579586Y-11487912D02*
X14579586Y-11316484D01*
X14836729Y-11516484D02*
X14836729Y-11316484D01*
X14836729Y-11316484D02*
X14903396Y-11459341D01*
X14903396Y-11459341D02*
X14970062Y-11316484D01*
X14970062Y-11316484D02*
X14970062Y-11516484D01*
X15151015Y-11516484D02*
X15151015Y-11411722D01*
X15151015Y-11411722D02*
X15141491Y-11392674D01*
X15141491Y-11392674D02*
X15122443Y-11383150D01*
X15122443Y-11383150D02*
X15084348Y-11383150D01*
X15084348Y-11383150D02*
X15065301Y-11392674D01*
X15151015Y-11506960D02*
X15131967Y-11516484D01*
X15131967Y-11516484D02*
X15084348Y-11516484D01*
X15084348Y-11516484D02*
X15065301Y-11506960D01*
X15065301Y-11506960D02*
X15055777Y-11487912D01*
X15055777Y-11487912D02*
X15055777Y-11468865D01*
X15055777Y-11468865D02*
X15065301Y-11449817D01*
X15065301Y-11449817D02*
X15084348Y-11440293D01*
X15084348Y-11440293D02*
X15131967Y-11440293D01*
X15131967Y-11440293D02*
X15151015Y-11430769D01*
X15246253Y-11383150D02*
X15246253Y-11583150D01*
X15246253Y-11392674D02*
X15265301Y-11383150D01*
X15265301Y-11383150D02*
X15303396Y-11383150D01*
X15303396Y-11383150D02*
X15322443Y-11392674D01*
X15322443Y-11392674D02*
X15331967Y-11402198D01*
X15331967Y-11402198D02*
X15341491Y-11421246D01*
X15341491Y-11421246D02*
X15341491Y-11478388D01*
X15341491Y-11478388D02*
X15331967Y-11497436D01*
X15331967Y-11497436D02*
X15322443Y-11506960D01*
X15322443Y-11506960D02*
X15303396Y-11516484D01*
X15303396Y-11516484D02*
X15265301Y-11516484D01*
X15265301Y-11516484D02*
X15246253Y-11506960D01*
X15427205Y-11497436D02*
X15436729Y-11506960D01*
X15436729Y-11506960D02*
X15427205Y-11516484D01*
X15427205Y-11516484D02*
X15417682Y-11506960D01*
X15417682Y-11506960D02*
X15427205Y-11497436D01*
X15427205Y-11497436D02*
X15427205Y-11516484D01*
X15427205Y-11392674D02*
X15436729Y-11402198D01*
X15436729Y-11402198D02*
X15427205Y-11411722D01*
X15427205Y-11411722D02*
X15417682Y-11402198D01*
X15417682Y-11402198D02*
X15427205Y-11392674D01*
X15427205Y-11392674D02*
X15427205Y-11411722D01*
D10*
X13775000Y-11835000D02*
X13795000Y-11855000D01*
X13795000Y-11835000D02*
X13775000Y-11855000D01*
D11*
X14093872Y-11736484D02*
X14112920Y-11736484D01*
X14112920Y-11736484D02*
X14131967Y-11746008D01*
X14131967Y-11746008D02*
X14141491Y-11755531D01*
X14141491Y-11755531D02*
X14151015Y-11774579D01*
X14151015Y-11774579D02*
X14160539Y-11812674D01*
X14160539Y-11812674D02*
X14160539Y-11860293D01*
X14160539Y-11860293D02*
X14151015Y-11898388D01*
X14151015Y-11898388D02*
X14141491Y-11917436D01*
X14141491Y-11917436D02*
X14131967Y-11926960D01*
X14131967Y-11926960D02*
X14112920Y-11936484D01*
X14112920Y-11936484D02*
X14093872Y-11936484D01*
X14093872Y-11936484D02*
X14074824Y-11926960D01*
X14074824Y-11926960D02*
X14065301Y-11917436D01*
X14065301Y-11917436D02*
X14055777Y-11898388D01*
X14055777Y-11898388D02*
X14046253Y-11860293D01*
X14046253Y-11860293D02*
X14046253Y-11812674D01*
X14046253Y-11812674D02*
X14055777Y-11774579D01*
X14055777Y-11774579D02*
X14065301Y-11755531D01*
X14065301Y-11755531D02*
X14074824Y-11746008D01*
X14074824Y-11746008D02*
X14093872Y-11736484D01*
X14246253Y-11917436D02*
X14255777Y-11926960D01*
X14255777Y-11926960D02*
X14246253Y-11936484D01*
X14246253Y-11936484D02*
X14236729Y-11926960D01*
X14236729Y-11926960D02*
X14246253Y-11917436D01*
X14246253Y-11917436D02*
X14246253Y-11936484D01*
X14331967Y-11755531D02*
X14341491Y-11746008D01*
X14341491Y-11746008D02*
X14360539Y-11736484D01*
X14360539Y-11736484D02*
X14408158Y-11736484D01*
X14408158Y-11736484D02*
X14427205Y-11746008D01*
X14427205Y-11746008D02*
X14436729Y-11755531D01*
X14436729Y-11755531D02*
X14446253Y-11774579D01*
X14446253Y-11774579D02*
X14446253Y-11793627D01*
X14446253Y-11793627D02*
X14436729Y-11822198D01*
X14436729Y-11822198D02*
X14322443Y-11936484D01*
X14322443Y-11936484D02*
X14446253Y-11936484D01*
X14570062Y-11736484D02*
X14589110Y-11736484D01*
X14589110Y-11736484D02*
X14608158Y-11746008D01*
X14608158Y-11746008D02*
X14617682Y-11755531D01*
X14617682Y-11755531D02*
X14627205Y-11774579D01*
X14627205Y-11774579D02*
X14636729Y-11812674D01*
X14636729Y-11812674D02*
X14636729Y-11860293D01*
X14636729Y-11860293D02*
X14627205Y-11898388D01*
X14627205Y-11898388D02*
X14617682Y-11917436D01*
X14617682Y-11917436D02*
X14608158Y-11926960D01*
X14608158Y-11926960D02*
X14589110Y-11936484D01*
X14589110Y-11936484D02*
X14570062Y-11936484D01*
X14570062Y-11936484D02*
X14551015Y-11926960D01*
X14551015Y-11926960D02*
X14541491Y-11917436D01*
X14541491Y-11917436D02*
X14531967Y-11898388D01*
X14531967Y-11898388D02*
X14522443Y-11860293D01*
X14522443Y-11860293D02*
X14522443Y-11812674D01*
X14522443Y-11812674D02*
X14531967Y-11774579D01*
X14531967Y-11774579D02*
X14541491Y-11755531D01*
X14541491Y-11755531D02*
X14551015Y-11746008D01*
X14551015Y-11746008D02*
X14570062Y-11736484D01*
X14760539Y-11736484D02*
X14779586Y-11736484D01*
X14779586Y-11736484D02*
X14798634Y-11746008D01*
X14798634Y-11746008D02*
X14808158Y-11755531D01*
X14808158Y-11755531D02*
X14817682Y-11774579D01*
X14817682Y-11774579D02*
X14827205Y-11812674D01*
X14827205Y-11812674D02*
X14827205Y-11860293D01*
X14827205Y-11860293D02*
X14817682Y-11898388D01*
X14817682Y-11898388D02*
X14808158Y-11917436D01*
X14808158Y-11917436D02*
X14798634Y-11926960D01*
X14798634Y-11926960D02*
X14779586Y-11936484D01*
X14779586Y-11936484D02*
X14760539Y-11936484D01*
X14760539Y-11936484D02*
X14741491Y-11926960D01*
X14741491Y-11926960D02*
X14731967Y-11917436D01*
X14731967Y-11917436D02*
X14722443Y-11898388D01*
X14722443Y-11898388D02*
X14712920Y-11860293D01*
X14712920Y-11860293D02*
X14712920Y-11812674D01*
X14712920Y-11812674D02*
X14722443Y-11774579D01*
X14722443Y-11774579D02*
X14731967Y-11755531D01*
X14731967Y-11755531D02*
X14741491Y-11746008D01*
X14741491Y-11746008D02*
X14760539Y-11736484D01*
X14912920Y-11936484D02*
X14912920Y-11803150D01*
X14912920Y-11822198D02*
X14922443Y-11812674D01*
X14922443Y-11812674D02*
X14941491Y-11803150D01*
X14941491Y-11803150D02*
X14970063Y-11803150D01*
X14970063Y-11803150D02*
X14989110Y-11812674D01*
X14989110Y-11812674D02*
X14998634Y-11831722D01*
X14998634Y-11831722D02*
X14998634Y-11936484D01*
X14998634Y-11831722D02*
X15008158Y-11812674D01*
X15008158Y-11812674D02*
X15027205Y-11803150D01*
X15027205Y-11803150D02*
X15055777Y-11803150D01*
X15055777Y-11803150D02*
X15074824Y-11812674D01*
X15074824Y-11812674D02*
X15084348Y-11831722D01*
X15084348Y-11831722D02*
X15084348Y-11936484D01*
X15179586Y-11936484D02*
X15179586Y-11803150D01*
X15179586Y-11822198D02*
X15189110Y-11812674D01*
X15189110Y-11812674D02*
X15208158Y-11803150D01*
X15208158Y-11803150D02*
X15236729Y-11803150D01*
X15236729Y-11803150D02*
X15255777Y-11812674D01*
X15255777Y-11812674D02*
X15265301Y-11831722D01*
X15265301Y-11831722D02*
X15265301Y-11936484D01*
X15265301Y-11831722D02*
X15274824Y-11812674D01*
X15274824Y-11812674D02*
X15293872Y-11803150D01*
X15293872Y-11803150D02*
X15322443Y-11803150D01*
X15322443Y-11803150D02*
X15341491Y-11812674D01*
X15341491Y-11812674D02*
X15351015Y-11831722D01*
X15351015Y-11831722D02*
X15351015Y-11936484D01*
X15741491Y-11726960D02*
X15570063Y-11984103D01*
X15998634Y-11736484D02*
X16017682Y-11736484D01*
X16017682Y-11736484D02*
X16036729Y-11746008D01*
X16036729Y-11746008D02*
X16046253Y-11755531D01*
X16046253Y-11755531D02*
X16055777Y-11774579D01*
X16055777Y-11774579D02*
X16065301Y-11812674D01*
X16065301Y-11812674D02*
X16065301Y-11860293D01*
X16065301Y-11860293D02*
X16055777Y-11898388D01*
X16055777Y-11898388D02*
X16046253Y-11917436D01*
X16046253Y-11917436D02*
X16036729Y-11926960D01*
X16036729Y-11926960D02*
X16017682Y-11936484D01*
X16017682Y-11936484D02*
X15998634Y-11936484D01*
X15998634Y-11936484D02*
X15979586Y-11926960D01*
X15979586Y-11926960D02*
X15970063Y-11917436D01*
X15970063Y-11917436D02*
X15960539Y-11898388D01*
X15960539Y-11898388D02*
X15951015Y-11860293D01*
X15951015Y-11860293D02*
X15951015Y-11812674D01*
X15951015Y-11812674D02*
X15960539Y-11774579D01*
X15960539Y-11774579D02*
X15970063Y-11755531D01*
X15970063Y-11755531D02*
X15979586Y-11746008D01*
X15979586Y-11746008D02*
X15998634Y-11736484D01*
X16151015Y-11917436D02*
X16160539Y-11926960D01*
X16160539Y-11926960D02*
X16151015Y-11936484D01*
X16151015Y-11936484D02*
X16141491Y-11926960D01*
X16141491Y-11926960D02*
X16151015Y-11917436D01*
X16151015Y-11917436D02*
X16151015Y-11936484D01*
X16284348Y-11736484D02*
X16303396Y-11736484D01*
X16303396Y-11736484D02*
X16322444Y-11746008D01*
X16322444Y-11746008D02*
X16331967Y-11755531D01*
X16331967Y-11755531D02*
X16341491Y-11774579D01*
X16341491Y-11774579D02*
X16351015Y-11812674D01*
X16351015Y-11812674D02*
X16351015Y-11860293D01*
X16351015Y-11860293D02*
X16341491Y-11898388D01*
X16341491Y-11898388D02*
X16331967Y-11917436D01*
X16331967Y-11917436D02*
X16322444Y-11926960D01*
X16322444Y-11926960D02*
X16303396Y-11936484D01*
X16303396Y-11936484D02*
X16284348Y-11936484D01*
X16284348Y-11936484D02*
X16265301Y-11926960D01*
X16265301Y-11926960D02*
X16255777Y-11917436D01*
X16255777Y-11917436D02*
X16246253Y-11898388D01*
X16246253Y-11898388D02*
X16236729Y-11860293D01*
X16236729Y-11860293D02*
X16236729Y-11812674D01*
X16236729Y-11812674D02*
X16246253Y-11774579D01*
X16246253Y-11774579D02*
X16255777Y-11755531D01*
X16255777Y-11755531D02*
X16265301Y-11746008D01*
X16265301Y-11746008D02*
X16284348Y-11736484D01*
X16474825Y-11736484D02*
X16493872Y-11736484D01*
X16493872Y-11736484D02*
X16512920Y-11746008D01*
X16512920Y-11746008D02*
X16522444Y-11755531D01*
X16522444Y-11755531D02*
X16531967Y-11774579D01*
X16531967Y-11774579D02*
X16541491Y-11812674D01*
X16541491Y-11812674D02*
X16541491Y-11860293D01*
X16541491Y-11860293D02*
X16531967Y-11898388D01*
X16531967Y-11898388D02*
X16522444Y-11917436D01*
X16522444Y-11917436D02*
X16512920Y-11926960D01*
X16512920Y-11926960D02*
X16493872Y-11936484D01*
X16493872Y-11936484D02*
X16474825Y-11936484D01*
X16474825Y-11936484D02*
X16455777Y-11926960D01*
X16455777Y-11926960D02*
X16446253Y-11917436D01*
X16446253Y-11917436D02*
X16436729Y-11898388D01*
X16436729Y-11898388D02*
X16427206Y-11860293D01*
X16427206Y-11860293D02*
X16427206Y-11812674D01*
X16427206Y-11812674D02*
X16436729Y-11774579D01*
X16436729Y-11774579D02*
X16446253Y-11755531D01*
X16446253Y-11755531D02*
X16455777Y-11746008D01*
X16455777Y-11746008D02*
X16474825Y-11736484D01*
X16608158Y-11736484D02*
X16741491Y-11736484D01*
X16741491Y-11736484D02*
X16655777Y-11936484D01*
X16827206Y-11936484D02*
X16865301Y-11936484D01*
X16865301Y-11936484D02*
X16884349Y-11926960D01*
X16884349Y-11926960D02*
X16893872Y-11917436D01*
X16893872Y-11917436D02*
X16912920Y-11888865D01*
X16912920Y-11888865D02*
X16922444Y-11850769D01*
X16922444Y-11850769D02*
X16922444Y-11774579D01*
X16922444Y-11774579D02*
X16912920Y-11755531D01*
X16912920Y-11755531D02*
X16903396Y-11746008D01*
X16903396Y-11746008D02*
X16884349Y-11736484D01*
X16884349Y-11736484D02*
X16846253Y-11736484D01*
X16846253Y-11736484D02*
X16827206Y-11746008D01*
X16827206Y-11746008D02*
X16817682Y-11755531D01*
X16817682Y-11755531D02*
X16808158Y-11774579D01*
X16808158Y-11774579D02*
X16808158Y-11822198D01*
X16808158Y-11822198D02*
X16817682Y-11841246D01*
X16817682Y-11841246D02*
X16827206Y-11850769D01*
X16827206Y-11850769D02*
X16846253Y-11860293D01*
X16846253Y-11860293D02*
X16884349Y-11860293D01*
X16884349Y-11860293D02*
X16903396Y-11850769D01*
X16903396Y-11850769D02*
X16912920Y-11841246D01*
X16912920Y-11841246D02*
X16922444Y-11822198D01*
X16998634Y-11736484D02*
X16998634Y-11774579D01*
X17074825Y-11736484D02*
X17074825Y-11774579D01*
X17370063Y-12012674D02*
X17360539Y-12003150D01*
X17360539Y-12003150D02*
X17341491Y-11974579D01*
X17341491Y-11974579D02*
X17331968Y-11955531D01*
X17331968Y-11955531D02*
X17322444Y-11926960D01*
X17322444Y-11926960D02*
X17312920Y-11879341D01*
X17312920Y-11879341D02*
X17312920Y-11841246D01*
X17312920Y-11841246D02*
X17322444Y-11793627D01*
X17322444Y-11793627D02*
X17331968Y-11765055D01*
X17331968Y-11765055D02*
X17341491Y-11746008D01*
X17341491Y-11746008D02*
X17360539Y-11717436D01*
X17360539Y-11717436D02*
X17370063Y-11707912D01*
X17531968Y-11803150D02*
X17531968Y-11936484D01*
X17484349Y-11726960D02*
X17436730Y-11869817D01*
X17436730Y-11869817D02*
X17560539Y-11869817D01*
X17789111Y-11936484D02*
X17789111Y-11736484D01*
X17874825Y-11936484D02*
X17874825Y-11831722D01*
X17874825Y-11831722D02*
X17865301Y-11812674D01*
X17865301Y-11812674D02*
X17846253Y-11803150D01*
X17846253Y-11803150D02*
X17817682Y-11803150D01*
X17817682Y-11803150D02*
X17798634Y-11812674D01*
X17798634Y-11812674D02*
X17789111Y-11822198D01*
X17998634Y-11936484D02*
X17979587Y-11926960D01*
X17979587Y-11926960D02*
X17970063Y-11917436D01*
X17970063Y-11917436D02*
X17960539Y-11898388D01*
X17960539Y-11898388D02*
X17960539Y-11841246D01*
X17960539Y-11841246D02*
X17970063Y-11822198D01*
X17970063Y-11822198D02*
X17979587Y-11812674D01*
X17979587Y-11812674D02*
X17998634Y-11803150D01*
X17998634Y-11803150D02*
X18027206Y-11803150D01*
X18027206Y-11803150D02*
X18046253Y-11812674D01*
X18046253Y-11812674D02*
X18055777Y-11822198D01*
X18055777Y-11822198D02*
X18065301Y-11841246D01*
X18065301Y-11841246D02*
X18065301Y-11898388D01*
X18065301Y-11898388D02*
X18055777Y-11917436D01*
X18055777Y-11917436D02*
X18046253Y-11926960D01*
X18046253Y-11926960D02*
X18027206Y-11936484D01*
X18027206Y-11936484D02*
X17998634Y-11936484D01*
X18179587Y-11936484D02*
X18160539Y-11926960D01*
X18160539Y-11926960D02*
X18151015Y-11907912D01*
X18151015Y-11907912D02*
X18151015Y-11736484D01*
X18331968Y-11926960D02*
X18312920Y-11936484D01*
X18312920Y-11936484D02*
X18274825Y-11936484D01*
X18274825Y-11936484D02*
X18255777Y-11926960D01*
X18255777Y-11926960D02*
X18246253Y-11907912D01*
X18246253Y-11907912D02*
X18246253Y-11831722D01*
X18246253Y-11831722D02*
X18255777Y-11812674D01*
X18255777Y-11812674D02*
X18274825Y-11803150D01*
X18274825Y-11803150D02*
X18312920Y-11803150D01*
X18312920Y-11803150D02*
X18331968Y-11812674D01*
X18331968Y-11812674D02*
X18341492Y-11831722D01*
X18341492Y-11831722D02*
X18341492Y-11850769D01*
X18341492Y-11850769D02*
X18246253Y-11869817D01*
X18417682Y-11926960D02*
X18436730Y-11936484D01*
X18436730Y-11936484D02*
X18474825Y-11936484D01*
X18474825Y-11936484D02*
X18493873Y-11926960D01*
X18493873Y-11926960D02*
X18503396Y-11907912D01*
X18503396Y-11907912D02*
X18503396Y-11898388D01*
X18503396Y-11898388D02*
X18493873Y-11879341D01*
X18493873Y-11879341D02*
X18474825Y-11869817D01*
X18474825Y-11869817D02*
X18446253Y-11869817D01*
X18446253Y-11869817D02*
X18427206Y-11860293D01*
X18427206Y-11860293D02*
X18417682Y-11841246D01*
X18417682Y-11841246D02*
X18417682Y-11831722D01*
X18417682Y-11831722D02*
X18427206Y-11812674D01*
X18427206Y-11812674D02*
X18446253Y-11803150D01*
X18446253Y-11803150D02*
X18474825Y-11803150D01*
X18474825Y-11803150D02*
X18493873Y-11812674D01*
X18570063Y-12012674D02*
X18579587Y-12003150D01*
X18579587Y-12003150D02*
X18598634Y-11974579D01*
X18598634Y-11974579D02*
X18608158Y-11955531D01*
X18608158Y-11955531D02*
X18617682Y-11926960D01*
X18617682Y-11926960D02*
X18627206Y-11879341D01*
X18627206Y-11879341D02*
X18627206Y-11841246D01*
X18627206Y-11841246D02*
X18617682Y-11793627D01*
X18617682Y-11793627D02*
X18608158Y-11765055D01*
X18608158Y-11765055D02*
X18598634Y-11746008D01*
X18598634Y-11746008D02*
X18579587Y-11717436D01*
X18579587Y-11717436D02*
X18570063Y-11707912D01*
D10*
X13795000Y-12109000D02*
G75*
G02*
X13770000Y-12109000I-12500J0D01*
G01*
X13770000Y-12109000D02*
G75*
G02*
X13795000Y-12109000I12500J0D01*
G01*
D11*
X14093872Y-12000484D02*
X14112920Y-12000484D01*
X14112920Y-12000484D02*
X14131967Y-12010008D01*
X14131967Y-12010008D02*
X14141491Y-12019531D01*
X14141491Y-12019531D02*
X14151015Y-12038579D01*
X14151015Y-12038579D02*
X14160539Y-12076674D01*
X14160539Y-12076674D02*
X14160539Y-12124293D01*
X14160539Y-12124293D02*
X14151015Y-12162388D01*
X14151015Y-12162388D02*
X14141491Y-12181436D01*
X14141491Y-12181436D02*
X14131967Y-12190960D01*
X14131967Y-12190960D02*
X14112920Y-12200484D01*
X14112920Y-12200484D02*
X14093872Y-12200484D01*
X14093872Y-12200484D02*
X14074824Y-12190960D01*
X14074824Y-12190960D02*
X14065301Y-12181436D01*
X14065301Y-12181436D02*
X14055777Y-12162388D01*
X14055777Y-12162388D02*
X14046253Y-12124293D01*
X14046253Y-12124293D02*
X14046253Y-12076674D01*
X14046253Y-12076674D02*
X14055777Y-12038579D01*
X14055777Y-12038579D02*
X14065301Y-12019531D01*
X14065301Y-12019531D02*
X14074824Y-12010008D01*
X14074824Y-12010008D02*
X14093872Y-12000484D01*
X14246253Y-12181436D02*
X14255777Y-12190960D01*
X14255777Y-12190960D02*
X14246253Y-12200484D01*
X14246253Y-12200484D02*
X14236729Y-12190960D01*
X14236729Y-12190960D02*
X14246253Y-12181436D01*
X14246253Y-12181436D02*
X14246253Y-12200484D01*
X14331967Y-12019531D02*
X14341491Y-12010008D01*
X14341491Y-12010008D02*
X14360539Y-12000484D01*
X14360539Y-12000484D02*
X14408158Y-12000484D01*
X14408158Y-12000484D02*
X14427205Y-12010008D01*
X14427205Y-12010008D02*
X14436729Y-12019531D01*
X14436729Y-12019531D02*
X14446253Y-12038579D01*
X14446253Y-12038579D02*
X14446253Y-12057627D01*
X14446253Y-12057627D02*
X14436729Y-12086198D01*
X14436729Y-12086198D02*
X14322443Y-12200484D01*
X14322443Y-12200484D02*
X14446253Y-12200484D01*
X14627205Y-12000484D02*
X14531967Y-12000484D01*
X14531967Y-12000484D02*
X14522443Y-12095722D01*
X14522443Y-12095722D02*
X14531967Y-12086198D01*
X14531967Y-12086198D02*
X14551015Y-12076674D01*
X14551015Y-12076674D02*
X14598634Y-12076674D01*
X14598634Y-12076674D02*
X14617682Y-12086198D01*
X14617682Y-12086198D02*
X14627205Y-12095722D01*
X14627205Y-12095722D02*
X14636729Y-12114769D01*
X14636729Y-12114769D02*
X14636729Y-12162388D01*
X14636729Y-12162388D02*
X14627205Y-12181436D01*
X14627205Y-12181436D02*
X14617682Y-12190960D01*
X14617682Y-12190960D02*
X14598634Y-12200484D01*
X14598634Y-12200484D02*
X14551015Y-12200484D01*
X14551015Y-12200484D02*
X14531967Y-12190960D01*
X14531967Y-12190960D02*
X14522443Y-12181436D01*
X14760539Y-12000484D02*
X14779586Y-12000484D01*
X14779586Y-12000484D02*
X14798634Y-12010008D01*
X14798634Y-12010008D02*
X14808158Y-12019531D01*
X14808158Y-12019531D02*
X14817682Y-12038579D01*
X14817682Y-12038579D02*
X14827205Y-12076674D01*
X14827205Y-12076674D02*
X14827205Y-12124293D01*
X14827205Y-12124293D02*
X14817682Y-12162388D01*
X14817682Y-12162388D02*
X14808158Y-12181436D01*
X14808158Y-12181436D02*
X14798634Y-12190960D01*
X14798634Y-12190960D02*
X14779586Y-12200484D01*
X14779586Y-12200484D02*
X14760539Y-12200484D01*
X14760539Y-12200484D02*
X14741491Y-12190960D01*
X14741491Y-12190960D02*
X14731967Y-12181436D01*
X14731967Y-12181436D02*
X14722443Y-12162388D01*
X14722443Y-12162388D02*
X14712920Y-12124293D01*
X14712920Y-12124293D02*
X14712920Y-12076674D01*
X14712920Y-12076674D02*
X14722443Y-12038579D01*
X14722443Y-12038579D02*
X14731967Y-12019531D01*
X14731967Y-12019531D02*
X14741491Y-12010008D01*
X14741491Y-12010008D02*
X14760539Y-12000484D01*
X14912920Y-12200484D02*
X14912920Y-12067150D01*
X14912920Y-12086198D02*
X14922443Y-12076674D01*
X14922443Y-12076674D02*
X14941491Y-12067150D01*
X14941491Y-12067150D02*
X14970063Y-12067150D01*
X14970063Y-12067150D02*
X14989110Y-12076674D01*
X14989110Y-12076674D02*
X14998634Y-12095722D01*
X14998634Y-12095722D02*
X14998634Y-12200484D01*
X14998634Y-12095722D02*
X15008158Y-12076674D01*
X15008158Y-12076674D02*
X15027205Y-12067150D01*
X15027205Y-12067150D02*
X15055777Y-12067150D01*
X15055777Y-12067150D02*
X15074824Y-12076674D01*
X15074824Y-12076674D02*
X15084348Y-12095722D01*
X15084348Y-12095722D02*
X15084348Y-12200484D01*
X15179586Y-12200484D02*
X15179586Y-12067150D01*
X15179586Y-12086198D02*
X15189110Y-12076674D01*
X15189110Y-12076674D02*
X15208158Y-12067150D01*
X15208158Y-12067150D02*
X15236729Y-12067150D01*
X15236729Y-12067150D02*
X15255777Y-12076674D01*
X15255777Y-12076674D02*
X15265301Y-12095722D01*
X15265301Y-12095722D02*
X15265301Y-12200484D01*
X15265301Y-12095722D02*
X15274824Y-12076674D01*
X15274824Y-12076674D02*
X15293872Y-12067150D01*
X15293872Y-12067150D02*
X15322443Y-12067150D01*
X15322443Y-12067150D02*
X15341491Y-12076674D01*
X15341491Y-12076674D02*
X15351015Y-12095722D01*
X15351015Y-12095722D02*
X15351015Y-12200484D01*
X15741491Y-11990960D02*
X15570063Y-12248103D01*
X15998634Y-12000484D02*
X16017682Y-12000484D01*
X16017682Y-12000484D02*
X16036729Y-12010008D01*
X16036729Y-12010008D02*
X16046253Y-12019531D01*
X16046253Y-12019531D02*
X16055777Y-12038579D01*
X16055777Y-12038579D02*
X16065301Y-12076674D01*
X16065301Y-12076674D02*
X16065301Y-12124293D01*
X16065301Y-12124293D02*
X16055777Y-12162388D01*
X16055777Y-12162388D02*
X16046253Y-12181436D01*
X16046253Y-12181436D02*
X16036729Y-12190960D01*
X16036729Y-12190960D02*
X16017682Y-12200484D01*
X16017682Y-12200484D02*
X15998634Y-12200484D01*
X15998634Y-12200484D02*
X15979586Y-12190960D01*
X15979586Y-12190960D02*
X15970063Y-12181436D01*
X15970063Y-12181436D02*
X15960539Y-12162388D01*
X15960539Y-12162388D02*
X15951015Y-12124293D01*
X15951015Y-12124293D02*
X15951015Y-12076674D01*
X15951015Y-12076674D02*
X15960539Y-12038579D01*
X15960539Y-12038579D02*
X15970063Y-12019531D01*
X15970063Y-12019531D02*
X15979586Y-12010008D01*
X15979586Y-12010008D02*
X15998634Y-12000484D01*
X16151015Y-12181436D02*
X16160539Y-12190960D01*
X16160539Y-12190960D02*
X16151015Y-12200484D01*
X16151015Y-12200484D02*
X16141491Y-12190960D01*
X16141491Y-12190960D02*
X16151015Y-12181436D01*
X16151015Y-12181436D02*
X16151015Y-12200484D01*
X16284348Y-12000484D02*
X16303396Y-12000484D01*
X16303396Y-12000484D02*
X16322444Y-12010008D01*
X16322444Y-12010008D02*
X16331967Y-12019531D01*
X16331967Y-12019531D02*
X16341491Y-12038579D01*
X16341491Y-12038579D02*
X16351015Y-12076674D01*
X16351015Y-12076674D02*
X16351015Y-12124293D01*
X16351015Y-12124293D02*
X16341491Y-12162388D01*
X16341491Y-12162388D02*
X16331967Y-12181436D01*
X16331967Y-12181436D02*
X16322444Y-12190960D01*
X16322444Y-12190960D02*
X16303396Y-12200484D01*
X16303396Y-12200484D02*
X16284348Y-12200484D01*
X16284348Y-12200484D02*
X16265301Y-12190960D01*
X16265301Y-12190960D02*
X16255777Y-12181436D01*
X16255777Y-12181436D02*
X16246253Y-12162388D01*
X16246253Y-12162388D02*
X16236729Y-12124293D01*
X16236729Y-12124293D02*
X16236729Y-12076674D01*
X16236729Y-12076674D02*
X16246253Y-12038579D01*
X16246253Y-12038579D02*
X16255777Y-12019531D01*
X16255777Y-12019531D02*
X16265301Y-12010008D01*
X16265301Y-12010008D02*
X16284348Y-12000484D01*
X16474825Y-12000484D02*
X16493872Y-12000484D01*
X16493872Y-12000484D02*
X16512920Y-12010008D01*
X16512920Y-12010008D02*
X16522444Y-12019531D01*
X16522444Y-12019531D02*
X16531967Y-12038579D01*
X16531967Y-12038579D02*
X16541491Y-12076674D01*
X16541491Y-12076674D02*
X16541491Y-12124293D01*
X16541491Y-12124293D02*
X16531967Y-12162388D01*
X16531967Y-12162388D02*
X16522444Y-12181436D01*
X16522444Y-12181436D02*
X16512920Y-12190960D01*
X16512920Y-12190960D02*
X16493872Y-12200484D01*
X16493872Y-12200484D02*
X16474825Y-12200484D01*
X16474825Y-12200484D02*
X16455777Y-12190960D01*
X16455777Y-12190960D02*
X16446253Y-12181436D01*
X16446253Y-12181436D02*
X16436729Y-12162388D01*
X16436729Y-12162388D02*
X16427206Y-12124293D01*
X16427206Y-12124293D02*
X16427206Y-12076674D01*
X16427206Y-12076674D02*
X16436729Y-12038579D01*
X16436729Y-12038579D02*
X16446253Y-12019531D01*
X16446253Y-12019531D02*
X16455777Y-12010008D01*
X16455777Y-12010008D02*
X16474825Y-12000484D01*
X16636729Y-12200484D02*
X16674825Y-12200484D01*
X16674825Y-12200484D02*
X16693872Y-12190960D01*
X16693872Y-12190960D02*
X16703396Y-12181436D01*
X16703396Y-12181436D02*
X16722444Y-12152865D01*
X16722444Y-12152865D02*
X16731967Y-12114769D01*
X16731967Y-12114769D02*
X16731967Y-12038579D01*
X16731967Y-12038579D02*
X16722444Y-12019531D01*
X16722444Y-12019531D02*
X16712920Y-12010008D01*
X16712920Y-12010008D02*
X16693872Y-12000484D01*
X16693872Y-12000484D02*
X16655777Y-12000484D01*
X16655777Y-12000484D02*
X16636729Y-12010008D01*
X16636729Y-12010008D02*
X16627206Y-12019531D01*
X16627206Y-12019531D02*
X16617682Y-12038579D01*
X16617682Y-12038579D02*
X16617682Y-12086198D01*
X16617682Y-12086198D02*
X16627206Y-12105246D01*
X16627206Y-12105246D02*
X16636729Y-12114769D01*
X16636729Y-12114769D02*
X16655777Y-12124293D01*
X16655777Y-12124293D02*
X16693872Y-12124293D01*
X16693872Y-12124293D02*
X16712920Y-12114769D01*
X16712920Y-12114769D02*
X16722444Y-12105246D01*
X16722444Y-12105246D02*
X16731967Y-12086198D01*
X16846253Y-12086198D02*
X16827206Y-12076674D01*
X16827206Y-12076674D02*
X16817682Y-12067150D01*
X16817682Y-12067150D02*
X16808158Y-12048103D01*
X16808158Y-12048103D02*
X16808158Y-12038579D01*
X16808158Y-12038579D02*
X16817682Y-12019531D01*
X16817682Y-12019531D02*
X16827206Y-12010008D01*
X16827206Y-12010008D02*
X16846253Y-12000484D01*
X16846253Y-12000484D02*
X16884349Y-12000484D01*
X16884349Y-12000484D02*
X16903396Y-12010008D01*
X16903396Y-12010008D02*
X16912920Y-12019531D01*
X16912920Y-12019531D02*
X16922444Y-12038579D01*
X16922444Y-12038579D02*
X16922444Y-12048103D01*
X16922444Y-12048103D02*
X16912920Y-12067150D01*
X16912920Y-12067150D02*
X16903396Y-12076674D01*
X16903396Y-12076674D02*
X16884349Y-12086198D01*
X16884349Y-12086198D02*
X16846253Y-12086198D01*
X16846253Y-12086198D02*
X16827206Y-12095722D01*
X16827206Y-12095722D02*
X16817682Y-12105246D01*
X16817682Y-12105246D02*
X16808158Y-12124293D01*
X16808158Y-12124293D02*
X16808158Y-12162388D01*
X16808158Y-12162388D02*
X16817682Y-12181436D01*
X16817682Y-12181436D02*
X16827206Y-12190960D01*
X16827206Y-12190960D02*
X16846253Y-12200484D01*
X16846253Y-12200484D02*
X16884349Y-12200484D01*
X16884349Y-12200484D02*
X16903396Y-12190960D01*
X16903396Y-12190960D02*
X16912920Y-12181436D01*
X16912920Y-12181436D02*
X16922444Y-12162388D01*
X16922444Y-12162388D02*
X16922444Y-12124293D01*
X16922444Y-12124293D02*
X16912920Y-12105246D01*
X16912920Y-12105246D02*
X16903396Y-12095722D01*
X16903396Y-12095722D02*
X16884349Y-12086198D01*
X16998634Y-12000484D02*
X16998634Y-12038579D01*
X17074825Y-12000484D02*
X17074825Y-12038579D01*
X17370063Y-12276674D02*
X17360539Y-12267150D01*
X17360539Y-12267150D02*
X17341491Y-12238579D01*
X17341491Y-12238579D02*
X17331968Y-12219531D01*
X17331968Y-12219531D02*
X17322444Y-12190960D01*
X17322444Y-12190960D02*
X17312920Y-12143341D01*
X17312920Y-12143341D02*
X17312920Y-12105246D01*
X17312920Y-12105246D02*
X17322444Y-12057627D01*
X17322444Y-12057627D02*
X17331968Y-12029055D01*
X17331968Y-12029055D02*
X17341491Y-12010008D01*
X17341491Y-12010008D02*
X17360539Y-11981436D01*
X17360539Y-11981436D02*
X17370063Y-11971912D01*
X17427206Y-12000484D02*
X17551015Y-12000484D01*
X17551015Y-12000484D02*
X17484349Y-12076674D01*
X17484349Y-12076674D02*
X17512920Y-12076674D01*
X17512920Y-12076674D02*
X17531968Y-12086198D01*
X17531968Y-12086198D02*
X17541491Y-12095722D01*
X17541491Y-12095722D02*
X17551015Y-12114769D01*
X17551015Y-12114769D02*
X17551015Y-12162388D01*
X17551015Y-12162388D02*
X17541491Y-12181436D01*
X17541491Y-12181436D02*
X17531968Y-12190960D01*
X17531968Y-12190960D02*
X17512920Y-12200484D01*
X17512920Y-12200484D02*
X17455777Y-12200484D01*
X17455777Y-12200484D02*
X17436730Y-12190960D01*
X17436730Y-12190960D02*
X17427206Y-12181436D01*
X17789111Y-12200484D02*
X17789111Y-12000484D01*
X17874825Y-12200484D02*
X17874825Y-12095722D01*
X17874825Y-12095722D02*
X17865301Y-12076674D01*
X17865301Y-12076674D02*
X17846253Y-12067150D01*
X17846253Y-12067150D02*
X17817682Y-12067150D01*
X17817682Y-12067150D02*
X17798634Y-12076674D01*
X17798634Y-12076674D02*
X17789111Y-12086198D01*
X17998634Y-12200484D02*
X17979587Y-12190960D01*
X17979587Y-12190960D02*
X17970063Y-12181436D01*
X17970063Y-12181436D02*
X17960539Y-12162388D01*
X17960539Y-12162388D02*
X17960539Y-12105246D01*
X17960539Y-12105246D02*
X17970063Y-12086198D01*
X17970063Y-12086198D02*
X17979587Y-12076674D01*
X17979587Y-12076674D02*
X17998634Y-12067150D01*
X17998634Y-12067150D02*
X18027206Y-12067150D01*
X18027206Y-12067150D02*
X18046253Y-12076674D01*
X18046253Y-12076674D02*
X18055777Y-12086198D01*
X18055777Y-12086198D02*
X18065301Y-12105246D01*
X18065301Y-12105246D02*
X18065301Y-12162388D01*
X18065301Y-12162388D02*
X18055777Y-12181436D01*
X18055777Y-12181436D02*
X18046253Y-12190960D01*
X18046253Y-12190960D02*
X18027206Y-12200484D01*
X18027206Y-12200484D02*
X17998634Y-12200484D01*
X18179587Y-12200484D02*
X18160539Y-12190960D01*
X18160539Y-12190960D02*
X18151015Y-12171912D01*
X18151015Y-12171912D02*
X18151015Y-12000484D01*
X18331968Y-12190960D02*
X18312920Y-12200484D01*
X18312920Y-12200484D02*
X18274825Y-12200484D01*
X18274825Y-12200484D02*
X18255777Y-12190960D01*
X18255777Y-12190960D02*
X18246253Y-12171912D01*
X18246253Y-12171912D02*
X18246253Y-12095722D01*
X18246253Y-12095722D02*
X18255777Y-12076674D01*
X18255777Y-12076674D02*
X18274825Y-12067150D01*
X18274825Y-12067150D02*
X18312920Y-12067150D01*
X18312920Y-12067150D02*
X18331968Y-12076674D01*
X18331968Y-12076674D02*
X18341492Y-12095722D01*
X18341492Y-12095722D02*
X18341492Y-12114769D01*
X18341492Y-12114769D02*
X18246253Y-12133817D01*
X18417682Y-12190960D02*
X18436730Y-12200484D01*
X18436730Y-12200484D02*
X18474825Y-12200484D01*
X18474825Y-12200484D02*
X18493873Y-12190960D01*
X18493873Y-12190960D02*
X18503396Y-12171912D01*
X18503396Y-12171912D02*
X18503396Y-12162388D01*
X18503396Y-12162388D02*
X18493873Y-12143341D01*
X18493873Y-12143341D02*
X18474825Y-12133817D01*
X18474825Y-12133817D02*
X18446253Y-12133817D01*
X18446253Y-12133817D02*
X18427206Y-12124293D01*
X18427206Y-12124293D02*
X18417682Y-12105246D01*
X18417682Y-12105246D02*
X18417682Y-12095722D01*
X18417682Y-12095722D02*
X18427206Y-12076674D01*
X18427206Y-12076674D02*
X18446253Y-12067150D01*
X18446253Y-12067150D02*
X18474825Y-12067150D01*
X18474825Y-12067150D02*
X18493873Y-12076674D01*
X18570063Y-12276674D02*
X18579587Y-12267150D01*
X18579587Y-12267150D02*
X18598634Y-12238579D01*
X18598634Y-12238579D02*
X18608158Y-12219531D01*
X18608158Y-12219531D02*
X18617682Y-12190960D01*
X18617682Y-12190960D02*
X18627206Y-12143341D01*
X18627206Y-12143341D02*
X18627206Y-12105246D01*
X18627206Y-12105246D02*
X18617682Y-12057627D01*
X18617682Y-12057627D02*
X18608158Y-12029055D01*
X18608158Y-12029055D02*
X18598634Y-12010008D01*
X18598634Y-12010008D02*
X18579587Y-11981436D01*
X18579587Y-11981436D02*
X18570063Y-11971912D01*
D10*
X13780000Y-12358000D02*
X13780000Y-12388000D01*
X13765000Y-12373000D02*
X13795000Y-12373000D01*
D11*
X14093872Y-12264484D02*
X14112920Y-12264484D01*
X14112920Y-12264484D02*
X14131967Y-12274008D01*
X14131967Y-12274008D02*
X14141491Y-12283531D01*
X14141491Y-12283531D02*
X14151015Y-12302579D01*
X14151015Y-12302579D02*
X14160539Y-12340674D01*
X14160539Y-12340674D02*
X14160539Y-12388293D01*
X14160539Y-12388293D02*
X14151015Y-12426388D01*
X14151015Y-12426388D02*
X14141491Y-12445436D01*
X14141491Y-12445436D02*
X14131967Y-12454960D01*
X14131967Y-12454960D02*
X14112920Y-12464484D01*
X14112920Y-12464484D02*
X14093872Y-12464484D01*
X14093872Y-12464484D02*
X14074824Y-12454960D01*
X14074824Y-12454960D02*
X14065301Y-12445436D01*
X14065301Y-12445436D02*
X14055777Y-12426388D01*
X14055777Y-12426388D02*
X14046253Y-12388293D01*
X14046253Y-12388293D02*
X14046253Y-12340674D01*
X14046253Y-12340674D02*
X14055777Y-12302579D01*
X14055777Y-12302579D02*
X14065301Y-12283531D01*
X14065301Y-12283531D02*
X14074824Y-12274008D01*
X14074824Y-12274008D02*
X14093872Y-12264484D01*
X14246253Y-12445436D02*
X14255777Y-12454960D01*
X14255777Y-12454960D02*
X14246253Y-12464484D01*
X14246253Y-12464484D02*
X14236729Y-12454960D01*
X14236729Y-12454960D02*
X14246253Y-12445436D01*
X14246253Y-12445436D02*
X14246253Y-12464484D01*
X14322443Y-12264484D02*
X14446253Y-12264484D01*
X14446253Y-12264484D02*
X14379586Y-12340674D01*
X14379586Y-12340674D02*
X14408158Y-12340674D01*
X14408158Y-12340674D02*
X14427205Y-12350198D01*
X14427205Y-12350198D02*
X14436729Y-12359722D01*
X14436729Y-12359722D02*
X14446253Y-12378769D01*
X14446253Y-12378769D02*
X14446253Y-12426388D01*
X14446253Y-12426388D02*
X14436729Y-12445436D01*
X14436729Y-12445436D02*
X14427205Y-12454960D01*
X14427205Y-12454960D02*
X14408158Y-12464484D01*
X14408158Y-12464484D02*
X14351015Y-12464484D01*
X14351015Y-12464484D02*
X14331967Y-12454960D01*
X14331967Y-12454960D02*
X14322443Y-12445436D01*
X14570062Y-12264484D02*
X14589110Y-12264484D01*
X14589110Y-12264484D02*
X14608158Y-12274008D01*
X14608158Y-12274008D02*
X14617682Y-12283531D01*
X14617682Y-12283531D02*
X14627205Y-12302579D01*
X14627205Y-12302579D02*
X14636729Y-12340674D01*
X14636729Y-12340674D02*
X14636729Y-12388293D01*
X14636729Y-12388293D02*
X14627205Y-12426388D01*
X14627205Y-12426388D02*
X14617682Y-12445436D01*
X14617682Y-12445436D02*
X14608158Y-12454960D01*
X14608158Y-12454960D02*
X14589110Y-12464484D01*
X14589110Y-12464484D02*
X14570062Y-12464484D01*
X14570062Y-12464484D02*
X14551015Y-12454960D01*
X14551015Y-12454960D02*
X14541491Y-12445436D01*
X14541491Y-12445436D02*
X14531967Y-12426388D01*
X14531967Y-12426388D02*
X14522443Y-12388293D01*
X14522443Y-12388293D02*
X14522443Y-12340674D01*
X14522443Y-12340674D02*
X14531967Y-12302579D01*
X14531967Y-12302579D02*
X14541491Y-12283531D01*
X14541491Y-12283531D02*
X14551015Y-12274008D01*
X14551015Y-12274008D02*
X14570062Y-12264484D01*
X14760539Y-12264484D02*
X14779586Y-12264484D01*
X14779586Y-12264484D02*
X14798634Y-12274008D01*
X14798634Y-12274008D02*
X14808158Y-12283531D01*
X14808158Y-12283531D02*
X14817682Y-12302579D01*
X14817682Y-12302579D02*
X14827205Y-12340674D01*
X14827205Y-12340674D02*
X14827205Y-12388293D01*
X14827205Y-12388293D02*
X14817682Y-12426388D01*
X14817682Y-12426388D02*
X14808158Y-12445436D01*
X14808158Y-12445436D02*
X14798634Y-12454960D01*
X14798634Y-12454960D02*
X14779586Y-12464484D01*
X14779586Y-12464484D02*
X14760539Y-12464484D01*
X14760539Y-12464484D02*
X14741491Y-12454960D01*
X14741491Y-12454960D02*
X14731967Y-12445436D01*
X14731967Y-12445436D02*
X14722443Y-12426388D01*
X14722443Y-12426388D02*
X14712920Y-12388293D01*
X14712920Y-12388293D02*
X14712920Y-12340674D01*
X14712920Y-12340674D02*
X14722443Y-12302579D01*
X14722443Y-12302579D02*
X14731967Y-12283531D01*
X14731967Y-12283531D02*
X14741491Y-12274008D01*
X14741491Y-12274008D02*
X14760539Y-12264484D01*
X14912920Y-12464484D02*
X14912920Y-12331150D01*
X14912920Y-12350198D02*
X14922443Y-12340674D01*
X14922443Y-12340674D02*
X14941491Y-12331150D01*
X14941491Y-12331150D02*
X14970063Y-12331150D01*
X14970063Y-12331150D02*
X14989110Y-12340674D01*
X14989110Y-12340674D02*
X14998634Y-12359722D01*
X14998634Y-12359722D02*
X14998634Y-12464484D01*
X14998634Y-12359722D02*
X15008158Y-12340674D01*
X15008158Y-12340674D02*
X15027205Y-12331150D01*
X15027205Y-12331150D02*
X15055777Y-12331150D01*
X15055777Y-12331150D02*
X15074824Y-12340674D01*
X15074824Y-12340674D02*
X15084348Y-12359722D01*
X15084348Y-12359722D02*
X15084348Y-12464484D01*
X15179586Y-12464484D02*
X15179586Y-12331150D01*
X15179586Y-12350198D02*
X15189110Y-12340674D01*
X15189110Y-12340674D02*
X15208158Y-12331150D01*
X15208158Y-12331150D02*
X15236729Y-12331150D01*
X15236729Y-12331150D02*
X15255777Y-12340674D01*
X15255777Y-12340674D02*
X15265301Y-12359722D01*
X15265301Y-12359722D02*
X15265301Y-12464484D01*
X15265301Y-12359722D02*
X15274824Y-12340674D01*
X15274824Y-12340674D02*
X15293872Y-12331150D01*
X15293872Y-12331150D02*
X15322443Y-12331150D01*
X15322443Y-12331150D02*
X15341491Y-12340674D01*
X15341491Y-12340674D02*
X15351015Y-12359722D01*
X15351015Y-12359722D02*
X15351015Y-12464484D01*
X15741491Y-12254960D02*
X15570063Y-12512103D01*
X15998634Y-12264484D02*
X16017682Y-12264484D01*
X16017682Y-12264484D02*
X16036729Y-12274008D01*
X16036729Y-12274008D02*
X16046253Y-12283531D01*
X16046253Y-12283531D02*
X16055777Y-12302579D01*
X16055777Y-12302579D02*
X16065301Y-12340674D01*
X16065301Y-12340674D02*
X16065301Y-12388293D01*
X16065301Y-12388293D02*
X16055777Y-12426388D01*
X16055777Y-12426388D02*
X16046253Y-12445436D01*
X16046253Y-12445436D02*
X16036729Y-12454960D01*
X16036729Y-12454960D02*
X16017682Y-12464484D01*
X16017682Y-12464484D02*
X15998634Y-12464484D01*
X15998634Y-12464484D02*
X15979586Y-12454960D01*
X15979586Y-12454960D02*
X15970063Y-12445436D01*
X15970063Y-12445436D02*
X15960539Y-12426388D01*
X15960539Y-12426388D02*
X15951015Y-12388293D01*
X15951015Y-12388293D02*
X15951015Y-12340674D01*
X15951015Y-12340674D02*
X15960539Y-12302579D01*
X15960539Y-12302579D02*
X15970063Y-12283531D01*
X15970063Y-12283531D02*
X15979586Y-12274008D01*
X15979586Y-12274008D02*
X15998634Y-12264484D01*
X16151015Y-12445436D02*
X16160539Y-12454960D01*
X16160539Y-12454960D02*
X16151015Y-12464484D01*
X16151015Y-12464484D02*
X16141491Y-12454960D01*
X16141491Y-12454960D02*
X16151015Y-12445436D01*
X16151015Y-12445436D02*
X16151015Y-12464484D01*
X16284348Y-12264484D02*
X16303396Y-12264484D01*
X16303396Y-12264484D02*
X16322444Y-12274008D01*
X16322444Y-12274008D02*
X16331967Y-12283531D01*
X16331967Y-12283531D02*
X16341491Y-12302579D01*
X16341491Y-12302579D02*
X16351015Y-12340674D01*
X16351015Y-12340674D02*
X16351015Y-12388293D01*
X16351015Y-12388293D02*
X16341491Y-12426388D01*
X16341491Y-12426388D02*
X16331967Y-12445436D01*
X16331967Y-12445436D02*
X16322444Y-12454960D01*
X16322444Y-12454960D02*
X16303396Y-12464484D01*
X16303396Y-12464484D02*
X16284348Y-12464484D01*
X16284348Y-12464484D02*
X16265301Y-12454960D01*
X16265301Y-12454960D02*
X16255777Y-12445436D01*
X16255777Y-12445436D02*
X16246253Y-12426388D01*
X16246253Y-12426388D02*
X16236729Y-12388293D01*
X16236729Y-12388293D02*
X16236729Y-12340674D01*
X16236729Y-12340674D02*
X16246253Y-12302579D01*
X16246253Y-12302579D02*
X16255777Y-12283531D01*
X16255777Y-12283531D02*
X16265301Y-12274008D01*
X16265301Y-12274008D02*
X16284348Y-12264484D01*
X16541491Y-12464484D02*
X16427206Y-12464484D01*
X16484348Y-12464484D02*
X16484348Y-12264484D01*
X16484348Y-12264484D02*
X16465301Y-12293055D01*
X16465301Y-12293055D02*
X16446253Y-12312103D01*
X16446253Y-12312103D02*
X16427206Y-12321627D01*
X16731967Y-12464484D02*
X16617682Y-12464484D01*
X16674825Y-12464484D02*
X16674825Y-12264484D01*
X16674825Y-12264484D02*
X16655777Y-12293055D01*
X16655777Y-12293055D02*
X16636729Y-12312103D01*
X16636729Y-12312103D02*
X16617682Y-12321627D01*
X16846253Y-12350198D02*
X16827206Y-12340674D01*
X16827206Y-12340674D02*
X16817682Y-12331150D01*
X16817682Y-12331150D02*
X16808158Y-12312103D01*
X16808158Y-12312103D02*
X16808158Y-12302579D01*
X16808158Y-12302579D02*
X16817682Y-12283531D01*
X16817682Y-12283531D02*
X16827206Y-12274008D01*
X16827206Y-12274008D02*
X16846253Y-12264484D01*
X16846253Y-12264484D02*
X16884349Y-12264484D01*
X16884349Y-12264484D02*
X16903396Y-12274008D01*
X16903396Y-12274008D02*
X16912920Y-12283531D01*
X16912920Y-12283531D02*
X16922444Y-12302579D01*
X16922444Y-12302579D02*
X16922444Y-12312103D01*
X16922444Y-12312103D02*
X16912920Y-12331150D01*
X16912920Y-12331150D02*
X16903396Y-12340674D01*
X16903396Y-12340674D02*
X16884349Y-12350198D01*
X16884349Y-12350198D02*
X16846253Y-12350198D01*
X16846253Y-12350198D02*
X16827206Y-12359722D01*
X16827206Y-12359722D02*
X16817682Y-12369246D01*
X16817682Y-12369246D02*
X16808158Y-12388293D01*
X16808158Y-12388293D02*
X16808158Y-12426388D01*
X16808158Y-12426388D02*
X16817682Y-12445436D01*
X16817682Y-12445436D02*
X16827206Y-12454960D01*
X16827206Y-12454960D02*
X16846253Y-12464484D01*
X16846253Y-12464484D02*
X16884349Y-12464484D01*
X16884349Y-12464484D02*
X16903396Y-12454960D01*
X16903396Y-12454960D02*
X16912920Y-12445436D01*
X16912920Y-12445436D02*
X16922444Y-12426388D01*
X16922444Y-12426388D02*
X16922444Y-12388293D01*
X16922444Y-12388293D02*
X16912920Y-12369246D01*
X16912920Y-12369246D02*
X16903396Y-12359722D01*
X16903396Y-12359722D02*
X16884349Y-12350198D01*
X16998634Y-12264484D02*
X16998634Y-12302579D01*
X17074825Y-12264484D02*
X17074825Y-12302579D01*
X17370063Y-12540674D02*
X17360539Y-12531150D01*
X17360539Y-12531150D02*
X17341491Y-12502579D01*
X17341491Y-12502579D02*
X17331968Y-12483531D01*
X17331968Y-12483531D02*
X17322444Y-12454960D01*
X17322444Y-12454960D02*
X17312920Y-12407341D01*
X17312920Y-12407341D02*
X17312920Y-12369246D01*
X17312920Y-12369246D02*
X17322444Y-12321627D01*
X17322444Y-12321627D02*
X17331968Y-12293055D01*
X17331968Y-12293055D02*
X17341491Y-12274008D01*
X17341491Y-12274008D02*
X17360539Y-12245436D01*
X17360539Y-12245436D02*
X17370063Y-12235912D01*
X17427206Y-12264484D02*
X17560539Y-12264484D01*
X17560539Y-12264484D02*
X17474825Y-12464484D01*
X17646253Y-12464484D02*
X17684349Y-12464484D01*
X17684349Y-12464484D02*
X17703396Y-12454960D01*
X17703396Y-12454960D02*
X17712920Y-12445436D01*
X17712920Y-12445436D02*
X17731968Y-12416865D01*
X17731968Y-12416865D02*
X17741491Y-12378769D01*
X17741491Y-12378769D02*
X17741491Y-12302579D01*
X17741491Y-12302579D02*
X17731968Y-12283531D01*
X17731968Y-12283531D02*
X17722444Y-12274008D01*
X17722444Y-12274008D02*
X17703396Y-12264484D01*
X17703396Y-12264484D02*
X17665301Y-12264484D01*
X17665301Y-12264484D02*
X17646253Y-12274008D01*
X17646253Y-12274008D02*
X17636730Y-12283531D01*
X17636730Y-12283531D02*
X17627206Y-12302579D01*
X17627206Y-12302579D02*
X17627206Y-12350198D01*
X17627206Y-12350198D02*
X17636730Y-12369246D01*
X17636730Y-12369246D02*
X17646253Y-12378769D01*
X17646253Y-12378769D02*
X17665301Y-12388293D01*
X17665301Y-12388293D02*
X17703396Y-12388293D01*
X17703396Y-12388293D02*
X17722444Y-12378769D01*
X17722444Y-12378769D02*
X17731968Y-12369246D01*
X17731968Y-12369246D02*
X17741491Y-12350198D01*
X17979587Y-12464484D02*
X17979587Y-12264484D01*
X18065301Y-12464484D02*
X18065301Y-12359722D01*
X18065301Y-12359722D02*
X18055777Y-12340674D01*
X18055777Y-12340674D02*
X18036730Y-12331150D01*
X18036730Y-12331150D02*
X18008158Y-12331150D01*
X18008158Y-12331150D02*
X17989111Y-12340674D01*
X17989111Y-12340674D02*
X17979587Y-12350198D01*
X18189111Y-12464484D02*
X18170063Y-12454960D01*
X18170063Y-12454960D02*
X18160539Y-12445436D01*
X18160539Y-12445436D02*
X18151015Y-12426388D01*
X18151015Y-12426388D02*
X18151015Y-12369246D01*
X18151015Y-12369246D02*
X18160539Y-12350198D01*
X18160539Y-12350198D02*
X18170063Y-12340674D01*
X18170063Y-12340674D02*
X18189111Y-12331150D01*
X18189111Y-12331150D02*
X18217682Y-12331150D01*
X18217682Y-12331150D02*
X18236730Y-12340674D01*
X18236730Y-12340674D02*
X18246253Y-12350198D01*
X18246253Y-12350198D02*
X18255777Y-12369246D01*
X18255777Y-12369246D02*
X18255777Y-12426388D01*
X18255777Y-12426388D02*
X18246253Y-12445436D01*
X18246253Y-12445436D02*
X18236730Y-12454960D01*
X18236730Y-12454960D02*
X18217682Y-12464484D01*
X18217682Y-12464484D02*
X18189111Y-12464484D01*
X18370063Y-12464484D02*
X18351015Y-12454960D01*
X18351015Y-12454960D02*
X18341492Y-12435912D01*
X18341492Y-12435912D02*
X18341492Y-12264484D01*
X18522444Y-12454960D02*
X18503396Y-12464484D01*
X18503396Y-12464484D02*
X18465301Y-12464484D01*
X18465301Y-12464484D02*
X18446253Y-12454960D01*
X18446253Y-12454960D02*
X18436730Y-12435912D01*
X18436730Y-12435912D02*
X18436730Y-12359722D01*
X18436730Y-12359722D02*
X18446253Y-12340674D01*
X18446253Y-12340674D02*
X18465301Y-12331150D01*
X18465301Y-12331150D02*
X18503396Y-12331150D01*
X18503396Y-12331150D02*
X18522444Y-12340674D01*
X18522444Y-12340674D02*
X18531968Y-12359722D01*
X18531968Y-12359722D02*
X18531968Y-12378769D01*
X18531968Y-12378769D02*
X18436730Y-12397817D01*
X18608158Y-12454960D02*
X18627206Y-12464484D01*
X18627206Y-12464484D02*
X18665301Y-12464484D01*
X18665301Y-12464484D02*
X18684349Y-12454960D01*
X18684349Y-12454960D02*
X18693873Y-12435912D01*
X18693873Y-12435912D02*
X18693873Y-12426388D01*
X18693873Y-12426388D02*
X18684349Y-12407341D01*
X18684349Y-12407341D02*
X18665301Y-12397817D01*
X18665301Y-12397817D02*
X18636730Y-12397817D01*
X18636730Y-12397817D02*
X18617682Y-12388293D01*
X18617682Y-12388293D02*
X18608158Y-12369246D01*
X18608158Y-12369246D02*
X18608158Y-12359722D01*
X18608158Y-12359722D02*
X18617682Y-12340674D01*
X18617682Y-12340674D02*
X18636730Y-12331150D01*
X18636730Y-12331150D02*
X18665301Y-12331150D01*
X18665301Y-12331150D02*
X18684349Y-12340674D01*
X18760539Y-12540674D02*
X18770063Y-12531150D01*
X18770063Y-12531150D02*
X18789111Y-12502579D01*
X18789111Y-12502579D02*
X18798634Y-12483531D01*
X18798634Y-12483531D02*
X18808158Y-12454960D01*
X18808158Y-12454960D02*
X18817682Y-12407341D01*
X18817682Y-12407341D02*
X18817682Y-12369246D01*
X18817682Y-12369246D02*
X18808158Y-12321627D01*
X18808158Y-12321627D02*
X18798634Y-12293055D01*
X18798634Y-12293055D02*
X18789111Y-12274008D01*
X18789111Y-12274008D02*
X18770063Y-12245436D01*
X18770063Y-12245436D02*
X18760539Y-12235912D01*
D10*
X13780356Y-12672356D02*
X13780356Y-12601644D01*
X13709644Y-12601644D01*
X13709644Y-12672356D01*
X13780356Y-12672356D01*
D11*
X14160539Y-12728484D02*
X14046253Y-12728484D01*
X14103396Y-12728484D02*
X14103396Y-12528484D01*
X14103396Y-12528484D02*
X14084348Y-12557055D01*
X14084348Y-12557055D02*
X14065301Y-12576103D01*
X14065301Y-12576103D02*
X14046253Y-12585627D01*
X14246253Y-12709436D02*
X14255777Y-12718960D01*
X14255777Y-12718960D02*
X14246253Y-12728484D01*
X14246253Y-12728484D02*
X14236729Y-12718960D01*
X14236729Y-12718960D02*
X14246253Y-12709436D01*
X14246253Y-12709436D02*
X14246253Y-12728484D01*
X14379586Y-12528484D02*
X14398634Y-12528484D01*
X14398634Y-12528484D02*
X14417682Y-12538008D01*
X14417682Y-12538008D02*
X14427205Y-12547531D01*
X14427205Y-12547531D02*
X14436729Y-12566579D01*
X14436729Y-12566579D02*
X14446253Y-12604674D01*
X14446253Y-12604674D02*
X14446253Y-12652293D01*
X14446253Y-12652293D02*
X14436729Y-12690388D01*
X14436729Y-12690388D02*
X14427205Y-12709436D01*
X14427205Y-12709436D02*
X14417682Y-12718960D01*
X14417682Y-12718960D02*
X14398634Y-12728484D01*
X14398634Y-12728484D02*
X14379586Y-12728484D01*
X14379586Y-12728484D02*
X14360539Y-12718960D01*
X14360539Y-12718960D02*
X14351015Y-12709436D01*
X14351015Y-12709436D02*
X14341491Y-12690388D01*
X14341491Y-12690388D02*
X14331967Y-12652293D01*
X14331967Y-12652293D02*
X14331967Y-12604674D01*
X14331967Y-12604674D02*
X14341491Y-12566579D01*
X14341491Y-12566579D02*
X14351015Y-12547531D01*
X14351015Y-12547531D02*
X14360539Y-12538008D01*
X14360539Y-12538008D02*
X14379586Y-12528484D01*
X14570062Y-12528484D02*
X14589110Y-12528484D01*
X14589110Y-12528484D02*
X14608158Y-12538008D01*
X14608158Y-12538008D02*
X14617682Y-12547531D01*
X14617682Y-12547531D02*
X14627205Y-12566579D01*
X14627205Y-12566579D02*
X14636729Y-12604674D01*
X14636729Y-12604674D02*
X14636729Y-12652293D01*
X14636729Y-12652293D02*
X14627205Y-12690388D01*
X14627205Y-12690388D02*
X14617682Y-12709436D01*
X14617682Y-12709436D02*
X14608158Y-12718960D01*
X14608158Y-12718960D02*
X14589110Y-12728484D01*
X14589110Y-12728484D02*
X14570062Y-12728484D01*
X14570062Y-12728484D02*
X14551015Y-12718960D01*
X14551015Y-12718960D02*
X14541491Y-12709436D01*
X14541491Y-12709436D02*
X14531967Y-12690388D01*
X14531967Y-12690388D02*
X14522443Y-12652293D01*
X14522443Y-12652293D02*
X14522443Y-12604674D01*
X14522443Y-12604674D02*
X14531967Y-12566579D01*
X14531967Y-12566579D02*
X14541491Y-12547531D01*
X14541491Y-12547531D02*
X14551015Y-12538008D01*
X14551015Y-12538008D02*
X14570062Y-12528484D01*
X14760539Y-12528484D02*
X14779586Y-12528484D01*
X14779586Y-12528484D02*
X14798634Y-12538008D01*
X14798634Y-12538008D02*
X14808158Y-12547531D01*
X14808158Y-12547531D02*
X14817682Y-12566579D01*
X14817682Y-12566579D02*
X14827205Y-12604674D01*
X14827205Y-12604674D02*
X14827205Y-12652293D01*
X14827205Y-12652293D02*
X14817682Y-12690388D01*
X14817682Y-12690388D02*
X14808158Y-12709436D01*
X14808158Y-12709436D02*
X14798634Y-12718960D01*
X14798634Y-12718960D02*
X14779586Y-12728484D01*
X14779586Y-12728484D02*
X14760539Y-12728484D01*
X14760539Y-12728484D02*
X14741491Y-12718960D01*
X14741491Y-12718960D02*
X14731967Y-12709436D01*
X14731967Y-12709436D02*
X14722443Y-12690388D01*
X14722443Y-12690388D02*
X14712920Y-12652293D01*
X14712920Y-12652293D02*
X14712920Y-12604674D01*
X14712920Y-12604674D02*
X14722443Y-12566579D01*
X14722443Y-12566579D02*
X14731967Y-12547531D01*
X14731967Y-12547531D02*
X14741491Y-12538008D01*
X14741491Y-12538008D02*
X14760539Y-12528484D01*
X14912920Y-12728484D02*
X14912920Y-12595150D01*
X14912920Y-12614198D02*
X14922443Y-12604674D01*
X14922443Y-12604674D02*
X14941491Y-12595150D01*
X14941491Y-12595150D02*
X14970063Y-12595150D01*
X14970063Y-12595150D02*
X14989110Y-12604674D01*
X14989110Y-12604674D02*
X14998634Y-12623722D01*
X14998634Y-12623722D02*
X14998634Y-12728484D01*
X14998634Y-12623722D02*
X15008158Y-12604674D01*
X15008158Y-12604674D02*
X15027205Y-12595150D01*
X15027205Y-12595150D02*
X15055777Y-12595150D01*
X15055777Y-12595150D02*
X15074824Y-12604674D01*
X15074824Y-12604674D02*
X15084348Y-12623722D01*
X15084348Y-12623722D02*
X15084348Y-12728484D01*
X15179586Y-12728484D02*
X15179586Y-12595150D01*
X15179586Y-12614198D02*
X15189110Y-12604674D01*
X15189110Y-12604674D02*
X15208158Y-12595150D01*
X15208158Y-12595150D02*
X15236729Y-12595150D01*
X15236729Y-12595150D02*
X15255777Y-12604674D01*
X15255777Y-12604674D02*
X15265301Y-12623722D01*
X15265301Y-12623722D02*
X15265301Y-12728484D01*
X15265301Y-12623722D02*
X15274824Y-12604674D01*
X15274824Y-12604674D02*
X15293872Y-12595150D01*
X15293872Y-12595150D02*
X15322443Y-12595150D01*
X15322443Y-12595150D02*
X15341491Y-12604674D01*
X15341491Y-12604674D02*
X15351015Y-12623722D01*
X15351015Y-12623722D02*
X15351015Y-12728484D01*
X15741491Y-12518960D02*
X15570063Y-12776103D01*
X15998634Y-12528484D02*
X16017682Y-12528484D01*
X16017682Y-12528484D02*
X16036729Y-12538008D01*
X16036729Y-12538008D02*
X16046253Y-12547531D01*
X16046253Y-12547531D02*
X16055777Y-12566579D01*
X16055777Y-12566579D02*
X16065301Y-12604674D01*
X16065301Y-12604674D02*
X16065301Y-12652293D01*
X16065301Y-12652293D02*
X16055777Y-12690388D01*
X16055777Y-12690388D02*
X16046253Y-12709436D01*
X16046253Y-12709436D02*
X16036729Y-12718960D01*
X16036729Y-12718960D02*
X16017682Y-12728484D01*
X16017682Y-12728484D02*
X15998634Y-12728484D01*
X15998634Y-12728484D02*
X15979586Y-12718960D01*
X15979586Y-12718960D02*
X15970063Y-12709436D01*
X15970063Y-12709436D02*
X15960539Y-12690388D01*
X15960539Y-12690388D02*
X15951015Y-12652293D01*
X15951015Y-12652293D02*
X15951015Y-12604674D01*
X15951015Y-12604674D02*
X15960539Y-12566579D01*
X15960539Y-12566579D02*
X15970063Y-12547531D01*
X15970063Y-12547531D02*
X15979586Y-12538008D01*
X15979586Y-12538008D02*
X15998634Y-12528484D01*
X16151015Y-12709436D02*
X16160539Y-12718960D01*
X16160539Y-12718960D02*
X16151015Y-12728484D01*
X16151015Y-12728484D02*
X16141491Y-12718960D01*
X16141491Y-12718960D02*
X16151015Y-12709436D01*
X16151015Y-12709436D02*
X16151015Y-12728484D01*
X16284348Y-12528484D02*
X16303396Y-12528484D01*
X16303396Y-12528484D02*
X16322444Y-12538008D01*
X16322444Y-12538008D02*
X16331967Y-12547531D01*
X16331967Y-12547531D02*
X16341491Y-12566579D01*
X16341491Y-12566579D02*
X16351015Y-12604674D01*
X16351015Y-12604674D02*
X16351015Y-12652293D01*
X16351015Y-12652293D02*
X16341491Y-12690388D01*
X16341491Y-12690388D02*
X16331967Y-12709436D01*
X16331967Y-12709436D02*
X16322444Y-12718960D01*
X16322444Y-12718960D02*
X16303396Y-12728484D01*
X16303396Y-12728484D02*
X16284348Y-12728484D01*
X16284348Y-12728484D02*
X16265301Y-12718960D01*
X16265301Y-12718960D02*
X16255777Y-12709436D01*
X16255777Y-12709436D02*
X16246253Y-12690388D01*
X16246253Y-12690388D02*
X16236729Y-12652293D01*
X16236729Y-12652293D02*
X16236729Y-12604674D01*
X16236729Y-12604674D02*
X16246253Y-12566579D01*
X16246253Y-12566579D02*
X16255777Y-12547531D01*
X16255777Y-12547531D02*
X16265301Y-12538008D01*
X16265301Y-12538008D02*
X16284348Y-12528484D01*
X16417682Y-12528484D02*
X16541491Y-12528484D01*
X16541491Y-12528484D02*
X16474825Y-12604674D01*
X16474825Y-12604674D02*
X16503396Y-12604674D01*
X16503396Y-12604674D02*
X16522444Y-12614198D01*
X16522444Y-12614198D02*
X16531967Y-12623722D01*
X16531967Y-12623722D02*
X16541491Y-12642769D01*
X16541491Y-12642769D02*
X16541491Y-12690388D01*
X16541491Y-12690388D02*
X16531967Y-12709436D01*
X16531967Y-12709436D02*
X16522444Y-12718960D01*
X16522444Y-12718960D02*
X16503396Y-12728484D01*
X16503396Y-12728484D02*
X16446253Y-12728484D01*
X16446253Y-12728484D02*
X16427206Y-12718960D01*
X16427206Y-12718960D02*
X16417682Y-12709436D01*
X16636729Y-12728484D02*
X16674825Y-12728484D01*
X16674825Y-12728484D02*
X16693872Y-12718960D01*
X16693872Y-12718960D02*
X16703396Y-12709436D01*
X16703396Y-12709436D02*
X16722444Y-12680865D01*
X16722444Y-12680865D02*
X16731967Y-12642769D01*
X16731967Y-12642769D02*
X16731967Y-12566579D01*
X16731967Y-12566579D02*
X16722444Y-12547531D01*
X16722444Y-12547531D02*
X16712920Y-12538008D01*
X16712920Y-12538008D02*
X16693872Y-12528484D01*
X16693872Y-12528484D02*
X16655777Y-12528484D01*
X16655777Y-12528484D02*
X16636729Y-12538008D01*
X16636729Y-12538008D02*
X16627206Y-12547531D01*
X16627206Y-12547531D02*
X16617682Y-12566579D01*
X16617682Y-12566579D02*
X16617682Y-12614198D01*
X16617682Y-12614198D02*
X16627206Y-12633246D01*
X16627206Y-12633246D02*
X16636729Y-12642769D01*
X16636729Y-12642769D02*
X16655777Y-12652293D01*
X16655777Y-12652293D02*
X16693872Y-12652293D01*
X16693872Y-12652293D02*
X16712920Y-12642769D01*
X16712920Y-12642769D02*
X16722444Y-12633246D01*
X16722444Y-12633246D02*
X16731967Y-12614198D01*
X16903396Y-12595150D02*
X16903396Y-12728484D01*
X16855777Y-12518960D02*
X16808158Y-12661817D01*
X16808158Y-12661817D02*
X16931968Y-12661817D01*
X16998634Y-12528484D02*
X16998634Y-12566579D01*
X17074825Y-12528484D02*
X17074825Y-12566579D01*
X17370063Y-12804674D02*
X17360539Y-12795150D01*
X17360539Y-12795150D02*
X17341491Y-12766579D01*
X17341491Y-12766579D02*
X17331968Y-12747531D01*
X17331968Y-12747531D02*
X17322444Y-12718960D01*
X17322444Y-12718960D02*
X17312920Y-12671341D01*
X17312920Y-12671341D02*
X17312920Y-12633246D01*
X17312920Y-12633246D02*
X17322444Y-12585627D01*
X17322444Y-12585627D02*
X17331968Y-12557055D01*
X17331968Y-12557055D02*
X17341491Y-12538008D01*
X17341491Y-12538008D02*
X17360539Y-12509436D01*
X17360539Y-12509436D02*
X17370063Y-12499912D01*
X17436730Y-12547531D02*
X17446253Y-12538008D01*
X17446253Y-12538008D02*
X17465301Y-12528484D01*
X17465301Y-12528484D02*
X17512920Y-12528484D01*
X17512920Y-12528484D02*
X17531968Y-12538008D01*
X17531968Y-12538008D02*
X17541491Y-12547531D01*
X17541491Y-12547531D02*
X17551015Y-12566579D01*
X17551015Y-12566579D02*
X17551015Y-12585627D01*
X17551015Y-12585627D02*
X17541491Y-12614198D01*
X17541491Y-12614198D02*
X17427206Y-12728484D01*
X17427206Y-12728484D02*
X17551015Y-12728484D01*
X17627206Y-12547531D02*
X17636730Y-12538008D01*
X17636730Y-12538008D02*
X17655777Y-12528484D01*
X17655777Y-12528484D02*
X17703396Y-12528484D01*
X17703396Y-12528484D02*
X17722444Y-12538008D01*
X17722444Y-12538008D02*
X17731968Y-12547531D01*
X17731968Y-12547531D02*
X17741491Y-12566579D01*
X17741491Y-12566579D02*
X17741491Y-12585627D01*
X17741491Y-12585627D02*
X17731968Y-12614198D01*
X17731968Y-12614198D02*
X17617682Y-12728484D01*
X17617682Y-12728484D02*
X17741491Y-12728484D01*
X17979587Y-12728484D02*
X17979587Y-12528484D01*
X18065301Y-12728484D02*
X18065301Y-12623722D01*
X18065301Y-12623722D02*
X18055777Y-12604674D01*
X18055777Y-12604674D02*
X18036730Y-12595150D01*
X18036730Y-12595150D02*
X18008158Y-12595150D01*
X18008158Y-12595150D02*
X17989111Y-12604674D01*
X17989111Y-12604674D02*
X17979587Y-12614198D01*
X18189111Y-12728484D02*
X18170063Y-12718960D01*
X18170063Y-12718960D02*
X18160539Y-12709436D01*
X18160539Y-12709436D02*
X18151015Y-12690388D01*
X18151015Y-12690388D02*
X18151015Y-12633246D01*
X18151015Y-12633246D02*
X18160539Y-12614198D01*
X18160539Y-12614198D02*
X18170063Y-12604674D01*
X18170063Y-12604674D02*
X18189111Y-12595150D01*
X18189111Y-12595150D02*
X18217682Y-12595150D01*
X18217682Y-12595150D02*
X18236730Y-12604674D01*
X18236730Y-12604674D02*
X18246253Y-12614198D01*
X18246253Y-12614198D02*
X18255777Y-12633246D01*
X18255777Y-12633246D02*
X18255777Y-12690388D01*
X18255777Y-12690388D02*
X18246253Y-12709436D01*
X18246253Y-12709436D02*
X18236730Y-12718960D01*
X18236730Y-12718960D02*
X18217682Y-12728484D01*
X18217682Y-12728484D02*
X18189111Y-12728484D01*
X18370063Y-12728484D02*
X18351015Y-12718960D01*
X18351015Y-12718960D02*
X18341492Y-12699912D01*
X18341492Y-12699912D02*
X18341492Y-12528484D01*
X18522444Y-12718960D02*
X18503396Y-12728484D01*
X18503396Y-12728484D02*
X18465301Y-12728484D01*
X18465301Y-12728484D02*
X18446253Y-12718960D01*
X18446253Y-12718960D02*
X18436730Y-12699912D01*
X18436730Y-12699912D02*
X18436730Y-12623722D01*
X18436730Y-12623722D02*
X18446253Y-12604674D01*
X18446253Y-12604674D02*
X18465301Y-12595150D01*
X18465301Y-12595150D02*
X18503396Y-12595150D01*
X18503396Y-12595150D02*
X18522444Y-12604674D01*
X18522444Y-12604674D02*
X18531968Y-12623722D01*
X18531968Y-12623722D02*
X18531968Y-12642769D01*
X18531968Y-12642769D02*
X18436730Y-12661817D01*
X18608158Y-12718960D02*
X18627206Y-12728484D01*
X18627206Y-12728484D02*
X18665301Y-12728484D01*
X18665301Y-12728484D02*
X18684349Y-12718960D01*
X18684349Y-12718960D02*
X18693873Y-12699912D01*
X18693873Y-12699912D02*
X18693873Y-12690388D01*
X18693873Y-12690388D02*
X18684349Y-12671341D01*
X18684349Y-12671341D02*
X18665301Y-12661817D01*
X18665301Y-12661817D02*
X18636730Y-12661817D01*
X18636730Y-12661817D02*
X18617682Y-12652293D01*
X18617682Y-12652293D02*
X18608158Y-12633246D01*
X18608158Y-12633246D02*
X18608158Y-12623722D01*
X18608158Y-12623722D02*
X18617682Y-12604674D01*
X18617682Y-12604674D02*
X18636730Y-12595150D01*
X18636730Y-12595150D02*
X18665301Y-12595150D01*
X18665301Y-12595150D02*
X18684349Y-12604674D01*
X18760539Y-12804674D02*
X18770063Y-12795150D01*
X18770063Y-12795150D02*
X18789111Y-12766579D01*
X18789111Y-12766579D02*
X18798634Y-12747531D01*
X18798634Y-12747531D02*
X18808158Y-12718960D01*
X18808158Y-12718960D02*
X18817682Y-12671341D01*
X18817682Y-12671341D02*
X18817682Y-12633246D01*
X18817682Y-12633246D02*
X18808158Y-12585627D01*
X18808158Y-12585627D02*
X18798634Y-12557055D01*
X18798634Y-12557055D02*
X18789111Y-12538008D01*
X18789111Y-12538008D02*
X18770063Y-12509436D01*
X18770063Y-12509436D02*
X18760539Y-12499912D01*
D12*
X13720000Y-12976000D02*
X13795000Y-12901000D01*
X13720000Y-12826000D01*
X13645000Y-12901000D01*
X13720000Y-12976000D01*
D11*
X14160539Y-12992484D02*
X14046253Y-12992484D01*
X14103396Y-12992484D02*
X14103396Y-12792484D01*
X14103396Y-12792484D02*
X14084348Y-12821055D01*
X14084348Y-12821055D02*
X14065301Y-12840103D01*
X14065301Y-12840103D02*
X14046253Y-12849627D01*
X14246253Y-12973436D02*
X14255777Y-12982960D01*
X14255777Y-12982960D02*
X14246253Y-12992484D01*
X14246253Y-12992484D02*
X14236729Y-12982960D01*
X14236729Y-12982960D02*
X14246253Y-12973436D01*
X14246253Y-12973436D02*
X14246253Y-12992484D01*
X14436729Y-12792484D02*
X14341491Y-12792484D01*
X14341491Y-12792484D02*
X14331967Y-12887722D01*
X14331967Y-12887722D02*
X14341491Y-12878198D01*
X14341491Y-12878198D02*
X14360539Y-12868674D01*
X14360539Y-12868674D02*
X14408158Y-12868674D01*
X14408158Y-12868674D02*
X14427205Y-12878198D01*
X14427205Y-12878198D02*
X14436729Y-12887722D01*
X14436729Y-12887722D02*
X14446253Y-12906769D01*
X14446253Y-12906769D02*
X14446253Y-12954388D01*
X14446253Y-12954388D02*
X14436729Y-12973436D01*
X14436729Y-12973436D02*
X14427205Y-12982960D01*
X14427205Y-12982960D02*
X14408158Y-12992484D01*
X14408158Y-12992484D02*
X14360539Y-12992484D01*
X14360539Y-12992484D02*
X14341491Y-12982960D01*
X14341491Y-12982960D02*
X14331967Y-12973436D01*
X14570062Y-12792484D02*
X14589110Y-12792484D01*
X14589110Y-12792484D02*
X14608158Y-12802008D01*
X14608158Y-12802008D02*
X14617682Y-12811531D01*
X14617682Y-12811531D02*
X14627205Y-12830579D01*
X14627205Y-12830579D02*
X14636729Y-12868674D01*
X14636729Y-12868674D02*
X14636729Y-12916293D01*
X14636729Y-12916293D02*
X14627205Y-12954388D01*
X14627205Y-12954388D02*
X14617682Y-12973436D01*
X14617682Y-12973436D02*
X14608158Y-12982960D01*
X14608158Y-12982960D02*
X14589110Y-12992484D01*
X14589110Y-12992484D02*
X14570062Y-12992484D01*
X14570062Y-12992484D02*
X14551015Y-12982960D01*
X14551015Y-12982960D02*
X14541491Y-12973436D01*
X14541491Y-12973436D02*
X14531967Y-12954388D01*
X14531967Y-12954388D02*
X14522443Y-12916293D01*
X14522443Y-12916293D02*
X14522443Y-12868674D01*
X14522443Y-12868674D02*
X14531967Y-12830579D01*
X14531967Y-12830579D02*
X14541491Y-12811531D01*
X14541491Y-12811531D02*
X14551015Y-12802008D01*
X14551015Y-12802008D02*
X14570062Y-12792484D01*
X14760539Y-12792484D02*
X14779586Y-12792484D01*
X14779586Y-12792484D02*
X14798634Y-12802008D01*
X14798634Y-12802008D02*
X14808158Y-12811531D01*
X14808158Y-12811531D02*
X14817682Y-12830579D01*
X14817682Y-12830579D02*
X14827205Y-12868674D01*
X14827205Y-12868674D02*
X14827205Y-12916293D01*
X14827205Y-12916293D02*
X14817682Y-12954388D01*
X14817682Y-12954388D02*
X14808158Y-12973436D01*
X14808158Y-12973436D02*
X14798634Y-12982960D01*
X14798634Y-12982960D02*
X14779586Y-12992484D01*
X14779586Y-12992484D02*
X14760539Y-12992484D01*
X14760539Y-12992484D02*
X14741491Y-12982960D01*
X14741491Y-12982960D02*
X14731967Y-12973436D01*
X14731967Y-12973436D02*
X14722443Y-12954388D01*
X14722443Y-12954388D02*
X14712920Y-12916293D01*
X14712920Y-12916293D02*
X14712920Y-12868674D01*
X14712920Y-12868674D02*
X14722443Y-12830579D01*
X14722443Y-12830579D02*
X14731967Y-12811531D01*
X14731967Y-12811531D02*
X14741491Y-12802008D01*
X14741491Y-12802008D02*
X14760539Y-12792484D01*
X14912920Y-12992484D02*
X14912920Y-12859150D01*
X14912920Y-12878198D02*
X14922443Y-12868674D01*
X14922443Y-12868674D02*
X14941491Y-12859150D01*
X14941491Y-12859150D02*
X14970063Y-12859150D01*
X14970063Y-12859150D02*
X14989110Y-12868674D01*
X14989110Y-12868674D02*
X14998634Y-12887722D01*
X14998634Y-12887722D02*
X14998634Y-12992484D01*
X14998634Y-12887722D02*
X15008158Y-12868674D01*
X15008158Y-12868674D02*
X15027205Y-12859150D01*
X15027205Y-12859150D02*
X15055777Y-12859150D01*
X15055777Y-12859150D02*
X15074824Y-12868674D01*
X15074824Y-12868674D02*
X15084348Y-12887722D01*
X15084348Y-12887722D02*
X15084348Y-12992484D01*
X15179586Y-12992484D02*
X15179586Y-12859150D01*
X15179586Y-12878198D02*
X15189110Y-12868674D01*
X15189110Y-12868674D02*
X15208158Y-12859150D01*
X15208158Y-12859150D02*
X15236729Y-12859150D01*
X15236729Y-12859150D02*
X15255777Y-12868674D01*
X15255777Y-12868674D02*
X15265301Y-12887722D01*
X15265301Y-12887722D02*
X15265301Y-12992484D01*
X15265301Y-12887722D02*
X15274824Y-12868674D01*
X15274824Y-12868674D02*
X15293872Y-12859150D01*
X15293872Y-12859150D02*
X15322443Y-12859150D01*
X15322443Y-12859150D02*
X15341491Y-12868674D01*
X15341491Y-12868674D02*
X15351015Y-12887722D01*
X15351015Y-12887722D02*
X15351015Y-12992484D01*
X15741491Y-12782960D02*
X15570063Y-13040103D01*
X15998634Y-12792484D02*
X16017682Y-12792484D01*
X16017682Y-12792484D02*
X16036729Y-12802008D01*
X16036729Y-12802008D02*
X16046253Y-12811531D01*
X16046253Y-12811531D02*
X16055777Y-12830579D01*
X16055777Y-12830579D02*
X16065301Y-12868674D01*
X16065301Y-12868674D02*
X16065301Y-12916293D01*
X16065301Y-12916293D02*
X16055777Y-12954388D01*
X16055777Y-12954388D02*
X16046253Y-12973436D01*
X16046253Y-12973436D02*
X16036729Y-12982960D01*
X16036729Y-12982960D02*
X16017682Y-12992484D01*
X16017682Y-12992484D02*
X15998634Y-12992484D01*
X15998634Y-12992484D02*
X15979586Y-12982960D01*
X15979586Y-12982960D02*
X15970063Y-12973436D01*
X15970063Y-12973436D02*
X15960539Y-12954388D01*
X15960539Y-12954388D02*
X15951015Y-12916293D01*
X15951015Y-12916293D02*
X15951015Y-12868674D01*
X15951015Y-12868674D02*
X15960539Y-12830579D01*
X15960539Y-12830579D02*
X15970063Y-12811531D01*
X15970063Y-12811531D02*
X15979586Y-12802008D01*
X15979586Y-12802008D02*
X15998634Y-12792484D01*
X16151015Y-12973436D02*
X16160539Y-12982960D01*
X16160539Y-12982960D02*
X16151015Y-12992484D01*
X16151015Y-12992484D02*
X16141491Y-12982960D01*
X16141491Y-12982960D02*
X16151015Y-12973436D01*
X16151015Y-12973436D02*
X16151015Y-12992484D01*
X16284348Y-12792484D02*
X16303396Y-12792484D01*
X16303396Y-12792484D02*
X16322444Y-12802008D01*
X16322444Y-12802008D02*
X16331967Y-12811531D01*
X16331967Y-12811531D02*
X16341491Y-12830579D01*
X16341491Y-12830579D02*
X16351015Y-12868674D01*
X16351015Y-12868674D02*
X16351015Y-12916293D01*
X16351015Y-12916293D02*
X16341491Y-12954388D01*
X16341491Y-12954388D02*
X16331967Y-12973436D01*
X16331967Y-12973436D02*
X16322444Y-12982960D01*
X16322444Y-12982960D02*
X16303396Y-12992484D01*
X16303396Y-12992484D02*
X16284348Y-12992484D01*
X16284348Y-12992484D02*
X16265301Y-12982960D01*
X16265301Y-12982960D02*
X16255777Y-12973436D01*
X16255777Y-12973436D02*
X16246253Y-12954388D01*
X16246253Y-12954388D02*
X16236729Y-12916293D01*
X16236729Y-12916293D02*
X16236729Y-12868674D01*
X16236729Y-12868674D02*
X16246253Y-12830579D01*
X16246253Y-12830579D02*
X16255777Y-12811531D01*
X16255777Y-12811531D02*
X16265301Y-12802008D01*
X16265301Y-12802008D02*
X16284348Y-12792484D01*
X16531967Y-12792484D02*
X16436729Y-12792484D01*
X16436729Y-12792484D02*
X16427206Y-12887722D01*
X16427206Y-12887722D02*
X16436729Y-12878198D01*
X16436729Y-12878198D02*
X16455777Y-12868674D01*
X16455777Y-12868674D02*
X16503396Y-12868674D01*
X16503396Y-12868674D02*
X16522444Y-12878198D01*
X16522444Y-12878198D02*
X16531967Y-12887722D01*
X16531967Y-12887722D02*
X16541491Y-12906769D01*
X16541491Y-12906769D02*
X16541491Y-12954388D01*
X16541491Y-12954388D02*
X16531967Y-12973436D01*
X16531967Y-12973436D02*
X16522444Y-12982960D01*
X16522444Y-12982960D02*
X16503396Y-12992484D01*
X16503396Y-12992484D02*
X16455777Y-12992484D01*
X16455777Y-12992484D02*
X16436729Y-12982960D01*
X16436729Y-12982960D02*
X16427206Y-12973436D01*
X16636729Y-12992484D02*
X16674825Y-12992484D01*
X16674825Y-12992484D02*
X16693872Y-12982960D01*
X16693872Y-12982960D02*
X16703396Y-12973436D01*
X16703396Y-12973436D02*
X16722444Y-12944865D01*
X16722444Y-12944865D02*
X16731967Y-12906769D01*
X16731967Y-12906769D02*
X16731967Y-12830579D01*
X16731967Y-12830579D02*
X16722444Y-12811531D01*
X16722444Y-12811531D02*
X16712920Y-12802008D01*
X16712920Y-12802008D02*
X16693872Y-12792484D01*
X16693872Y-12792484D02*
X16655777Y-12792484D01*
X16655777Y-12792484D02*
X16636729Y-12802008D01*
X16636729Y-12802008D02*
X16627206Y-12811531D01*
X16627206Y-12811531D02*
X16617682Y-12830579D01*
X16617682Y-12830579D02*
X16617682Y-12878198D01*
X16617682Y-12878198D02*
X16627206Y-12897246D01*
X16627206Y-12897246D02*
X16636729Y-12906769D01*
X16636729Y-12906769D02*
X16655777Y-12916293D01*
X16655777Y-12916293D02*
X16693872Y-12916293D01*
X16693872Y-12916293D02*
X16712920Y-12906769D01*
X16712920Y-12906769D02*
X16722444Y-12897246D01*
X16722444Y-12897246D02*
X16731967Y-12878198D01*
X16922444Y-12992484D02*
X16808158Y-12992484D01*
X16865301Y-12992484D02*
X16865301Y-12792484D01*
X16865301Y-12792484D02*
X16846253Y-12821055D01*
X16846253Y-12821055D02*
X16827206Y-12840103D01*
X16827206Y-12840103D02*
X16808158Y-12849627D01*
X16998634Y-12792484D02*
X16998634Y-12830579D01*
X17074825Y-12792484D02*
X17074825Y-12830579D01*
X17370063Y-13068674D02*
X17360539Y-13059150D01*
X17360539Y-13059150D02*
X17341491Y-13030579D01*
X17341491Y-13030579D02*
X17331968Y-13011531D01*
X17331968Y-13011531D02*
X17322444Y-12982960D01*
X17322444Y-12982960D02*
X17312920Y-12935341D01*
X17312920Y-12935341D02*
X17312920Y-12897246D01*
X17312920Y-12897246D02*
X17322444Y-12849627D01*
X17322444Y-12849627D02*
X17331968Y-12821055D01*
X17331968Y-12821055D02*
X17341491Y-12802008D01*
X17341491Y-12802008D02*
X17360539Y-12773436D01*
X17360539Y-12773436D02*
X17370063Y-12763912D01*
X17551015Y-12992484D02*
X17436730Y-12992484D01*
X17493872Y-12992484D02*
X17493872Y-12792484D01*
X17493872Y-12792484D02*
X17474825Y-12821055D01*
X17474825Y-12821055D02*
X17455777Y-12840103D01*
X17455777Y-12840103D02*
X17436730Y-12849627D01*
X17789111Y-12992484D02*
X17789111Y-12792484D01*
X17874825Y-12992484D02*
X17874825Y-12887722D01*
X17874825Y-12887722D02*
X17865301Y-12868674D01*
X17865301Y-12868674D02*
X17846253Y-12859150D01*
X17846253Y-12859150D02*
X17817682Y-12859150D01*
X17817682Y-12859150D02*
X17798634Y-12868674D01*
X17798634Y-12868674D02*
X17789111Y-12878198D01*
X17998634Y-12992484D02*
X17979587Y-12982960D01*
X17979587Y-12982960D02*
X17970063Y-12973436D01*
X17970063Y-12973436D02*
X17960539Y-12954388D01*
X17960539Y-12954388D02*
X17960539Y-12897246D01*
X17960539Y-12897246D02*
X17970063Y-12878198D01*
X17970063Y-12878198D02*
X17979587Y-12868674D01*
X17979587Y-12868674D02*
X17998634Y-12859150D01*
X17998634Y-12859150D02*
X18027206Y-12859150D01*
X18027206Y-12859150D02*
X18046253Y-12868674D01*
X18046253Y-12868674D02*
X18055777Y-12878198D01*
X18055777Y-12878198D02*
X18065301Y-12897246D01*
X18065301Y-12897246D02*
X18065301Y-12954388D01*
X18065301Y-12954388D02*
X18055777Y-12973436D01*
X18055777Y-12973436D02*
X18046253Y-12982960D01*
X18046253Y-12982960D02*
X18027206Y-12992484D01*
X18027206Y-12992484D02*
X17998634Y-12992484D01*
X18179587Y-12992484D02*
X18160539Y-12982960D01*
X18160539Y-12982960D02*
X18151015Y-12963912D01*
X18151015Y-12963912D02*
X18151015Y-12792484D01*
X18331968Y-12982960D02*
X18312920Y-12992484D01*
X18312920Y-12992484D02*
X18274825Y-12992484D01*
X18274825Y-12992484D02*
X18255777Y-12982960D01*
X18255777Y-12982960D02*
X18246253Y-12963912D01*
X18246253Y-12963912D02*
X18246253Y-12887722D01*
X18246253Y-12887722D02*
X18255777Y-12868674D01*
X18255777Y-12868674D02*
X18274825Y-12859150D01*
X18274825Y-12859150D02*
X18312920Y-12859150D01*
X18312920Y-12859150D02*
X18331968Y-12868674D01*
X18331968Y-12868674D02*
X18341492Y-12887722D01*
X18341492Y-12887722D02*
X18341492Y-12906769D01*
X18341492Y-12906769D02*
X18246253Y-12925817D01*
X18408158Y-13068674D02*
X18417682Y-13059150D01*
X18417682Y-13059150D02*
X18436730Y-13030579D01*
X18436730Y-13030579D02*
X18446253Y-13011531D01*
X18446253Y-13011531D02*
X18455777Y-12982960D01*
X18455777Y-12982960D02*
X18465301Y-12935341D01*
X18465301Y-12935341D02*
X18465301Y-12897246D01*
X18465301Y-12897246D02*
X18455777Y-12849627D01*
X18455777Y-12849627D02*
X18446253Y-12821055D01*
X18446253Y-12821055D02*
X18436730Y-12802008D01*
X18436730Y-12802008D02*
X18417682Y-12773436D01*
X18417682Y-12773436D02*
X18408158Y-12763912D01*
D13*
X13625000Y-13086000D02*
X13795000Y-13256000D01*
X13795000Y-13086000D02*
X13625000Y-13256000D01*
X13795000Y-13171000D02*
G75*
G02*
X13625000Y-13171000I-85000J0D01*
G01*
X13625000Y-13171000D02*
G75*
G02*
X13795000Y-13171000I85000J0D01*
G01*
D11*
X14160539Y-13262484D02*
X14046253Y-13262484D01*
X14103396Y-13262484D02*
X14103396Y-13062484D01*
X14103396Y-13062484D02*
X14084348Y-13091055D01*
X14084348Y-13091055D02*
X14065301Y-13110103D01*
X14065301Y-13110103D02*
X14046253Y-13119627D01*
X14246253Y-13243436D02*
X14255777Y-13252960D01*
X14255777Y-13252960D02*
X14246253Y-13262484D01*
X14246253Y-13262484D02*
X14236729Y-13252960D01*
X14236729Y-13252960D02*
X14246253Y-13243436D01*
X14246253Y-13243436D02*
X14246253Y-13262484D01*
X14322443Y-13062484D02*
X14455777Y-13062484D01*
X14455777Y-13062484D02*
X14370062Y-13262484D01*
X14570062Y-13062484D02*
X14589110Y-13062484D01*
X14589110Y-13062484D02*
X14608158Y-13072008D01*
X14608158Y-13072008D02*
X14617682Y-13081531D01*
X14617682Y-13081531D02*
X14627205Y-13100579D01*
X14627205Y-13100579D02*
X14636729Y-13138674D01*
X14636729Y-13138674D02*
X14636729Y-13186293D01*
X14636729Y-13186293D02*
X14627205Y-13224388D01*
X14627205Y-13224388D02*
X14617682Y-13243436D01*
X14617682Y-13243436D02*
X14608158Y-13252960D01*
X14608158Y-13252960D02*
X14589110Y-13262484D01*
X14589110Y-13262484D02*
X14570062Y-13262484D01*
X14570062Y-13262484D02*
X14551015Y-13252960D01*
X14551015Y-13252960D02*
X14541491Y-13243436D01*
X14541491Y-13243436D02*
X14531967Y-13224388D01*
X14531967Y-13224388D02*
X14522443Y-13186293D01*
X14522443Y-13186293D02*
X14522443Y-13138674D01*
X14522443Y-13138674D02*
X14531967Y-13100579D01*
X14531967Y-13100579D02*
X14541491Y-13081531D01*
X14541491Y-13081531D02*
X14551015Y-13072008D01*
X14551015Y-13072008D02*
X14570062Y-13062484D01*
X14760539Y-13062484D02*
X14779586Y-13062484D01*
X14779586Y-13062484D02*
X14798634Y-13072008D01*
X14798634Y-13072008D02*
X14808158Y-13081531D01*
X14808158Y-13081531D02*
X14817682Y-13100579D01*
X14817682Y-13100579D02*
X14827205Y-13138674D01*
X14827205Y-13138674D02*
X14827205Y-13186293D01*
X14827205Y-13186293D02*
X14817682Y-13224388D01*
X14817682Y-13224388D02*
X14808158Y-13243436D01*
X14808158Y-13243436D02*
X14798634Y-13252960D01*
X14798634Y-13252960D02*
X14779586Y-13262484D01*
X14779586Y-13262484D02*
X14760539Y-13262484D01*
X14760539Y-13262484D02*
X14741491Y-13252960D01*
X14741491Y-13252960D02*
X14731967Y-13243436D01*
X14731967Y-13243436D02*
X14722443Y-13224388D01*
X14722443Y-13224388D02*
X14712920Y-13186293D01*
X14712920Y-13186293D02*
X14712920Y-13138674D01*
X14712920Y-13138674D02*
X14722443Y-13100579D01*
X14722443Y-13100579D02*
X14731967Y-13081531D01*
X14731967Y-13081531D02*
X14741491Y-13072008D01*
X14741491Y-13072008D02*
X14760539Y-13062484D01*
X14912920Y-13262484D02*
X14912920Y-13129150D01*
X14912920Y-13148198D02*
X14922443Y-13138674D01*
X14922443Y-13138674D02*
X14941491Y-13129150D01*
X14941491Y-13129150D02*
X14970063Y-13129150D01*
X14970063Y-13129150D02*
X14989110Y-13138674D01*
X14989110Y-13138674D02*
X14998634Y-13157722D01*
X14998634Y-13157722D02*
X14998634Y-13262484D01*
X14998634Y-13157722D02*
X15008158Y-13138674D01*
X15008158Y-13138674D02*
X15027205Y-13129150D01*
X15027205Y-13129150D02*
X15055777Y-13129150D01*
X15055777Y-13129150D02*
X15074824Y-13138674D01*
X15074824Y-13138674D02*
X15084348Y-13157722D01*
X15084348Y-13157722D02*
X15084348Y-13262484D01*
X15179586Y-13262484D02*
X15179586Y-13129150D01*
X15179586Y-13148198D02*
X15189110Y-13138674D01*
X15189110Y-13138674D02*
X15208158Y-13129150D01*
X15208158Y-13129150D02*
X15236729Y-13129150D01*
X15236729Y-13129150D02*
X15255777Y-13138674D01*
X15255777Y-13138674D02*
X15265301Y-13157722D01*
X15265301Y-13157722D02*
X15265301Y-13262484D01*
X15265301Y-13157722D02*
X15274824Y-13138674D01*
X15274824Y-13138674D02*
X15293872Y-13129150D01*
X15293872Y-13129150D02*
X15322443Y-13129150D01*
X15322443Y-13129150D02*
X15341491Y-13138674D01*
X15341491Y-13138674D02*
X15351015Y-13157722D01*
X15351015Y-13157722D02*
X15351015Y-13262484D01*
X15741491Y-13052960D02*
X15570063Y-13310103D01*
X15998634Y-13062484D02*
X16017682Y-13062484D01*
X16017682Y-13062484D02*
X16036729Y-13072008D01*
X16036729Y-13072008D02*
X16046253Y-13081531D01*
X16046253Y-13081531D02*
X16055777Y-13100579D01*
X16055777Y-13100579D02*
X16065301Y-13138674D01*
X16065301Y-13138674D02*
X16065301Y-13186293D01*
X16065301Y-13186293D02*
X16055777Y-13224388D01*
X16055777Y-13224388D02*
X16046253Y-13243436D01*
X16046253Y-13243436D02*
X16036729Y-13252960D01*
X16036729Y-13252960D02*
X16017682Y-13262484D01*
X16017682Y-13262484D02*
X15998634Y-13262484D01*
X15998634Y-13262484D02*
X15979586Y-13252960D01*
X15979586Y-13252960D02*
X15970063Y-13243436D01*
X15970063Y-13243436D02*
X15960539Y-13224388D01*
X15960539Y-13224388D02*
X15951015Y-13186293D01*
X15951015Y-13186293D02*
X15951015Y-13138674D01*
X15951015Y-13138674D02*
X15960539Y-13100579D01*
X15960539Y-13100579D02*
X15970063Y-13081531D01*
X15970063Y-13081531D02*
X15979586Y-13072008D01*
X15979586Y-13072008D02*
X15998634Y-13062484D01*
X16151015Y-13243436D02*
X16160539Y-13252960D01*
X16160539Y-13252960D02*
X16151015Y-13262484D01*
X16151015Y-13262484D02*
X16141491Y-13252960D01*
X16141491Y-13252960D02*
X16151015Y-13243436D01*
X16151015Y-13243436D02*
X16151015Y-13262484D01*
X16284348Y-13062484D02*
X16303396Y-13062484D01*
X16303396Y-13062484D02*
X16322444Y-13072008D01*
X16322444Y-13072008D02*
X16331967Y-13081531D01*
X16331967Y-13081531D02*
X16341491Y-13100579D01*
X16341491Y-13100579D02*
X16351015Y-13138674D01*
X16351015Y-13138674D02*
X16351015Y-13186293D01*
X16351015Y-13186293D02*
X16341491Y-13224388D01*
X16341491Y-13224388D02*
X16331967Y-13243436D01*
X16331967Y-13243436D02*
X16322444Y-13252960D01*
X16322444Y-13252960D02*
X16303396Y-13262484D01*
X16303396Y-13262484D02*
X16284348Y-13262484D01*
X16284348Y-13262484D02*
X16265301Y-13252960D01*
X16265301Y-13252960D02*
X16255777Y-13243436D01*
X16255777Y-13243436D02*
X16246253Y-13224388D01*
X16246253Y-13224388D02*
X16236729Y-13186293D01*
X16236729Y-13186293D02*
X16236729Y-13138674D01*
X16236729Y-13138674D02*
X16246253Y-13100579D01*
X16246253Y-13100579D02*
X16255777Y-13081531D01*
X16255777Y-13081531D02*
X16265301Y-13072008D01*
X16265301Y-13072008D02*
X16284348Y-13062484D01*
X16522444Y-13062484D02*
X16484348Y-13062484D01*
X16484348Y-13062484D02*
X16465301Y-13072008D01*
X16465301Y-13072008D02*
X16455777Y-13081531D01*
X16455777Y-13081531D02*
X16436729Y-13110103D01*
X16436729Y-13110103D02*
X16427206Y-13148198D01*
X16427206Y-13148198D02*
X16427206Y-13224388D01*
X16427206Y-13224388D02*
X16436729Y-13243436D01*
X16436729Y-13243436D02*
X16446253Y-13252960D01*
X16446253Y-13252960D02*
X16465301Y-13262484D01*
X16465301Y-13262484D02*
X16503396Y-13262484D01*
X16503396Y-13262484D02*
X16522444Y-13252960D01*
X16522444Y-13252960D02*
X16531967Y-13243436D01*
X16531967Y-13243436D02*
X16541491Y-13224388D01*
X16541491Y-13224388D02*
X16541491Y-13176769D01*
X16541491Y-13176769D02*
X16531967Y-13157722D01*
X16531967Y-13157722D02*
X16522444Y-13148198D01*
X16522444Y-13148198D02*
X16503396Y-13138674D01*
X16503396Y-13138674D02*
X16465301Y-13138674D01*
X16465301Y-13138674D02*
X16446253Y-13148198D01*
X16446253Y-13148198D02*
X16436729Y-13157722D01*
X16436729Y-13157722D02*
X16427206Y-13176769D01*
X16712920Y-13062484D02*
X16674825Y-13062484D01*
X16674825Y-13062484D02*
X16655777Y-13072008D01*
X16655777Y-13072008D02*
X16646253Y-13081531D01*
X16646253Y-13081531D02*
X16627206Y-13110103D01*
X16627206Y-13110103D02*
X16617682Y-13148198D01*
X16617682Y-13148198D02*
X16617682Y-13224388D01*
X16617682Y-13224388D02*
X16627206Y-13243436D01*
X16627206Y-13243436D02*
X16636729Y-13252960D01*
X16636729Y-13252960D02*
X16655777Y-13262484D01*
X16655777Y-13262484D02*
X16693872Y-13262484D01*
X16693872Y-13262484D02*
X16712920Y-13252960D01*
X16712920Y-13252960D02*
X16722444Y-13243436D01*
X16722444Y-13243436D02*
X16731967Y-13224388D01*
X16731967Y-13224388D02*
X16731967Y-13176769D01*
X16731967Y-13176769D02*
X16722444Y-13157722D01*
X16722444Y-13157722D02*
X16712920Y-13148198D01*
X16712920Y-13148198D02*
X16693872Y-13138674D01*
X16693872Y-13138674D02*
X16655777Y-13138674D01*
X16655777Y-13138674D02*
X16636729Y-13148198D01*
X16636729Y-13148198D02*
X16627206Y-13157722D01*
X16627206Y-13157722D02*
X16617682Y-13176769D01*
X16827206Y-13262484D02*
X16865301Y-13262484D01*
X16865301Y-13262484D02*
X16884349Y-13252960D01*
X16884349Y-13252960D02*
X16893872Y-13243436D01*
X16893872Y-13243436D02*
X16912920Y-13214865D01*
X16912920Y-13214865D02*
X16922444Y-13176769D01*
X16922444Y-13176769D02*
X16922444Y-13100579D01*
X16922444Y-13100579D02*
X16912920Y-13081531D01*
X16912920Y-13081531D02*
X16903396Y-13072008D01*
X16903396Y-13072008D02*
X16884349Y-13062484D01*
X16884349Y-13062484D02*
X16846253Y-13062484D01*
X16846253Y-13062484D02*
X16827206Y-13072008D01*
X16827206Y-13072008D02*
X16817682Y-13081531D01*
X16817682Y-13081531D02*
X16808158Y-13100579D01*
X16808158Y-13100579D02*
X16808158Y-13148198D01*
X16808158Y-13148198D02*
X16817682Y-13167246D01*
X16817682Y-13167246D02*
X16827206Y-13176769D01*
X16827206Y-13176769D02*
X16846253Y-13186293D01*
X16846253Y-13186293D02*
X16884349Y-13186293D01*
X16884349Y-13186293D02*
X16903396Y-13176769D01*
X16903396Y-13176769D02*
X16912920Y-13167246D01*
X16912920Y-13167246D02*
X16922444Y-13148198D01*
X16998634Y-13062484D02*
X16998634Y-13100579D01*
X17074825Y-13062484D02*
X17074825Y-13100579D01*
X17370063Y-13338674D02*
X17360539Y-13329150D01*
X17360539Y-13329150D02*
X17341491Y-13300579D01*
X17341491Y-13300579D02*
X17331968Y-13281531D01*
X17331968Y-13281531D02*
X17322444Y-13252960D01*
X17322444Y-13252960D02*
X17312920Y-13205341D01*
X17312920Y-13205341D02*
X17312920Y-13167246D01*
X17312920Y-13167246D02*
X17322444Y-13119627D01*
X17322444Y-13119627D02*
X17331968Y-13091055D01*
X17331968Y-13091055D02*
X17341491Y-13072008D01*
X17341491Y-13072008D02*
X17360539Y-13043436D01*
X17360539Y-13043436D02*
X17370063Y-13033912D01*
X17531968Y-13129150D02*
X17531968Y-13262484D01*
X17484349Y-13052960D02*
X17436730Y-13195817D01*
X17436730Y-13195817D02*
X17560539Y-13195817D01*
X17789111Y-13262484D02*
X17789111Y-13062484D01*
X17874825Y-13262484D02*
X17874825Y-13157722D01*
X17874825Y-13157722D02*
X17865301Y-13138674D01*
X17865301Y-13138674D02*
X17846253Y-13129150D01*
X17846253Y-13129150D02*
X17817682Y-13129150D01*
X17817682Y-13129150D02*
X17798634Y-13138674D01*
X17798634Y-13138674D02*
X17789111Y-13148198D01*
X17998634Y-13262484D02*
X17979587Y-13252960D01*
X17979587Y-13252960D02*
X17970063Y-13243436D01*
X17970063Y-13243436D02*
X17960539Y-13224388D01*
X17960539Y-13224388D02*
X17960539Y-13167246D01*
X17960539Y-13167246D02*
X17970063Y-13148198D01*
X17970063Y-13148198D02*
X17979587Y-13138674D01*
X17979587Y-13138674D02*
X17998634Y-13129150D01*
X17998634Y-13129150D02*
X18027206Y-13129150D01*
X18027206Y-13129150D02*
X18046253Y-13138674D01*
X18046253Y-13138674D02*
X18055777Y-13148198D01*
X18055777Y-13148198D02*
X18065301Y-13167246D01*
X18065301Y-13167246D02*
X18065301Y-13224388D01*
X18065301Y-13224388D02*
X18055777Y-13243436D01*
X18055777Y-13243436D02*
X18046253Y-13252960D01*
X18046253Y-13252960D02*
X18027206Y-13262484D01*
X18027206Y-13262484D02*
X17998634Y-13262484D01*
X18179587Y-13262484D02*
X18160539Y-13252960D01*
X18160539Y-13252960D02*
X18151015Y-13233912D01*
X18151015Y-13233912D02*
X18151015Y-13062484D01*
X18331968Y-13252960D02*
X18312920Y-13262484D01*
X18312920Y-13262484D02*
X18274825Y-13262484D01*
X18274825Y-13262484D02*
X18255777Y-13252960D01*
X18255777Y-13252960D02*
X18246253Y-13233912D01*
X18246253Y-13233912D02*
X18246253Y-13157722D01*
X18246253Y-13157722D02*
X18255777Y-13138674D01*
X18255777Y-13138674D02*
X18274825Y-13129150D01*
X18274825Y-13129150D02*
X18312920Y-13129150D01*
X18312920Y-13129150D02*
X18331968Y-13138674D01*
X18331968Y-13138674D02*
X18341492Y-13157722D01*
X18341492Y-13157722D02*
X18341492Y-13176769D01*
X18341492Y-13176769D02*
X18246253Y-13195817D01*
X18417682Y-13252960D02*
X18436730Y-13262484D01*
X18436730Y-13262484D02*
X18474825Y-13262484D01*
X18474825Y-13262484D02*
X18493873Y-13252960D01*
X18493873Y-13252960D02*
X18503396Y-13233912D01*
X18503396Y-13233912D02*
X18503396Y-13224388D01*
X18503396Y-13224388D02*
X18493873Y-13205341D01*
X18493873Y-13205341D02*
X18474825Y-13195817D01*
X18474825Y-13195817D02*
X18446253Y-13195817D01*
X18446253Y-13195817D02*
X18427206Y-13186293D01*
X18427206Y-13186293D02*
X18417682Y-13167246D01*
X18417682Y-13167246D02*
X18417682Y-13157722D01*
X18417682Y-13157722D02*
X18427206Y-13138674D01*
X18427206Y-13138674D02*
X18446253Y-13129150D01*
X18446253Y-13129150D02*
X18474825Y-13129150D01*
X18474825Y-13129150D02*
X18493873Y-13138674D01*
X18570063Y-13338674D02*
X18579587Y-13329150D01*
X18579587Y-13329150D02*
X18598634Y-13300579D01*
X18598634Y-13300579D02*
X18608158Y-13281531D01*
X18608158Y-13281531D02*
X18617682Y-13252960D01*
X18617682Y-13252960D02*
X18627206Y-13205341D01*
X18627206Y-13205341D02*
X18627206Y-13167246D01*
X18627206Y-13167246D02*
X18617682Y-13119627D01*
X18617682Y-13119627D02*
X18608158Y-13091055D01*
X18608158Y-13091055D02*
X18598634Y-13072008D01*
X18598634Y-13072008D02*
X18579587Y-13043436D01*
X18579587Y-13043436D02*
X18570063Y-13033912D01*
X13595000Y-13361000D02*
X13795000Y-13561000D01*
X13795000Y-13361000D02*
X13595000Y-13561000D01*
X13695000Y-13361000D02*
X13695000Y-13561000D01*
X13595000Y-13461000D02*
X13795000Y-13461000D01*
X14046253Y-13371531D02*
X14055777Y-13362008D01*
X14055777Y-13362008D02*
X14074824Y-13352484D01*
X14074824Y-13352484D02*
X14122443Y-13352484D01*
X14122443Y-13352484D02*
X14141491Y-13362008D01*
X14141491Y-13362008D02*
X14151015Y-13371531D01*
X14151015Y-13371531D02*
X14160539Y-13390579D01*
X14160539Y-13390579D02*
X14160539Y-13409627D01*
X14160539Y-13409627D02*
X14151015Y-13438198D01*
X14151015Y-13438198D02*
X14036729Y-13552484D01*
X14036729Y-13552484D02*
X14160539Y-13552484D01*
X14246253Y-13533436D02*
X14255777Y-13542960D01*
X14255777Y-13542960D02*
X14246253Y-13552484D01*
X14246253Y-13552484D02*
X14236729Y-13542960D01*
X14236729Y-13542960D02*
X14246253Y-13533436D01*
X14246253Y-13533436D02*
X14246253Y-13552484D01*
X14331967Y-13371531D02*
X14341491Y-13362008D01*
X14341491Y-13362008D02*
X14360539Y-13352484D01*
X14360539Y-13352484D02*
X14408158Y-13352484D01*
X14408158Y-13352484D02*
X14427205Y-13362008D01*
X14427205Y-13362008D02*
X14436729Y-13371531D01*
X14436729Y-13371531D02*
X14446253Y-13390579D01*
X14446253Y-13390579D02*
X14446253Y-13409627D01*
X14446253Y-13409627D02*
X14436729Y-13438198D01*
X14436729Y-13438198D02*
X14322443Y-13552484D01*
X14322443Y-13552484D02*
X14446253Y-13552484D01*
X14570062Y-13352484D02*
X14589110Y-13352484D01*
X14589110Y-13352484D02*
X14608158Y-13362008D01*
X14608158Y-13362008D02*
X14617682Y-13371531D01*
X14617682Y-13371531D02*
X14627205Y-13390579D01*
X14627205Y-13390579D02*
X14636729Y-13428674D01*
X14636729Y-13428674D02*
X14636729Y-13476293D01*
X14636729Y-13476293D02*
X14627205Y-13514388D01*
X14627205Y-13514388D02*
X14617682Y-13533436D01*
X14617682Y-13533436D02*
X14608158Y-13542960D01*
X14608158Y-13542960D02*
X14589110Y-13552484D01*
X14589110Y-13552484D02*
X14570062Y-13552484D01*
X14570062Y-13552484D02*
X14551015Y-13542960D01*
X14551015Y-13542960D02*
X14541491Y-13533436D01*
X14541491Y-13533436D02*
X14531967Y-13514388D01*
X14531967Y-13514388D02*
X14522443Y-13476293D01*
X14522443Y-13476293D02*
X14522443Y-13428674D01*
X14522443Y-13428674D02*
X14531967Y-13390579D01*
X14531967Y-13390579D02*
X14541491Y-13371531D01*
X14541491Y-13371531D02*
X14551015Y-13362008D01*
X14551015Y-13362008D02*
X14570062Y-13352484D01*
X14760539Y-13352484D02*
X14779586Y-13352484D01*
X14779586Y-13352484D02*
X14798634Y-13362008D01*
X14798634Y-13362008D02*
X14808158Y-13371531D01*
X14808158Y-13371531D02*
X14817682Y-13390579D01*
X14817682Y-13390579D02*
X14827205Y-13428674D01*
X14827205Y-13428674D02*
X14827205Y-13476293D01*
X14827205Y-13476293D02*
X14817682Y-13514388D01*
X14817682Y-13514388D02*
X14808158Y-13533436D01*
X14808158Y-13533436D02*
X14798634Y-13542960D01*
X14798634Y-13542960D02*
X14779586Y-13552484D01*
X14779586Y-13552484D02*
X14760539Y-13552484D01*
X14760539Y-13552484D02*
X14741491Y-13542960D01*
X14741491Y-13542960D02*
X14731967Y-13533436D01*
X14731967Y-13533436D02*
X14722443Y-13514388D01*
X14722443Y-13514388D02*
X14712920Y-13476293D01*
X14712920Y-13476293D02*
X14712920Y-13428674D01*
X14712920Y-13428674D02*
X14722443Y-13390579D01*
X14722443Y-13390579D02*
X14731967Y-13371531D01*
X14731967Y-13371531D02*
X14741491Y-13362008D01*
X14741491Y-13362008D02*
X14760539Y-13352484D01*
X14912920Y-13552484D02*
X14912920Y-13419150D01*
X14912920Y-13438198D02*
X14922443Y-13428674D01*
X14922443Y-13428674D02*
X14941491Y-13419150D01*
X14941491Y-13419150D02*
X14970063Y-13419150D01*
X14970063Y-13419150D02*
X14989110Y-13428674D01*
X14989110Y-13428674D02*
X14998634Y-13447722D01*
X14998634Y-13447722D02*
X14998634Y-13552484D01*
X14998634Y-13447722D02*
X15008158Y-13428674D01*
X15008158Y-13428674D02*
X15027205Y-13419150D01*
X15027205Y-13419150D02*
X15055777Y-13419150D01*
X15055777Y-13419150D02*
X15074824Y-13428674D01*
X15074824Y-13428674D02*
X15084348Y-13447722D01*
X15084348Y-13447722D02*
X15084348Y-13552484D01*
X15179586Y-13552484D02*
X15179586Y-13419150D01*
X15179586Y-13438198D02*
X15189110Y-13428674D01*
X15189110Y-13428674D02*
X15208158Y-13419150D01*
X15208158Y-13419150D02*
X15236729Y-13419150D01*
X15236729Y-13419150D02*
X15255777Y-13428674D01*
X15255777Y-13428674D02*
X15265301Y-13447722D01*
X15265301Y-13447722D02*
X15265301Y-13552484D01*
X15265301Y-13447722D02*
X15274824Y-13428674D01*
X15274824Y-13428674D02*
X15293872Y-13419150D01*
X15293872Y-13419150D02*
X15322443Y-13419150D01*
X15322443Y-13419150D02*
X15341491Y-13428674D01*
X15341491Y-13428674D02*
X15351015Y-13447722D01*
X15351015Y-13447722D02*
X15351015Y-13552484D01*
X15741491Y-13342960D02*
X15570063Y-13600103D01*
X15998634Y-13352484D02*
X16017682Y-13352484D01*
X16017682Y-13352484D02*
X16036729Y-13362008D01*
X16036729Y-13362008D02*
X16046253Y-13371531D01*
X16046253Y-13371531D02*
X16055777Y-13390579D01*
X16055777Y-13390579D02*
X16065301Y-13428674D01*
X16065301Y-13428674D02*
X16065301Y-13476293D01*
X16065301Y-13476293D02*
X16055777Y-13514388D01*
X16055777Y-13514388D02*
X16046253Y-13533436D01*
X16046253Y-13533436D02*
X16036729Y-13542960D01*
X16036729Y-13542960D02*
X16017682Y-13552484D01*
X16017682Y-13552484D02*
X15998634Y-13552484D01*
X15998634Y-13552484D02*
X15979586Y-13542960D01*
X15979586Y-13542960D02*
X15970063Y-13533436D01*
X15970063Y-13533436D02*
X15960539Y-13514388D01*
X15960539Y-13514388D02*
X15951015Y-13476293D01*
X15951015Y-13476293D02*
X15951015Y-13428674D01*
X15951015Y-13428674D02*
X15960539Y-13390579D01*
X15960539Y-13390579D02*
X15970063Y-13371531D01*
X15970063Y-13371531D02*
X15979586Y-13362008D01*
X15979586Y-13362008D02*
X15998634Y-13352484D01*
X16151015Y-13533436D02*
X16160539Y-13542960D01*
X16160539Y-13542960D02*
X16151015Y-13552484D01*
X16151015Y-13552484D02*
X16141491Y-13542960D01*
X16141491Y-13542960D02*
X16151015Y-13533436D01*
X16151015Y-13533436D02*
X16151015Y-13552484D01*
X16284348Y-13352484D02*
X16303396Y-13352484D01*
X16303396Y-13352484D02*
X16322444Y-13362008D01*
X16322444Y-13362008D02*
X16331967Y-13371531D01*
X16331967Y-13371531D02*
X16341491Y-13390579D01*
X16341491Y-13390579D02*
X16351015Y-13428674D01*
X16351015Y-13428674D02*
X16351015Y-13476293D01*
X16351015Y-13476293D02*
X16341491Y-13514388D01*
X16341491Y-13514388D02*
X16331967Y-13533436D01*
X16331967Y-13533436D02*
X16322444Y-13542960D01*
X16322444Y-13542960D02*
X16303396Y-13552484D01*
X16303396Y-13552484D02*
X16284348Y-13552484D01*
X16284348Y-13552484D02*
X16265301Y-13542960D01*
X16265301Y-13542960D02*
X16255777Y-13533436D01*
X16255777Y-13533436D02*
X16246253Y-13514388D01*
X16246253Y-13514388D02*
X16236729Y-13476293D01*
X16236729Y-13476293D02*
X16236729Y-13428674D01*
X16236729Y-13428674D02*
X16246253Y-13390579D01*
X16246253Y-13390579D02*
X16255777Y-13371531D01*
X16255777Y-13371531D02*
X16265301Y-13362008D01*
X16265301Y-13362008D02*
X16284348Y-13352484D01*
X16465301Y-13438198D02*
X16446253Y-13428674D01*
X16446253Y-13428674D02*
X16436729Y-13419150D01*
X16436729Y-13419150D02*
X16427206Y-13400103D01*
X16427206Y-13400103D02*
X16427206Y-13390579D01*
X16427206Y-13390579D02*
X16436729Y-13371531D01*
X16436729Y-13371531D02*
X16446253Y-13362008D01*
X16446253Y-13362008D02*
X16465301Y-13352484D01*
X16465301Y-13352484D02*
X16503396Y-13352484D01*
X16503396Y-13352484D02*
X16522444Y-13362008D01*
X16522444Y-13362008D02*
X16531967Y-13371531D01*
X16531967Y-13371531D02*
X16541491Y-13390579D01*
X16541491Y-13390579D02*
X16541491Y-13400103D01*
X16541491Y-13400103D02*
X16531967Y-13419150D01*
X16531967Y-13419150D02*
X16522444Y-13428674D01*
X16522444Y-13428674D02*
X16503396Y-13438198D01*
X16503396Y-13438198D02*
X16465301Y-13438198D01*
X16465301Y-13438198D02*
X16446253Y-13447722D01*
X16446253Y-13447722D02*
X16436729Y-13457246D01*
X16436729Y-13457246D02*
X16427206Y-13476293D01*
X16427206Y-13476293D02*
X16427206Y-13514388D01*
X16427206Y-13514388D02*
X16436729Y-13533436D01*
X16436729Y-13533436D02*
X16446253Y-13542960D01*
X16446253Y-13542960D02*
X16465301Y-13552484D01*
X16465301Y-13552484D02*
X16503396Y-13552484D01*
X16503396Y-13552484D02*
X16522444Y-13542960D01*
X16522444Y-13542960D02*
X16531967Y-13533436D01*
X16531967Y-13533436D02*
X16541491Y-13514388D01*
X16541491Y-13514388D02*
X16541491Y-13476293D01*
X16541491Y-13476293D02*
X16531967Y-13457246D01*
X16531967Y-13457246D02*
X16522444Y-13447722D01*
X16522444Y-13447722D02*
X16503396Y-13438198D01*
X16712920Y-13352484D02*
X16674825Y-13352484D01*
X16674825Y-13352484D02*
X16655777Y-13362008D01*
X16655777Y-13362008D02*
X16646253Y-13371531D01*
X16646253Y-13371531D02*
X16627206Y-13400103D01*
X16627206Y-13400103D02*
X16617682Y-13438198D01*
X16617682Y-13438198D02*
X16617682Y-13514388D01*
X16617682Y-13514388D02*
X16627206Y-13533436D01*
X16627206Y-13533436D02*
X16636729Y-13542960D01*
X16636729Y-13542960D02*
X16655777Y-13552484D01*
X16655777Y-13552484D02*
X16693872Y-13552484D01*
X16693872Y-13552484D02*
X16712920Y-13542960D01*
X16712920Y-13542960D02*
X16722444Y-13533436D01*
X16722444Y-13533436D02*
X16731967Y-13514388D01*
X16731967Y-13514388D02*
X16731967Y-13466769D01*
X16731967Y-13466769D02*
X16722444Y-13447722D01*
X16722444Y-13447722D02*
X16712920Y-13438198D01*
X16712920Y-13438198D02*
X16693872Y-13428674D01*
X16693872Y-13428674D02*
X16655777Y-13428674D01*
X16655777Y-13428674D02*
X16636729Y-13438198D01*
X16636729Y-13438198D02*
X16627206Y-13447722D01*
X16627206Y-13447722D02*
X16617682Y-13466769D01*
X16903396Y-13352484D02*
X16865301Y-13352484D01*
X16865301Y-13352484D02*
X16846253Y-13362008D01*
X16846253Y-13362008D02*
X16836729Y-13371531D01*
X16836729Y-13371531D02*
X16817682Y-13400103D01*
X16817682Y-13400103D02*
X16808158Y-13438198D01*
X16808158Y-13438198D02*
X16808158Y-13514388D01*
X16808158Y-13514388D02*
X16817682Y-13533436D01*
X16817682Y-13533436D02*
X16827206Y-13542960D01*
X16827206Y-13542960D02*
X16846253Y-13552484D01*
X16846253Y-13552484D02*
X16884349Y-13552484D01*
X16884349Y-13552484D02*
X16903396Y-13542960D01*
X16903396Y-13542960D02*
X16912920Y-13533436D01*
X16912920Y-13533436D02*
X16922444Y-13514388D01*
X16922444Y-13514388D02*
X16922444Y-13466769D01*
X16922444Y-13466769D02*
X16912920Y-13447722D01*
X16912920Y-13447722D02*
X16903396Y-13438198D01*
X16903396Y-13438198D02*
X16884349Y-13428674D01*
X16884349Y-13428674D02*
X16846253Y-13428674D01*
X16846253Y-13428674D02*
X16827206Y-13438198D01*
X16827206Y-13438198D02*
X16817682Y-13447722D01*
X16817682Y-13447722D02*
X16808158Y-13466769D01*
X16998634Y-13352484D02*
X16998634Y-13390579D01*
X17074825Y-13352484D02*
X17074825Y-13390579D01*
X17370063Y-13628674D02*
X17360539Y-13619150D01*
X17360539Y-13619150D02*
X17341491Y-13590579D01*
X17341491Y-13590579D02*
X17331968Y-13571531D01*
X17331968Y-13571531D02*
X17322444Y-13542960D01*
X17322444Y-13542960D02*
X17312920Y-13495341D01*
X17312920Y-13495341D02*
X17312920Y-13457246D01*
X17312920Y-13457246D02*
X17322444Y-13409627D01*
X17322444Y-13409627D02*
X17331968Y-13381055D01*
X17331968Y-13381055D02*
X17341491Y-13362008D01*
X17341491Y-13362008D02*
X17360539Y-13333436D01*
X17360539Y-13333436D02*
X17370063Y-13323912D01*
X17551015Y-13552484D02*
X17436730Y-13552484D01*
X17493872Y-13552484D02*
X17493872Y-13352484D01*
X17493872Y-13352484D02*
X17474825Y-13381055D01*
X17474825Y-13381055D02*
X17455777Y-13400103D01*
X17455777Y-13400103D02*
X17436730Y-13409627D01*
X17789111Y-13552484D02*
X17789111Y-13352484D01*
X17874825Y-13552484D02*
X17874825Y-13447722D01*
X17874825Y-13447722D02*
X17865301Y-13428674D01*
X17865301Y-13428674D02*
X17846253Y-13419150D01*
X17846253Y-13419150D02*
X17817682Y-13419150D01*
X17817682Y-13419150D02*
X17798634Y-13428674D01*
X17798634Y-13428674D02*
X17789111Y-13438198D01*
X17998634Y-13552484D02*
X17979587Y-13542960D01*
X17979587Y-13542960D02*
X17970063Y-13533436D01*
X17970063Y-13533436D02*
X17960539Y-13514388D01*
X17960539Y-13514388D02*
X17960539Y-13457246D01*
X17960539Y-13457246D02*
X17970063Y-13438198D01*
X17970063Y-13438198D02*
X17979587Y-13428674D01*
X17979587Y-13428674D02*
X17998634Y-13419150D01*
X17998634Y-13419150D02*
X18027206Y-13419150D01*
X18027206Y-13419150D02*
X18046253Y-13428674D01*
X18046253Y-13428674D02*
X18055777Y-13438198D01*
X18055777Y-13438198D02*
X18065301Y-13457246D01*
X18065301Y-13457246D02*
X18065301Y-13514388D01*
X18065301Y-13514388D02*
X18055777Y-13533436D01*
X18055777Y-13533436D02*
X18046253Y-13542960D01*
X18046253Y-13542960D02*
X18027206Y-13552484D01*
X18027206Y-13552484D02*
X17998634Y-13552484D01*
X18179587Y-13552484D02*
X18160539Y-13542960D01*
X18160539Y-13542960D02*
X18151015Y-13523912D01*
X18151015Y-13523912D02*
X18151015Y-13352484D01*
X18331968Y-13542960D02*
X18312920Y-13552484D01*
X18312920Y-13552484D02*
X18274825Y-13552484D01*
X18274825Y-13552484D02*
X18255777Y-13542960D01*
X18255777Y-13542960D02*
X18246253Y-13523912D01*
X18246253Y-13523912D02*
X18246253Y-13447722D01*
X18246253Y-13447722D02*
X18255777Y-13428674D01*
X18255777Y-13428674D02*
X18274825Y-13419150D01*
X18274825Y-13419150D02*
X18312920Y-13419150D01*
X18312920Y-13419150D02*
X18331968Y-13428674D01*
X18331968Y-13428674D02*
X18341492Y-13447722D01*
X18341492Y-13447722D02*
X18341492Y-13466769D01*
X18341492Y-13466769D02*
X18246253Y-13485817D01*
X18408158Y-13628674D02*
X18417682Y-13619150D01*
X18417682Y-13619150D02*
X18436730Y-13590579D01*
X18436730Y-13590579D02*
X18446253Y-13571531D01*
X18446253Y-13571531D02*
X18455777Y-13542960D01*
X18455777Y-13542960D02*
X18465301Y-13495341D01*
X18465301Y-13495341D02*
X18465301Y-13457246D01*
X18465301Y-13457246D02*
X18455777Y-13409627D01*
X18455777Y-13409627D02*
X18446253Y-13381055D01*
X18446253Y-13381055D02*
X18436730Y-13362008D01*
X18436730Y-13362008D02*
X18417682Y-13333436D01*
X18417682Y-13333436D02*
X18408158Y-13323912D01*
M02*
